<?xml version="1.0" standalone="no"?>
<!DOCTYPE svg PUBLIC "-//W3C//DTD SVG 1.1//EN" "http://www.w3.org/Graphics/SVG/1.1/DTD/svg11.dtd" >
<svg xmlns="http://www.w3.org/2000/svg" xmlns:xlink="http://www.w3.org/1999/xlink" version="1.1">
<metadata>
Created by FontForge 20170731 at Tue Aug 27 03:49:16 2019
 By Aleksey,,,
Copyright (c) 2019 by Cafe24. All rights reserved.
</metadata>
<defs>
<font id="Cafe24Dongdong" horiz-adv-x="900" >
  <font-face 
    font-family="Cafe24 Dongdong"
    font-weight="400"
    font-stretch="normal"
    units-per-em="1000"
    panose-1="2 0 5 0 0 0 0 2 0 4"
    ascent="800"
    descent="-200"
    x-height="476"
    cap-height="637.5"
    bbox="5.92308 -241.451 934 825"
    underline-thickness="50"
    underline-position="-250"
    unicode-range="U+000D-FFE6"
  />
<missing-glyph horiz-adv-x="354" 
 />
    <glyph glyph-name=".notdef" horiz-adv-x="354" 
 />
    <glyph glyph-name=".null" horiz-adv-x="0" 
 />
    <glyph glyph-name="nonmarkingreturn" unicode="&#xd;" horiz-adv-x="354" 
 />
    <glyph glyph-name="NULL" horiz-adv-x="0" 
 />
    <glyph glyph-name="NULL" horiz-adv-x="0" 
 />
    <glyph glyph-name="space" unicode=" " horiz-adv-x="270" 
 />
    <glyph glyph-name="exclam" unicode="!" horiz-adv-x="300" 
d="M218 53q0 -9 -2.5 -20t-8 -20.5t-14.5 -16t-22 -6.5q-11 0 -23 3t-21.5 9t-16 15.5t-6.5 22.5q0 9 1.5 20t5.5 21.5t11 19.5t18 13q23 2 39 -2.5t23 -12.5q9 -11 12 -24t4 -22zM216 602q0 -48 -1.5 -104.5t-3.5 -110.5t-3.5 -99t-2.5 -69q0 -22 -11 -34t-31 -12
q-19 0 -30.5 12.5t-11.5 40.5l-15 373q-2 31 16 44.5t39 12.5q29 -1 42 -18.5t13 -35.5z" />
    <glyph glyph-name="quotedbl" unicode="&#x22;" horiz-adv-x="341" 
d="M73 742q-2 17 6.5 26t22.5 9q10 2 20 -4t15 -20q4 -15 7 -35t3.5 -42t-1.5 -44.5t-8 -41.5q-4 -18 -15 -25t-22 -5q-12 2 -23 12.5t-7 27.5q3 12 4.5 30.5t1 39t-1.5 40t-2 32.5zM205 742q-2 17 6.5 26t21.5 9q10 2 20 -4t16 -20q4 -15 6.5 -35t3 -42t-1.5 -44.5
t-7 -41.5q-5 -18 -16 -25t-22 -5t-22 12.5t-8 27.5q3 12 4 30.5t1 39t-0.5 40t-1.5 32.5z" />
    <glyph glyph-name="numbersign" unicode="#" horiz-adv-x="741" 
d="M73 183q-10 3 -16 9t-9 13.5t-3.5 16t0.5 15.5q2 14 14 23t31 7q26 -5 53 -8t53 -5q4 36 9 73t11 74q-56 3 -92 6q-17 1 -22 16.5t-3 27.5q1 14 13.5 27t35.5 10q40 -4 80 -6q7 38 12.5 67.5t10.5 48.5q5 23 20.5 29.5t30.5 2.5q14 -5 24 -18.5t5 -33.5q-6 -21 -11.5 -46
t-10.5 -54q75 -1 148 0q5 34 11 67.5t12 67.5q1 14 14 20.5t31 3.5q16 -3 27 -14t9 -25q-5 -29 -10 -59l-10 -60q23 1 45.5 2t46.5 3q20 1 27 -12.5t8 -25.5q1 -14 -5.5 -25.5t-26.5 -12.5q-24 -2 -51 -3.5t-56 -2.5q-5 -38 -11 -75t-11 -73q26 2 50 5l48 6q20 3 32 -5
t15 -21q5 -16 -4.5 -32t-32.5 -20q-28 -5 -58 -8.5t-61 -5.5q-4 -28 -7.5 -55t-6.5 -53q-1 -21 -14 -30t-28 -8q-8 0 -16 3t-14 8.5t-8.5 13.5t-0.5 18q3 25 5.5 49t5.5 50q-36 -1 -72.5 -1.5t-69.5 0.5q-5 -50 -6 -94q-1 -15 -11.5 -25.5t-28.5 -10.5q-16 1 -29.5 10
t-13.5 29q0 17 1.5 41.5t4.5 52.5q-43 2 -73 5.5t-41 6.5zM445 399q-77 -2 -149 0q-5 -36 -10 -74t-9 -76q38 -2 74 -2.5t73 1.5l10 76t11 75z" />
    <glyph glyph-name="dollar" unicode="$" horiz-adv-x="554" 
d="M387 570q-12 6 -24 8.5t-33 4.5q1 -48 2.5 -89t-1.5 -86q34 -17 66 -34t56.5 -40t39 -53.5t14.5 -73.5q-1 -42 -17.5 -69.5t-43 -44t-58 -23.5t-62.5 -7q1 -20 0.5 -33.5t0.5 -30.5q0 -12 -4.5 -19t-12 -10.5t-15.5 -5t-14 -1.5q-7 0 -17.5 3.5t-16.5 12.5q-7 9 -8.5 32
t-1.5 52q-50 5 -96.5 28.5t-68.5 67.5q-8 16 -2 29.5t16 18.5q8 5 20 5.5t19 -7.5q26 -31 50.5 -43.5t59.5 -22.5l8 222q-27 12 -57.5 27t-56 35t-42.5 45.5t-17 60.5q0 34 17.5 57t44 38t57.5 22.5t58 9.5l-4 64q-1 16 11 24.5t25 8.5q19 0 31 -6t14 -24l4 -69
q33 -5 56.5 -11t43.5 -23q12 -11 12 -24t-6 -21q-11 -14 -24.5 -12t-22.5 7zM325 309q-1 -44 -1.5 -84.5t0.5 -85.5q61 7 85 24.5t24 52.5q0 22 -11 39.5t-27 31.5t-35 24t-35 17v-19zM249 442q2 37 0.5 70t-1.5 73q-38 -5 -65 -21.5t-26 -42.5q0 -17 10 -29t24.5 -21.5
t30 -16t27.5 -12.5z" />
    <glyph glyph-name="percent" unicode="%" horiz-adv-x="810" 
d="M41 459q0 29 11.5 53.5t31.5 42.5t46 28t56 10q28 0 54 -10t46.5 -28t32.5 -42.5t12 -53.5t-12 -53.5t-32.5 -42.5t-46.5 -28t-54 -10q-30 0 -56 10t-46 28t-31.5 42.5t-11.5 53.5zM124 459q0 -26 18 -40.5t44 -14.5q24 0 41.5 14.5t17.5 40.5q0 23 -17.5 39t-41.5 16
q-26 0 -44 -16t-18 -39zM492 640q15 20 29.5 23.5t28.5 -3.5q18 -8 24.5 -25t-1.5 -32q-39 -80 -71.5 -144.5t-61.5 -126t-55.5 -126t-51.5 -143.5q-7 -23 -27 -28t-33 1q-12 4 -22.5 14t-6.5 30q25 78 56.5 156.5t65.5 151.5t66.5 137.5t59.5 114.5zM461 181
q0 29 11.5 53.5t31.5 42.5t46.5 28t55.5 10q28 0 54.5 -10t46 -28t31.5 -42.5t12 -53.5t-12 -53.5t-31.5 -42.5t-46 -28t-54.5 -10q-29 0 -55.5 10t-46.5 28t-31.5 42.5t-11.5 53.5zM545 181q0 -25 17.5 -40t43.5 -15q24 0 42 15t18 40q0 24 -18 40t-42 16q-26 0 -43.5 -16
t-17.5 -40z" />
    <glyph glyph-name="ampersand" unicode="&#x26;" horiz-adv-x="723" 
d="M633 98q19 -1 28 -14.5t7 -29.5q-3 -39 -40 -39q-38 0 -73 8.5t-67 23.5q-46 -36 -104 -55t-124 -17q-32 1 -62 10t-53 27t-38 45t-16 64q-2 36 6.5 65t25 53t39.5 45t49 41q-25 39 -40.5 81t-17.5 94q-2 34 8 62.5t30.5 49.5t51.5 33t72 12q27 0 53 -9t46 -26.5t33 -42
t13 -55.5q0 -38 -9.5 -67.5t-26.5 -53.5t-41.5 -45.5t-55.5 -44.5q11 -14 21.5 -27t21.5 -28q26 -32 50 -58t50 -46q17 26 28.5 55.5t16.5 63.5q4 21 17.5 30.5t27.5 8.5q15 -1 27.5 -13.5t10.5 -35.5q-3 -43 -16 -80.5t-34 -69.5q39 -14 85 -15zM258 53q43 -5 83 7t72 36
q-26 20 -48.5 43t-45.5 49q-32 36 -61 73q-38 -33 -59 -65.5t-19 -68.5q1 -21 8.5 -34.5t19 -22t25 -12.5t25.5 -5zM242 504q0 -39 10 -70t27 -59q40 30 68.5 65t26.5 81q-2 22 -15.5 38.5t-48.5 15.5q-28 -1 -48 -17.5t-20 -53.5z" />
    <glyph glyph-name="quotesingle" unicode="'" horiz-adv-x="243" 
d="M78 738q-2 17 7 26t22 9q10 2 20 -3.5t16 -19.5q4 -14 6.5 -34t3 -42.5t-1.5 -45.5t-7 -42q-5 -18 -16 -24.5t-22 -4.5t-22 12.5t-8 27.5q3 11 4 30t1 39t-1 39.5t-2 32.5z" />
    <glyph glyph-name="parenleft" unicode="(" horiz-adv-x="413" 
d="M220 714q14 18 31 19.5t29 -7t16 -25t-8 -34.5q-29 -44 -49.5 -78t-33.5 -68t-18.5 -73t-5.5 -92q0 -76 23.5 -143.5t85.5 -132.5q15 -16 13 -32t-12 -26q-9 -9 -27.5 -11t-30.5 11q-66 67 -99.5 152.5t-33.5 188.5q0 68 10.5 120.5t27.5 94.5t38.5 74.5t43.5 61.5z" />
    <glyph glyph-name="parenright" unicode=")" horiz-adv-x="442" 
d="M200 715q22 -29 43.5 -61.5t38.5 -74.5t27.5 -94.5t10.5 -120.5q0 -103 -33.5 -188.5t-99.5 -152.5q-12 -12 -31 -10.5t-27 10.5q-10 10 -11.5 26t12.5 32q61 65 85 133t24 143q0 53 -6 92t-18.5 73t-33 68t-48.5 78q-12 18 -8.5 34.5t16 25t29 7t30.5 -19.5z" />
    <glyph glyph-name="asterisk" unicode="*" horiz-adv-x="529" 
d="M125 630q13 14 27.5 13.5t24.5 -9.5q19 -17 43 -42.5t48 -55.5l60 99q8 14 20.5 18.5t24.5 1.5q7 -3 13.5 -7t9.5 -11t2 -16.5t-9 -22.5q-9 -17 -20.5 -36.5t-24.5 -41.5q24 1 45.5 1h37.5t27 -8t13 -21q1 -8 0.5 -15.5t-4 -13.5t-12.5 -10t-24 -4q-19 -1 -42 -1t-49 -2
q19 -26 34 -49t24 -40q8 -14 7 -25.5t-12 -19.5q-11 -11 -28 -7.5t-28 22.5q-11 18 -25 38.5t-30 42.5q-16 -29 -30 -55t-25 -47q-8 -15 -23 -20.5t-30 2.5q-16 9 -18.5 23.5t3.5 27.5q11 21 25.5 47.5t31.5 55.5l-120 -6q-17 -1 -28 9.5t-12 27.5q0 19 11.5 28.5t25.5 10.5
q20 2 45.5 2t54.5 2q-15 18 -30 34t-29 30q-11 11 -13.5 24.5t8.5 25.5z" />
    <glyph glyph-name="plus" unicode="+" horiz-adv-x="542" 
d="M260 577q18 0 31 -11t14 -25q2 -24 3 -56.5t1 -68.5q35 -1 67 -1h54q16 0 27 -10t13 -22q1 -8 0.5 -16.5t-4 -16.5t-12.5 -13t-24 -5q-25 -1 -56 -0.5t-64 0.5v-130q0 -16 -11.5 -26.5t-23.5 -12.5q-8 -2 -17 -1.5t-17 4t-14 12.5t-6 24q-1 26 -0.5 60.5t0.5 69.5h-66.5
t-59.5 -1q-17 -1 -28 9.5t-12 27.5q-1 23 11 33.5t26 11.5q24 2 57.5 2.5t71.5 0.5q-1 33 -1.5 64.5t-1.5 57.5q-1 17 12 27.5t30 11.5z" />
    <glyph glyph-name="comma" unicode="," horiz-adv-x="252" 
d="M153 -86q-11 -21 -23 -32t-32 -4q-10 3 -13 13t2 23q4 9 8.5 20.5t7.5 22.5q4 12 7 24q-11 0 -23 4t-21 14t-13.5 25.5t-1.5 38.5q5 31 26.5 46.5t50.5 15.5q28 -2 46 -22t21 -51q1 -22 -2.5 -42t-10.5 -37.5t-15 -32t-14 -26.5z" />
    <glyph glyph-name="hyphen" unicode="-" horiz-adv-x="530" 
d="M55 361q-1 23 11 33.5t26 11.5q32 1 78 1.5t94 0.5t92.5 -0.5t73.5 -0.5q16 0 27 -9.5t13 -22.5q1 -8 0.5 -16.5t-4 -16.5t-12.5 -13t-24 -5h-75.5t-88 0.5t-90 0t-81.5 -1.5q-17 -1 -28 9.5t-12 28.5z" />
    <glyph glyph-name="period" unicode="." horiz-adv-x="290" 
d="M135 -22q-12 0 -24 4.5t-21.5 15t-14 26.5t-1.5 39q5 31 26.5 46.5t50.5 15.5q28 0 46.5 -21t20.5 -52q2 -41 -18 -57.5t-65 -16.5z" />
    <glyph glyph-name="slash" unicode="/" horiz-adv-x="466" 
d="M315 634q15 20 29.5 23.5t28.5 -2.5q19 -8 25.5 -24t-1.5 -32q-39 -79 -73 -152t-64.5 -144.5t-57.5 -145t-52 -152.5q-8 -24 -25 -28t-30 1q-13 3 -23 13t-6 31q25 78 57 164.5t65.5 169.5t66.5 155.5t60 122.5z" />
    <glyph glyph-name="zero" unicode="0" horiz-adv-x="563" 
d="M68 311q0 56 14 115.5t42.5 108.5t72.5 80t103 29q57 -2 96 -34t62 -80.5t32 -107t5 -113.5q-5 -57 -20.5 -114t-44 -102t-72.5 -73t-107 -28q-55 0 -91.5 33t-57.5 82t-28.5 104.5t-5.5 99.5zM408 314q1 19 0.5 44.5t-4 53.5t-11 55t-20.5 48.5t-32.5 34.5t-46.5 13
q-33 0 -58.5 -21.5t-42.5 -57.5t-27 -82.5t-13 -95.5q-2 -29 2.5 -68.5t17 -75t34 -60.5t54.5 -25q39 0 66.5 23.5t45 59t25.5 77t10 77.5z" />
    <glyph glyph-name="one" unicode="1" horiz-adv-x="339" 
d="M153 532q-16 -8 -32 -17t-18 -12q-43 -25 -62 5q-3 3 -5.5 9.5t-2 14t5 17t15.5 18.5q17 14 48 31t58 27q11 4 24.5 6t25 -1.5t19 -12.5t7.5 -25q-3 -73 -5.5 -134t-4 -123t-0.5 -131.5t6 -159.5q1 -23 -13.5 -34t-29.5 -12t-25.5 9.5t-12.5 32.5q-3 67 -5 127.5t-2 119
t2 118.5t7 127z" />
    <glyph glyph-name="two" unicode="2" horiz-adv-x="541" 
d="M112 510q-24 -8 -42 -3.5t-23 22.5q-4 11 -2 24.5t18 23.5q17 10 40 19.5t48 17t50.5 11.5t46.5 4q30 0 58.5 -7t51 -21.5t38 -37t20.5 -52.5q11 -55 -7.5 -110t-51.5 -107.5t-73.5 -100.5t-72.5 -90q64 -4 125.5 -4.5t118.5 6.5q22 2 33.5 -11.5t11.5 -30.5
q0 -14 -7.5 -25.5t-24.5 -13.5q-38 -4 -87 -5.5t-96.5 -0.5t-87.5 3t-59 4q-16 2 -25 8.5t-17 20.5q-5 16 -1.5 31t11.5 28t18.5 25t19.5 22q22 26 56.5 64.5t65.5 83t50.5 91t11.5 87.5q-13 61 -78 60q-34 0 -69.5 -12.5t-68.5 -23.5z" />
    <glyph glyph-name="three" unicode="3" horiz-adv-x="502" 
d="M142 536q-16 -9 -28.5 -8.5t-21.5 8.5q-12 11 -14.5 27.5t14.5 30.5q26 24 58 34t70 12q38 3 69.5 -7t54 -29.5t35.5 -46t16 -57.5q4 -42 -9 -82t-47 -71q51 -17 76 -54.5t30 -85.5q6 -48 -9.5 -86.5t-45.5 -65.5t-71.5 -41t-88.5 -11q-28 2 -56 11.5t-52.5 25.5
t-43.5 38t-28 49q-4 16 1.5 29t15.5 19q14 8 30 5t29 -22q29 -38 56.5 -54t61.5 -18q19 -1 41.5 3.5t40.5 17t29 35t9 57.5q-2 21 -14 38t-30.5 28.5t-41 16t-45.5 0.5q-13 -3 -25.5 -5t-29.5 -4q-10 -1 -17 2.5t-11.5 9t-7.5 12.5t-4 13q-2 15 4.5 28t25.5 15
q30 4 61.5 16.5t51.5 35.5q18 17 25 38.5t5 51.5q-2 12 -6.5 24.5t-13.5 22t-22.5 15.5t-33.5 6q-23 0 -45.5 -6t-47.5 -21z" />
    <glyph glyph-name="four" unicode="4" horiz-adv-x="565" 
d="M351 613q2 18 12.5 26t23.5 10q7 1 16 -1t16.5 -7t12.5 -12t4 -17q-7 -94 -10 -180t-3 -171l81 2q20 1 29 -12t8 -28q-1 -16 -10.5 -28t-29.5 -14l-77 -2q0 -31 1 -61t3 -62q2 -22 -12.5 -34t-28.5 -12t-27.5 10.5t-14.5 31.5q-2 32 -3 62.5t-2 62.5q-55 -1 -110.5 -0.5
t-110.5 2.5q-15 0 -28 3t-21 10.5t-10.5 20.5t2.5 35q9 39 18.5 85.5t20 94t21 93t19.5 83.5q4 18 20 22.5t28 1.5q14 -4 24.5 -17t5.5 -32q-1 -6 -9 -43t-19 -86.5t-22 -101.5t-17 -88q46 -2 92 -2t94 1q-1 94 2 182.5t11 171.5z" />
    <glyph glyph-name="five" unicode="5" horiz-adv-x="542" 
d="M159 259q-13 -10 -27 -15t-29 -1q-8 3 -16 13t-8 32q1 29 2.5 60t5 67t9 79.5t14.5 99.5q3 17 14 29t31 11q24 -2 55 -3t62.5 -1t61.5 0.5t53 2.5q46 3 43 -40q-2 -17 -10.5 -27.5t-37.5 -14.5q-11 0 -35 -0.5t-52.5 0t-56.5 1t-47 2.5q-4 -26 -8 -54.5t-8 -55t-7 -49
t-5 -35.5q16 8 47.5 16.5t68.5 8.5q42 0 81 -10.5t69 -32.5t47.5 -56t16.5 -81q-3 -63 -25.5 -102.5t-57.5 -61t-78.5 -29.5t-89.5 -8q-23 0 -47.5 1t-47.5 6q-18 5 -24 16.5t-6 25.5q0 15 12 27t37 10q20 -5 40 -7t40 0q34 1 63 9t49.5 23t31.5 38.5t11 56.5
q-1 45 -33 69.5t-83 23.5q-41 -1 -69.5 -12.5t-56.5 -31.5z" />
    <glyph glyph-name="six" unicode="6" horiz-adv-x="534" 
d="M329 628q4 -34 -17 -42q-20 -8 -37 -22t-32 -31q-23 -27 -39 -60.5t-26 -67.5t-14.5 -65.5t-3.5 -55.5q27 40 63 67t89 27q35 0 67 -12t56 -34t38.5 -53.5t14.5 -69.5q0 -56 -15.5 -96t-42 -66t-62 -38.5t-75.5 -12.5q-53 0 -92 22.5t-65.5 58.5t-40.5 81.5t-17 91.5
q-3 37 2.5 82.5t19 92.5t34.5 91t50 77q21 23 44.5 39.5t50.5 24.5q17 5 32 -4.5t18 -24.5zM313 293q-39 -1 -74.5 -32.5t-64.5 -74.5q5 -20 14 -39t23.5 -33.5t34 -23.5t45.5 -9q48 0 80 27.5t32 86.5q0 20 -6 38t-18 31.5t-28.5 21.5t-37.5 7z" />
    <glyph glyph-name="seven" unicode="7" horiz-adv-x="502" 
d="M67 629q26 -2 61 -2t74 0.5t78.5 3t75.5 6.5q32 5 52.5 -3.5t30.5 -23.5t9.5 -35t-8.5 -41q-29 -70 -48 -136.5t-31 -131.5q-10 -54 -15.5 -107t-7.5 -107q-2 -31 -11 -40.5t-32 -10.5q-20 -1 -28 10.5t-8 28.5q2 63 6.5 117t13.5 105q12 67 30 131.5t43 136.5
q11 31 -14 28q-26 -5 -63.5 -7t-76 -2.5t-74 0t-57.5 2.5q-30 2 -38.5 14t-8.5 29q0 14 10.5 25.5t36.5 9.5z" />
    <glyph glyph-name="eight" unicode="8" horiz-adv-x="524" 
d="M437 512q2 -41 -23.5 -83.5t-80.5 -85.5q42 -19 69.5 -40.5t44 -46.5t22.5 -52t5 -57q-1 -38 -20 -66.5t-48.5 -47.5t-65 -29t-69.5 -11q-33 -1 -66.5 7.5t-60.5 27t-45.5 48t-21.5 69.5q-4 33 2 57t20.5 45t35.5 40.5t47 43.5q-25 12 -47 26.5t-38 33.5t-25 44t-9 57
q0 76 50.5 116t135.5 45q9 0 38.5 -3.5t62 -18t59 -42.5t28.5 -77zM389 161q-1 49 -34 78.5t-83 51.5q-20 -16 -40 -29.5t-35.5 -29t-24.5 -35t-8 -47.5q2 -27 26 -50t69 -25q27 -1 51 4.5t42 16.5t28 27.5t9 37.5zM348 515q-3 26 -28.5 42t-67.5 16q-30 0 -50.5 -7.5
t-33 -19t-18 -26t-5.5 -28.5q0 -23 11 -42.5t27 -34.5t35 -25t36 -14q10 5 27 18t32.5 31.5t26 41.5t8.5 48z" />
    <glyph glyph-name="nine" unicode="9" horiz-adv-x="518" 
d="M254 75q20 31 36 57t29.5 52.5t25.5 57.5t24 73q-22 -20 -51 -28.5t-65 -10.5q-44 0 -80.5 12t-62.5 35t-40.5 57t-15.5 78q-1 43 13.5 80.5t40.5 65.5t61.5 44t76.5 16q55 0 95.5 -20.5t67.5 -54t40.5 -77.5t13.5 -91q0 -53 -13.5 -107t-34.5 -106t-47.5 -99t-52.5 -84
q-10 -13 -25 -20.5t-31 3.5q-22 12 -19 31.5t14 35.5zM249 352q32 0 68 14.5t64 48.5v14q0 31 -9 59t-26 49.5t-41.5 34.5t-56.5 13q-24 0 -44 -10t-34.5 -26.5t-22.5 -37.5t-8 -42q0 -52 24 -84.5t86 -32.5z" />
    <glyph glyph-name="colon" unicode=":" horiz-adv-x="314" 
d="M148 460q-12 0 -24 4.5t-21 14.5t-14 26.5t-2 39.5q5 31 27 46t51 15q27 0 45.5 -21t20.5 -52q3 -41 -17.5 -57t-65.5 -16zM147 147q-11 0 -23 4.5t-21.5 15t-14.5 26.5t-2 39q5 31 27 46.5t51 15.5q27 0 45.5 -21.5t20.5 -51.5q2 -41 -18 -57.5t-65 -16.5z" />
    <glyph glyph-name="semicolon" unicode=";" horiz-adv-x="315" 
d="M148 460q-12 0 -24 4.5t-21 14.5t-14 26.5t-2 39.5q5 31 27 46t51 15q27 0 45.5 -21t20.5 -52q3 -41 -17.5 -57t-65.5 -16zM189 87q-11 -20 -22.5 -31t-31.5 -5q-10 3 -13 13t2 22q4 10 8 21.5t7 22.5q4 12 7 24q-11 0 -22.5 4t-20.5 14t-14 26t-2 39q5 31 27 46t51 15
q27 -2 45.5 -22.5t20.5 -50.5q2 -22 -2 -42t-10.5 -37.5t-14.5 -32.5t-15 -26z" />
    <glyph glyph-name="less" unicode="&#x3c;" horiz-adv-x="495" 
d="M369 706q11 11 29 14.5t39 -13.5q11 -10 14 -22t-8 -27q-33 -38 -64.5 -73t-62.5 -70.5t-62.5 -74t-64.5 -84.5q36 -45 66 -84.5t56 -77t50 -74.5t48 -76q12 -19 7.5 -38t-16.5 -26q-17 -8 -32 -6t-23 14q-29 43 -55 84.5t-54 82t-59 80t-69 79.5q-18 20 -17 37t8 30
q64 87 131.5 164.5t138.5 160.5z" />
    <glyph glyph-name="equal" unicode="=" horiz-adv-x="467" 
d="M41 461q-1 24 10.5 34t25.5 12q32 2 73.5 3t83.5 1h82h69q16 0 26.5 -10t12.5 -23q1 -7 0.5 -16t-4 -16.5t-12 -13t-23.5 -5.5h-71h-77.5t-79.5 -1t-76 -2q-17 0 -28 10t-12 27zM45 275q0 23 11.5 33.5t25.5 11.5q32 2 73.5 3t84 1h81.5h68q16 0 27 -9.5t13 -22.5
q1 -8 1 -16.5t-4 -16.5t-13 -13t-24 -5q-66 -1 -147.5 -0.5t-156.5 -2.5q-17 -1 -27.5 9.5t-12.5 27.5z" />
    <glyph glyph-name="greater" unicode="&#x3e;" horiz-adv-x="489" 
d="M153 706q70 -83 137.5 -160.5t132.5 -164.5q6 -13 7 -30t-17 -37q-38 -40 -69 -79.5t-59 -80t-54.5 -82t-54.5 -84.5q-8 -12 -23 -14t-32 6q-12 7 -17 26t7 38q24 39 48 76.5t50.5 75.5t56.5 77.5t66 84.5q-33 45 -64.5 83.5t-62.5 73.5t-62.5 70t-64.5 73q-11 15 -8 27
t14 22q21 17 39.5 13.5t29.5 -14.5z" />
    <glyph glyph-name="question" unicode="?" horiz-adv-x="482" 
d="M149 464q9 -13 3.5 -26t-18.5 -19q-11 -6 -25 -5t-26 14q-11 11 -20.5 33t-11.5 39q-2 32 8.5 61.5t33 51.5t55.5 35.5t77 13.5q39 0 73 -11.5t59 -33t38.5 -51t12.5 -64.5q-1 -40 -13.5 -71t-31.5 -56.5t-41 -47.5t-41 -43q-27 -25 -27 -74q0 -16 -9.5 -26.5t-32.5 -9.5
q-21 1 -30.5 15t-9.5 35q0 19 4.5 34t14 30.5t24.5 32.5t36 40q15 16 29 31.5t24 32t16 35.5t6 42q0 46 -28.5 67.5t-65.5 21.5q-24 0 -42 -6.5t-30 -16.5t-18 -23t-7 -26q0 -4 1.5 -21.5t12.5 -33.5zM218 -2q-9 0 -18 3.5t-15.5 11t-10 19.5t-0.5 29q3 20 19 31.5t37 11.5
q20 0 32.5 -15t14.5 -37q2 -32 -12.5 -43t-46.5 -11z" />
    <glyph glyph-name="at" unicode="@" horiz-adv-x="855" 
d="M459 45q9 -25 -4 -39t-30 -16q-60 -11 -112 -4t-85 22q-40 18 -70.5 49t-51.5 70t-32 82t-11 84q-4 85 21.5 151.5t74 113t117 72t151.5 27.5q66 1 127.5 -20.5t109.5 -59t78 -87.5t35 -107q3 -48 -6 -90t-29 -73t-52 -48.5t-74 -17.5q-38 0 -69 20.5t-50 50.5
q-21 -42 -58.5 -62t-83.5 -18q-26 0 -47.5 11t-37 31t-24.5 47t-9 59t9 65t30 60t54.5 44.5t81.5 17.5q25 0 48 -7.5t40 -26t26 -50.5t6 -81q1 -18 10 -34t23 -27t31.5 -16.5t35.5 -2.5q21 3 34 20t19.5 40t8 48t-1.5 45q-9 47 -36 83t-64 60t-80 35t-85 10
q-65 0 -118.5 -22t-91 -61t-56 -93.5t-12.5 -119.5q5 -43 17 -75t28 -56t35.5 -41t40.5 -30q11 -6 46.5 -14t81.5 0q6 1 14 3t17 1.5t17 -5.5t13 -18zM464 285q1 1 1 21t-4 43t-14.5 42.5t-31.5 20.5q-27 1 -47 -8.5t-33 -25.5t-20 -35t-9 -37q-2 -14 1 -29t10.5 -28t19 -22
t27.5 -10q25 -2 54 17t46 51z" />
    <glyph glyph-name="A" unicode="A" horiz-adv-x="575" 
d="M273 636q8 12 23.5 16.5t30 2t28 -12t18.5 -25.5q49 -136 95 -271.5t82 -278.5q7 -24 -3.5 -36.5t-27.5 -18.5q-16 -3 -30.5 3.5t-21.5 29.5q-23 86 -46 162q-58 0 -123 1t-129 -1l-69 -176q-6 -15 -23 -18.5t-32 1.5q-15 6 -23.5 19t-0.5 34q14 40 32.5 90t40 104
t44.5 109t46 105t46 91.5t43 69.5zM313 539q-33 -66 -60.5 -127.5t-52.5 -124.5q49 1 100 0t95 -1q-19 60 -40 121t-42 132z" />
    <glyph glyph-name="B" unicode="B" horiz-adv-x="583" 
d="M101 586q1 6 2 13.5t5.5 14.5t13.5 12.5t26 8.5q17 2 31.5 3.5t29.5 2t32 1t38 -0.5q92 -2 147.5 -40.5t60.5 -100.5q4 -42 -16 -83.5t-63 -76.5q58 -16 86 -50.5t33 -82.5t-11.5 -85t-49 -63t-78.5 -40.5t-99 -15.5q-21 -1 -44 -1t-45 1t-41 2.5t-32 3.5
q-14 0 -25.5 8.5t-13.5 26.5q-3 39 -3 103.5t1.5 140t5.5 154t9 144.5zM283 566q-24 1 -48.5 0t-48.5 -4q-2 -31 -5 -89t-5.5 -126t-4 -137.5t0.5 -122.5q38 -5 68.5 -6t62.5 1q19 1 45 6.5t48.5 18t37 35t12.5 57.5q-2 21 -14.5 38t-33 28.5t-48 16t-57.5 0.5
q-14 -3 -26 -5t-30 -4q-10 -1 -17 2.5t-11.5 9t-7 12.5t-3.5 13q-4 15 3.5 28t24.5 15q15 2 34.5 6t39 10.5t36.5 15.5t27 20q19 17 31 38.5t9 51.5q-1 12 -7.5 24.5t-20 22.5t-36 16.5t-56.5 7.5z" />
    <glyph glyph-name="C" unicode="C" horiz-adv-x="530" 
d="M468 538q-10 -13 -28 -12t-32 9q-17 11 -37 16t-41 6q-34 1 -65 -15t-56 -47t-42 -74.5t-23 -96.5q-8 -63 2 -107t31.5 -71.5t51.5 -40t63 -11.5q47 1 87 17t60 46q12 19 28 21.5t28.5 -5.5t17.5 -24.5t-4 -35.5q-15 -28 -40 -47.5t-54 -31.5t-59.5 -17.5t-57.5 -5.5
q-125 0 -189.5 79.5t-50.5 228.5q6 62 25 119t51 101t76 70.5t99 28.5q36 1 62 -3.5t43.5 -10.5t27 -12t12.5 -8l12.5 -12.5t10 -14.5t2 -17.5t-10.5 -21.5z" />
    <glyph glyph-name="D" unicode="D" horiz-adv-x="625" 
d="M104 602q2 20 15.5 32.5t33.5 11.5q83 -3 156 -18.5t129 -52.5t90.5 -100t40.5 -161q9 -159 -57.5 -237.5t-215.5 -83.5q-54 -2 -89.5 1.5t-56.5 7.5q-25 4 -39 11q-12 5 -16 14t-4 17q-2 26 -3 65t-0.5 86t2 100t3.5 106.5t4.5 105t6.5 95.5zM188 563q-2 -35 -5 -95
t-5.5 -127.5t-3.5 -135.5t1 -119q32 -9 61.5 -13.5t67.5 -0.5q97 8 145 66t37 173q-6 69 -28.5 115.5t-60 75.5t-90 43.5t-119.5 17.5z" />
    <glyph glyph-name="E" unicode="E" horiz-adv-x="542" 
d="M443 97q23 2 35.5 -8.5t14.5 -25.5q2 -17 -6.5 -29.5t-37.5 -15.5q-21 -2 -48.5 -4.5t-58.5 -4t-63.5 -2t-63.5 1.5q-71 4 -98 45.5t-27 121.5q-2 97 1.5 206t12.5 220q0 10 4 17q8 19 31 25q8 2 14 2q4 0 7 -1q43 2 86 2t81.5 -0.5t70.5 -1.5t54 -2q23 -1 34 -13t11 -26
q0 -17 -10 -29t-39 -11q-22 0 -53 0.5t-66 1t-71.5 1t-69.5 0.5q-2 -32 -5 -84t-5 -115q81 3 148.5 4t109.5 -1q23 -1 33.5 -13t10.5 -26q0 -17 -10 -29t-39 -11q-23 1 -54 0.5t-65 -1t-69.5 -1.5t-67.5 -1q-1 -37 -1.5 -72t0.5 -67q-1 -26 13.5 -44t38.5 -20q68 -5 125 1.5
t92 9.5z" />
    <glyph glyph-name="F" unicode="F" horiz-adv-x="542" 
d="M94 602q0 10 5 18q2 6 6 11.5t12 8.5h1q2 0 4 2q5 2 10 2.5t10 1.5q4 0 7 -1q44 2 88.5 2t85 -0.5t74 -1.5t55.5 -2q23 -1 34 -13t11 -26q0 -17 -10 -29t-39 -11q-22 0 -54 0.5t-69 1t-75 1t-71 0.5q0 -31 -0.5 -83.5t-0.5 -115.5q81 3 148 4t110 -1q23 -1 33.5 -13
t10.5 -26q0 -17 -10 -29t-39 -11q-23 1 -53.5 0.5t-64.5 -1t-69 -1.5t-66 -1q1 -70 2 -134.5t5 -107.5q2 -18 -10.5 -29t-29.5 -13q-16 -2 -30.5 6.5t-16.5 28.5q-3 39 -5.5 106.5t-4 146.5t-0.5 161t6 148z" />
    <glyph glyph-name="G" unicode="G" horiz-adv-x="619" 
d="M333 257q-22 2 -32 14.5t-9.5 27t12 27t32.5 13.5q51 3 101 1.5t101 -3.5q18 1 26.5 -12.5t8 -30t-10.5 -29t-29 -10.5h-5q1 -22 3 -44.5t7 -43.5t13.5 -40.5t22.5 -36.5q12 -18 9.5 -34.5t-13.5 -26t-27.5 -9.5t-31.5 16q-28 34 -42 74q-18 -30 -39.5 -49.5t-44.5 -30.5
t-45.5 -15t-41.5 -4q-125 0 -189.5 79.5t-50.5 228.5q6 62 25 119t51 101t76 70.5t99 28.5q36 1 62 -3.5t43.5 -10.5t27 -12t12.5 -8l12.5 -12.5t10 -14.5t2 -17.5t-10.5 -21.5q-10 -13 -28 -12t-32 9q-17 11 -37 16t-41 6q-34 1 -65 -15t-56 -47t-42 -74.5t-23 -96.5
q-8 -63 2 -107t31.5 -71.5t51.5 -40t63 -11.5q22 0 43.5 5.5t39.5 23t32 49t20 84.5q-24 0 -47 0.5t-47 0.5z" />
    <glyph glyph-name="H" unicode="H" horiz-adv-x="676" 
d="M489 593q-2 22 8.5 36.5t30.5 16.5q17 2 30 -7.5t15 -29.5q6 -59 9 -133t3.5 -150.5t-0.5 -148t-4 -126.5q-1 -18 -12 -29.5t-28 -12.5q-25 -1 -36 10.5t-10 31.5q1 40 2 99t1 128q-88 -2 -174.5 -5.5t-151.5 -5.5q-2 -63 -1.5 -119.5t2.5 -96.5q2 -18 -10.5 -29
t-28.5 -13q-16 -1 -30.5 7t-16.5 28q-2 26 -2.5 65t-0.5 86t1.5 100t3.5 106.5t4.5 105t6.5 95.5q2 20 15.5 31.5t33.5 12.5q16 1 28.5 -12.5t9.5 -31.5q-2 -37 -4 -78q-2 -35 -4.5 -81t-4.5 -97q28 2 64.5 4t78.5 3.5t88 2.5t92 1q-1 62 -2.5 122t-5.5 114z" />
    <glyph glyph-name="I" unicode="I" horiz-adv-x="428" 
d="M347 95q23 -1 34 -13t11 -27q0 -17 -10 -29t-39 -11q-25 1 -58 1t-69 -1t-72.5 -2t-68.5 -1q-23 -1 -32.5 12t-10.5 27q-1 16 11 27.5t32 12.5l93 3q-2 41 -3 96t-1 116.5t2 126t6 123.5q-22 -1 -43.5 -1.5t-43.5 -0.5q-23 -1 -32 12t-10 27q-1 16 11 27.5t31 12.5
q90 4 148 4.5t103 -0.5q23 -1 34.5 -13t11.5 -27q0 -17 -10.5 -29t-38.5 -11q-16 1 -33.5 1h-36.5q-1 -19 -2 -51.5t-2 -72t-2 -85t-1.5 -90t0 -87t2.5 -76.5h48t41 -1z" />
    <glyph glyph-name="J" unicode="J" horiz-adv-x="530" 
d="M462 637q23 -1 33.5 -13t10.5 -27q0 -17 -9.5 -29t-37.5 -11q-12 1 -27.5 1h-34.5q5 -29 9 -67.5t6.5 -76.5t3.5 -70t1 -46q0 -57 -7.5 -110.5t-29.5 -95.5t-62 -68t-105 -27q-35 0 -65.5 9t-54 29.5t-38.5 52.5t-19 77q-4 49 36 52q23 2 32 -13t13 -35q4 -30 13 -48
t21.5 -27.5t27.5 -13t31 -3.5q42 0 66.5 22t37 55t16.5 72.5t4 74.5q0 26 -2 58t-5 66t-7 68t-9 64q-51 -1 -99.5 -2t-83.5 -1q-23 -1 -32.5 12t-10.5 27q0 16 12 27.5t31 12.5q45 2 94.5 3t95 1.5t83.5 0.5t61 -1z" />
    <glyph glyph-name="K" unicode="K" horiz-adv-x="581" 
d="M102 602q2 20 14.5 31.5t32.5 12.5q8 0 16 -3.5t14 -9.5t9.5 -14t1.5 -17q-1 -38 -3 -82q-2 -38 -3.5 -86.5t-2.5 -100.5q58 51 100 92.5t74.5 76t58 64t50.5 56.5q17 14 33.5 12.5t26.5 -12.5q11 -11 12 -27t-13 -33q-44 -48 -97.5 -104t-107.5 -108q22 -28 50 -64.5
t57 -72.5t58.5 -68.5t54.5 -51.5q20 -16 20.5 -32.5t-10 -28t-27.5 -15t-32 7.5q-30 22 -62.5 56.5t-63.5 72.5t-58 74.5t-48 63.5q-21 -20 -40.5 -36.5t-36.5 -29.5q0 -51 0.5 -96t3.5 -78q2 -18 -11 -29t-30 -13q-16 -1 -30 7t-16 28q-2 26 -3 65t-2 86t-1 100t1.5 106
t3.5 104.5t6 95.5z" />
    <glyph glyph-name="L" unicode="L" horiz-adv-x="542" 
d="M94 607q2 20 16.5 29t29.5 9q16 0 28.5 -9.5t10.5 -29.5q-4 -53 -9 -102t-8 -96.5t-3.5 -94.5t5.5 -95q2 -17 3.5 -33.5t9 -30t24 -23t48.5 -10.5q17 -1 42 0.5t55 4.5t62.5 6.5t64.5 5.5q20 2 31 -11.5t13 -27.5t-5.5 -28t-26.5 -18q-29 -5 -67.5 -9t-78 -7t-75 -3.5
t-58.5 1.5q-33 4 -55.5 15.5t-37 30.5t-22 46t-10.5 61q-13 108 -7.5 210.5t20.5 208.5z" />
    <glyph glyph-name="M" unicode="M" horiz-adv-x="757" 
d="M99 602q1 17 11.5 27t25.5 15q5 1 14 1.5t18 -1.5t16.5 -7t10.5 -14q22 -57 41.5 -99.5t37.5 -74.5t33 -55t28 -40q11 9 31.5 28t46 43.5t53.5 52.5t52 54.5t41.5 48.5t23.5 36q8 26 37 29q17 2 30 -7.5t15 -29.5q6 -59 9 -133t3.5 -150.5t-0.5 -148t-3 -126.5
q-1 -18 -12.5 -29.5t-27.5 -12.5q-26 -1 -37 10.5t-11 31.5q1 34 2 83.5t1.5 107t0 119.5t-3.5 122q-25 -29 -54 -60t-57 -59.5t-51.5 -51t-38.5 -33.5q-23 -18 -50.5 -20.5t-50.5 21.5q-14 13 -27.5 34t-27 45.5t-26.5 51.5t-25 53q-3 -49 -5 -106.5t-3.5 -114t-1.5 -107.5
t3 -85q2 -18 -10.5 -29t-28.5 -13q-16 -1 -30.5 7t-16.5 28q-2 26 -2.5 65t0 86t1.5 100t3.5 106.5t5 105t6.5 95.5z" />
    <glyph glyph-name="N" unicode="N" horiz-adv-x="688" 
d="M102 602q2 20 15 31.5t33 12.5q8 0 16 -3.5t14 -9.5t9.5 -14t1.5 -17q-1 -3 -1 -7v-18q27 -57 65 -113.5t81.5 -111t89 -106t87.5 -99.5q3 48 4 103t0.5 114t-2.5 119.5t-4 119.5q-1 18 11.5 28t27.5 12q16 2 30 -7.5t16 -29.5q1 -18 3 -54.5t3 -83.5t2 -100t0.5 -103.5
t-2.5 -94.5t-5 -74q-2 -23 -18 -39t-40 -21q-24 0 -47.5 17t-39.5 34q-69 75 -139 160.5t-127 176.5q-1 -47 -2 -99.5t-1 -102.5t0.5 -94.5t3.5 -75.5q2 -18 -12 -29t-31 -13q-16 -1 -30.5 7t-16.5 28q-2 26 -3 65t-2 86t-1 100t1.5 106t3.5 104.5t6 95.5z" />
    <glyph glyph-name="O" unicode="O" horiz-adv-x="645" 
d="M55 295q-1 69 14.5 130t49 107t87 72t127.5 25q66 -1 115 -25.5t81 -65t48 -93t16 -108.5q0 -57 -18.5 -112t-52 -99t-81 -71.5t-104.5 -27.5q-54 0 -104 11t-89 41t-63 82t-26 134zM325 549q-50 0 -85.5 -21.5t-58 -56.5t-32.5 -80t-10 -91q0 -70 21 -108.5t52 -57
t65.5 -22t61.5 -2.5q40 1 71 21t52.5 52t32.5 71.5t13 78.5q1 47 -8.5 87t-31.5 68.5t-57.5 44.5t-85.5 16z" />
    <glyph glyph-name="P" unicode="P" horiz-adv-x="578" 
d="M104 602q2 20 15.5 31.5t33.5 12.5q27 2 56 3t49 1q48 -1 96.5 -16.5t88 -45t65.5 -73.5t28 -101q2 -54 -15 -91t-47.5 -60t-73.5 -34t-94 -13q-9 0 -24 0.5t-33 2.5t-37 5t-37 8q-2 -54 -1.5 -100.5t3.5 -80.5q2 -18 -10.5 -29t-29.5 -13q-15 -1 -29.5 7t-16.5 28
q-2 26 -3 65t-0.5 86t2 100t3.5 106.5t4.5 105t6.5 95.5zM188 565q-1 -19 -2.5 -46t-3 -59t-3 -68t-2.5 -74q31 -11 69.5 -16t68.5 -3q26 1 51.5 7.5t46 19t33 33.5t12.5 53q0 36 -18.5 65t-48 49.5t-66 31.5t-73.5 10q-13 -1 -30 -1t-34 -2z" />
    <glyph glyph-name="Q" unicode="Q" horiz-adv-x="648" 
d="M55 295q-5 69 10.5 130t50 106.5t89 72t128.5 25.5q66 -1 115 -25.5t81 -65t48 -93t16 -108.5q0 -57 -18 -111t-52 -99q27 -16 52 -27q14 -7 17 -22.5t-2 -26.5q-3 -7 -8 -14t-12.5 -10.5t-17.5 -3t-23 7.5q-15 9 -31 18.5t-33 20.5q-27 -20 -59 -31.5t-69 -11.5
q-54 0 -103 15t-87 47.5t-63 83t-29 122.5zM344 286q22 8 34.5 0t18.5 -22q22 -52 62 -87q23 32 35 73t14 83q1 47 -8.5 87t-31.5 68.5t-57.5 44.5t-85.5 16t-87 -21.5t-60.5 -57t-33 -80t-5.5 -90.5q6 -62 28 -99.5t51 -58t61.5 -27t59.5 -5.5q17 0 32 4t28 10
q-26 25 -47.5 53.5t-32.5 60.5q-5 16 1.5 29.5t23.5 18.5z" />
    <glyph glyph-name="R" unicode="R" horiz-adv-x="609" 
d="M101 585q2 20 14 30.5t29 12.5q35 8 73.5 13.5t76.5 5.5q58 0 103 -10t76.5 -31.5t49 -56.5t20.5 -85q3 -44 -5.5 -78.5t-25.5 -60t-42.5 -43t-57.5 -29.5q15 -50 42.5 -91.5t60.5 -83.5q13 -17 11 -33t-13.5 -26t-28 -10t-32.5 16q-40 44 -71.5 95.5t-50.5 111.5l-26 -4
t-27 -3q-22 -2 -50.5 -0.5t-54.5 5.5q-1 -52 -0.5 -98t2.5 -81q2 -18 -10.5 -29t-28.5 -13q-16 -1 -30.5 7t-16.5 28q-3 39 -3 103.5t1.5 139.5t5.5 153.5t9 144.5zM186 551q-1 -18 -2.5 -44t-3.5 -57.5t-3.5 -67t-2.5 -71.5q25 -4 51.5 -5t40.5 1q34 2 69.5 8t64 22.5
t46 46.5t14.5 80q-2 30 -14 49.5t-32 31.5t-46 17t-54 5q-32 0 -63 -4.5t-65 -11.5z" />
    <glyph glyph-name="S" unicode="S" horiz-adv-x="554" 
d="M437 590q16 -15 24.5 -35t-1.5 -35q-11 -15 -30 -17.5t-35 15.5q-26 29 -61 42.5t-73 10.5q-21 -1 -40 -6.5t-34 -15t-24.5 -24.5t-9.5 -35q-2 -53 31 -87.5t84 -55.5q34 -14 74.5 -29.5t76 -37.5t59 -53.5t23.5 -77.5q0 -37 -24 -63.5t-58.5 -44t-74 -25.5t-70.5 -8
q-30 0 -67.5 4.5t-73 19t-64.5 42t-42 73.5q-8 29 1.5 45t26.5 18q13 3 21.5 -0.5t14.5 -10t9.5 -15t6.5 -16.5q8 -24 24 -39t37 -23t45.5 -11t48.5 -4q19 0 45 2t49.5 10t40 22.5t16.5 39.5q0 19 -24.5 36.5t-57 32.5t-64.5 26t-48 19q-32 16 -60 35t-49 43t-33.5 55
t-11.5 71q0 42 18 73.5t46.5 52.5t63.5 31.5t70 10.5q48 0 95.5 -14t78.5 -47z" />
    <glyph glyph-name="T" unicode="T" horiz-adv-x="574" 
d="M503 637q23 -1 34.5 -12t11.5 -27q0 -17 -11 -27.5t-39 -10.5q-21 1 -69 1t-106 -1q-3 -54 -5 -119.5t-1.5 -133t2.5 -134t7 -122.5q2 -18 -10.5 -29.5t-28.5 -12.5q-15 -1 -30 7.5t-17 27.5q-3 37 -5.5 97.5t-4 131.5t0 145.5t6.5 140.5q-54 -1 -101 -2t-73 -1
q-23 -1 -32 11.5t-10 27.5t11 26t31 12q30 1 70 2t83.5 1.5t88.5 1t83.5 0.5t68.5 -0.5t45 -0.5z" />
    <glyph glyph-name="U" unicode="U" horiz-adv-x="578" 
d="M102 595q6 16 15.5 24.5t19.5 12t18.5 3t11.5 -1.5q16 -8 19.5 -22t0.5 -26q-14 -47 -24.5 -91.5t-15.5 -89.5t-4 -91.5t10 -96.5q3 -21 10 -43t20 -40.5t33 -31t49 -12.5q30 -1 53.5 7.5t41.5 24t30.5 36.5t21.5 47q11 33 14.5 76t2 87t-7.5 86t-14 72q-3 16 -4 35
t18 31q11 6 22 5.5t21 -6t17 -15t10 -21.5q9 -36 15.5 -88t7 -108t-7 -112t-26.5 -99q-26 -59 -78.5 -98t-137.5 -40q-38 0 -71 16t-58.5 42.5t-42.5 61t-22 71.5q-5 31 -7.5 75.5t0 97t11.5 109.5t28 113z" />
    <glyph glyph-name="V" unicode="V" horiz-adv-x="528" 
d="M238 44q-31 46 -60 106.5t-54.5 128t-46 139t-34.5 139.5q-5 25 0.5 45.5t30.5 22.5q26 3 38.5 -12t20.5 -46q16 -65 30 -116t29.5 -98t35.5 -95.5t48 -107.5q20 45 37 85t32.5 86t31 104t33.5 139q3 19 9.5 29.5t14 15.5t16 6t15.5 0q18 -2 28.5 -20t5.5 -45
q-15 -87 -37 -163.5t-46 -141t-48 -115t-42 -85.5q-20 -34 -45.5 -31t-42.5 30z" />
    <glyph glyph-name="W" unicode="W" horiz-adv-x="795" 
d="M42 602q0 17 12 26.5t26 11.5t26.5 -6.5t15.5 -24.5q1 -9 5.5 -40t10 -73.5t12.5 -91.5t14 -94t12.5 -82t9.5 -54q15 45 32 99t36 110.5t39 111t40 101.5q5 11 15 18.5t21 8.5q12 2 22.5 -4t15.5 -22q19 -51 33.5 -108.5t29 -116t30 -116t36.5 -108.5q39 108 65.5 222.5
t56.5 223.5q5 17 17.5 24t26.5 5q18 -1 32 -14t10 -34q-3 -22 -12.5 -63t-23 -92.5t-30 -108.5t-34 -110t-36 -98t-34.5 -72q-13 -22 -35 -22q-11 0 -20 4.5t-15 15.5q-25 43 -43.5 93.5t-34.5 106t-31 116.5t-31 126q-6 -26 -18.5 -66.5t-28 -86.5t-32.5 -93.5t-31.5 -87
t-25.5 -67t-14 -32.5q-15 -26 -48 -23q-27 4 -33 32q-35 131 -57 275.5t-34 279.5z" />
    <glyph glyph-name="X" unicode="X" horiz-adv-x="568" 
d="M51 89q29 51 66 113t77 127q-41 54 -76 106t-58 97q-11 19 -9.5 37t18.5 28q21 13 40 9t26 -20q21 -42 49.5 -86.5t60.5 -89.5q51 78 95.5 139.5t75.5 89.5q14 13 30 9.5t27 -14.5q12 -12 13.5 -28t-10.5 -29q-40 -42 -85 -105t-90 -135q60 -75 120 -142t109 -115
q12 -13 9.5 -29t-14.5 -28q-12 -11 -28 -13.5t-30 10.5q-16 14 -40 37.5t-52.5 54.5t-60 67.5t-63.5 76.5q-35 -60 -67 -117t-59 -107q-4 -8 -13 -12.5t-19.5 -5t-20 1.5t-14.5 8q-30 27 -7 65z" />
    <glyph glyph-name="Y" unicode="Y" horiz-adv-x="627" 
d="M524 632q14 11 29 9.5t25 -11.5q10 -9 16 -26.5t-7 -33.5q-22 -29 -56.5 -68.5t-72.5 -79.5t-73.5 -76.5t-59.5 -59.5q0 -67 1.5 -126t1.5 -129q-1 -23 -15.5 -31.5t-29.5 -8.5q-14 0 -26.5 7.5t-14.5 28.5q0 74 -1.5 137t-1.5 134q-24 23 -50.5 55.5t-52.5 69t-49.5 74
t-41.5 71.5q-8 17 -2 30t20 21t31 5.5t28 -19.5q36 -55 77.5 -117t85.5 -111q31 29 63.5 62.5t63.5 68t60 66.5t52 58z" />
    <glyph glyph-name="Z" unicode="Z" horiz-adv-x="556" 
d="M128 549q-23 -5 -38 7.5t-17 29.5q-1 14 6.5 26.5t25.5 15.5q28 4 71 5t89.5 -0.5t89.5 -5t72 -7.5q19 -3 33 -11t21 -20.5t7 -28.5t-10 -35q-26 -47 -66 -96t-84.5 -101t-88.5 -107t-78 -113q38 2 66 3t51.5 1.5t44 0.5h44h51h65.5q19 0 28.5 -13t9.5 -29t-9.5 -29.5
t-29.5 -13.5q-59 0 -103.5 -0.5t-86.5 -1.5t-86.5 -2t-103.5 -1q-19 0 -30.5 8t-16 21t-3 29t9.5 31q30 62 69.5 117t83 106.5t88 102.5t85.5 105q-33 4 -69 5.5t-71 2t-66 0t-54 -1.5z" />
    <glyph glyph-name="bracketleft" unicode="[" horiz-adv-x="431" 
d="M355 772q20 -4 26.5 -15.5t6.5 -28.5q-1 -14 -13 -24t-24 -11q-33 1 -51 2t-28.5 2t-17.5 1h-18t-18 -3t-11 -23q-16 -84 -21 -176.5t-5 -181.5t2.5 -168.5t1.5 -137.5q0 -7 4.5 -11t16.5 -6l149 -1q28 0 36 -15.5t8 -32.5q0 -15 -8 -24.5t-27 -9.5l-191 -5q-32 0 -55 22
t-19 60q-5 81 -7 173t0.5 186t10 185t21.5 171q1 10 5 22.5t12 24.5t22 20.5t37 10.5q44 5 84 3.5t71 -9.5z" />
    <glyph glyph-name="backslash" unicode="\" horiz-adv-x="760" 
d="M6 352q-1 23 11 33.5t26 10.5q8 0 20 0.5t28 0.5q-6 53 -10.5 104t-9.5 101q0 17 12 26.5t26 11.5t26.5 -6.5t15.5 -24.5l24 -211h93q14 53 30 103t35 95q5 11 15 18.5t21 8.5q12 2 22.5 -4t15.5 -22q17 -45 30 -95.5t26 -103.5q32 0 62 -0.5t56 -0.5q8 51 16.5 100
t21.5 97q5 17 17.5 24t26.5 5q18 -1 32 -14t10 -34q-4 -24 -12 -71t-20 -107h30q17 0 27.5 -9.5t12.5 -22.5q1 -7 0.5 -16t-4 -16.5t-12.5 -13t-24 -5.5h-48q-9 -42 -20 -83.5t-22.5 -79t-23.5 -68.5t-25 -52q-5 -11 -15 -16.5t-20 -5.5t-19.5 4.5t-15.5 15.5
q-27 53 -48.5 126.5t-43.5 159.5h-80q-13 -46 -27 -93t-26.5 -86t-21.5 -66t-12 -32q-14 -26 -49 -23q-29 4 -34 32q-17 63 -29.5 130.5t-21.5 136.5q-17 0 -31 -0.5t-24 -0.5q-17 -1 -28 9.5t-12 29.5zM526 148q15 41 24.5 82.5t16.5 83.5h-85q11 -45 21.5 -87.5
t22.5 -78.5zM205 174q11 32 20 67.5t20 73.5h-60q5 -47 10.5 -85.5t9.5 -55.5zM364 471q-4 -14 -8 -32.5t-10 -40.5h36z" />
    <glyph glyph-name="bracketright" unicode="]" horiz-adv-x="442" 
d="M110 778q30 5 70.5 2t83.5 -6q22 -2 37 -10.5t23.5 -20.5t12.5 -25t4 -23q4 -79 5 -171t0.5 -186t-1 -185t-0.5 -168q0 -19 -9 -34.5t-23 -26t-31 -16t-33 -5.5l-158 5q-20 0 -28 9.5t-8 24.5q0 17 8.5 32.5t35.5 15.5l134 1q21 3 21 17q3 53 4 128.5t1 162t-1.5 179
t-5.5 179.5q-1 21 -9 28.5t-18 8.5q-24 3 -50.5 4t-59.5 1q-19 -1 -28 9t-10 25q-1 18 6 30.5t27 14.5z" />
    <glyph glyph-name="asciicircum" unicode="^" horiz-adv-x="428" 
d="M264 751q35 -35 60 -69t52 -76q7 -9 9 -23.5t-12 -27.5q-8 -7 -16 -8.5t-16 0t-15 6t-12 9.5q-29 33 -48.5 60.5t-44.5 56.5q-11 -18 -20.5 -34.5t-18.5 -33t-20 -34t-25 -36.5q-9 -14 -26 -15.5t-30 6.5q-14 7 -17 17t1 19q23 50 47 89.5t53 80.5q26 38 50 39.5
t49 -26.5z" />
    <glyph glyph-name="underscore" unicode="_" horiz-adv-x="524" 
d="M56 -71q-1 23 11 33t26 11q32 2 78 3t94.5 1t93.5 -0.5t74 -0.5q16 0 26.5 -10t12.5 -22q1 -8 1 -16.5t-4 -16.5t-12.5 -13t-23.5 -5h-76h-89h-90.5t-81.5 -1q-17 -2 -27.5 9t-12.5 28z" />
    <glyph glyph-name="grave" unicode="`" horiz-adv-x="278" 
d="M208 607q10 -14 5 -26.5t-16 -17.5q-7 -6 -19 -6t-24 10q-11 11 -24 32t-26 45.5t-24 49t-16 43.5q-4 20 2.5 30.5t16.5 15.5q11 4 27.5 0.5t22.5 -20.5q6 -12 16 -33.5t20.5 -45t21 -45t17.5 -32.5z" />
    <glyph glyph-name="a" unicode="a" horiz-adv-x="592" 
d="M297 477q30 0 62 -6.5t61.5 -20t54.5 -33.5t42 -47q-2 -60 -4.5 -101.5t-0.5 -71.5q2 -39 11 -63t27 -45q17 -22 15.5 -36.5t-10.5 -24.5q-9 -11 -24.5 -15t-33.5 4q-6 2 -14.5 10t-17 20t-16 26t-11.5 28q-7 -14 -22.5 -29.5t-39.5 -28.5t-57.5 -21t-76.5 -8t-77.5 17
t-59 45.5t-38 65.5t-14.5 77q-1 45 11 91t40.5 83t75.5 60.5t117 23.5zM428 343q-16 17 -49.5 34t-84.5 17q-68 0 -109 -44t-41 -124q0 -17 5.5 -38t17.5 -39t31.5 -31t48.5 -13q16 0 37 2t42 9.5t41 23t34.5 42t22 66t4.5 95.5z" />
    <glyph glyph-name="b" unicode="b" horiz-adv-x="606" 
d="M183 606q-2 -45 -4 -104.5t-2 -123.5q13 12 30.5 25t38.5 23.5t45 17.5t50 8q39 2 76 -15t66 -47.5t47 -72t19 -88.5q0 -52 -19 -90.5t-51 -65t-74.5 -40t-89.5 -16.5q-27 -2 -49.5 -1t-42.5 4t-39.5 8.5t-40.5 11.5q-22 6 -31.5 27t-10.5 38q0 66 -3.5 127.5t-5.5 123
t-1.5 124t8.5 129.5q2 19 15 28t28 9q17 0 30 -9.5t11 -30.5zM351 371q-29 0 -55.5 -10t-49 -24.5t-40 -32t-28.5 -32.5q1 -47 2.5 -86.5t3.5 -67.5q16 -11 46.5 -19.5t84.5 -6.5q31 1 60 11t50.5 28.5t32.5 44.5t8 59q-2 22 -12 46.5t-25 44t-35 32.5t-43 13z" />
    <glyph glyph-name="c" unicode="c" horiz-adv-x="509" 
d="M431 415q9 -17 4.5 -30.5t-16 -21t-25.5 -7t-24 11.5q-14 15 -37.5 23t-43.5 8q-28 0 -54.5 -9t-47.5 -28t-35 -48.5t-16 -70.5q-1 -33 9 -57.5t28.5 -41t44 -24.5t55.5 -8q36 0 68.5 11.5t61.5 37.5q16 15 33.5 18t33.5 -11q14 -11 12.5 -30t-18.5 -36
q-34 -33 -80.5 -52t-103.5 -20q-56 0 -100.5 15t-74.5 46t-43 78t-4 111q6 52 29 90t56 63t72.5 37t77.5 12q22 0 44 -5t40.5 -14t32.5 -21t21 -27z" />
    <glyph glyph-name="d" unicode="d" horiz-adv-x="593" 
d="M466 640q21 0 31.5 -12t11.5 -32q4 -137 -2 -261t-15 -223q1 -14 -1.5 -27t-10.5 -24t-22.5 -19.5t-37.5 -13.5q-49 -10 -104 -10t-104 14t-85.5 42t-57.5 71t-21 102q0 37 11.5 71.5t32.5 61.5t50.5 44.5t65.5 20.5q57 4 113.5 -17t99.5 -77l3 246q0 16 8.5 29.5
t33.5 13.5zM132 248q0 -38 13.5 -66t37 -46.5t56 -28.5t71.5 -11q23 -1 47 2t48 7q1 23 2 40.5t2 34t1.5 34t1.5 40.5q-17 19 -36 38t-40 34.5t-46 25.5t-54 10q-46 0 -75 -33t-29 -81z" />
    <glyph glyph-name="e" unicode="e" horiz-adv-x="503" 
d="M460 94q4 -12 1 -21t-9 -15.5t-13.5 -11t-11.5 -5.5q-17 -6 -39 -11t-45.5 -8.5t-45.5 -6t-37 -2.5q-179 7 -207 194q-8 56 5 105t43 86.5t74.5 60.5t98.5 26q33 2 65 -5.5t57.5 -25t41.5 -43.5t16 -60q2 -33 -9.5 -58t-31.5 -43t-47 -29.5t-56 -15.5q-42 -7 -89 -6.5
t-82 2.5q5 -46 35.5 -79t86.5 -33q18 0 39.5 2.5t42.5 6.5t39.5 8.5t32.5 9.5q2 0 8 1t12.5 -0.5t13.5 -6.5t11 -16zM135 275q20 -2 45 -3t51 -1q19 0 44.5 3t48 12t37 24.5t12.5 40.5q0 18 -8 29t-20 17.5t-27 8.5t-29 1q-31 -1 -56.5 -12t-45 -28.5t-32.5 -41t-20 -50.5z
" />
    <glyph glyph-name="f" unicode="f" horiz-adv-x="502" 
d="M448 545q13 -49 -27 -55q-11 -2 -23 4.5t-19 25.5q-2 6 -7.5 15.5t-14.5 18.5t-21.5 16t-29.5 7q-21 0 -37 -13t-27 -34t-17 -48.5t-7 -57.5q-1 -20 -1.5 -40.5t-0.5 -41.5h65t59.5 -0.5t50 -1t36.5 -0.5q23 -1 34 -13t11 -27q0 -17 -10.5 -28.5t-37.5 -10.5h-208
q1 -54 1.5 -107.5t2.5 -106.5q-1 -22 -13 -33t-26.5 -12t-27.5 9.5t-16 31.5q-2 52 -3.5 107t-2.5 111h-80q-23 -1 -32.5 11.5t-9.5 26.5q-1 16 10.5 27t31.5 13q18 1 38 1.5t42 0.5q0 41 3 83q2 40 10.5 81.5t28 75t52 54.5t82.5 21q34 0 59 -12t42 -29.5t27 -36.5t13 -33z
" />
    <glyph glyph-name="g" unicode="g" horiz-adv-x="560" 
d="M320 477q33 -3 63 -12t55 -26.5t41.5 -43.5t22.5 -62q-7 -34 -7.5 -73.5t0.5 -82t1.5 -85.5t-3.5 -84.5t-14 -79t-30 -67.5q-24 -38 -67.5 -61t-110.5 -26q-27 -1 -60.5 5t-62 22.5t-48 46.5t-19.5 78q0 51 22 87.5t58 41.5q20 3 32.5 -5.5t15.5 -22.5q5 -14 -0.5 -27.5
t-21.5 -24.5q-12 -4 -16.5 -16.5t-4.5 -29.5q0 -18 9 -32t24 -23.5t33.5 -13.5t37.5 -3q51 3 79 22.5t41.5 49t16.5 67t3 77.5v50.5v24.5t0.5 11.5t1.5 12.5q-19 -21 -44.5 -35.5t-53 -23.5t-54.5 -13t-49 -3q-35 2 -62.5 15t-47 34t-30.5 47.5t-13 55.5q-5 58 15 102
t56.5 73.5t86 43t104.5 9.5zM226 175q49 2 84.5 22.5t58 46.5t33.5 51t10 37q-1 14 -11.5 25.5t-25.5 20t-32 13.5t-32 5q-30 1 -61.5 -6.5t-56 -24.5t-39.5 -44t-12 -66q1 -12 6.5 -26.5t16 -26.5t26 -20t35.5 -7z" />
    <glyph glyph-name="h" unicode="h" horiz-adv-x="588" 
d="M104 602q2 20 15.5 31.5t33.5 12.5q15 1 28 -12.5t9 -31.5l-5 -90q-2 -41 -4 -93t-4 -107q24 24 51.5 46.5t56 40t56.5 27.5t53 10q22 0 43.5 -9.5t32.5 -28.5q22 -33 31.5 -82t12 -99.5t1 -95t-1.5 -69.5q-1 -23 -13.5 -31.5t-27.5 -8.5q-14 0 -27.5 7.5t-14.5 28.5
q-2 29 -1 68t0.5 79.5t-5.5 79.5t-18 69q-3 7 -10.5 9t-16 0.5t-16.5 -5t-12 -6.5q-9 -5 -29 -18.5t-45.5 -33.5t-52.5 -47.5t-50 -61.5q-1 -38 0 -71t3 -59q2 -18 -10.5 -29t-29.5 -13q-15 -1 -29.5 7t-16.5 28q-2 26 -3 65t-0.5 86t2 100t3.5 106.5t4.5 105t6.5 95.5z" />
    <glyph glyph-name="i" unicode="i" horiz-adv-x="264" 
d="M94 372q2 21 15 32.5t33 12.5q16 1 29 -12.5t9 -32.5q-2 -67 -4 -129q-1 -26 -1.5 -53.5t-0.5 -53t0.5 -48t2.5 -37.5q2 -18 -10.5 -29t-29.5 -13q-15 -1 -29.5 7t-16.5 28q-1 14 -2 40.5t-1 58.5v66.5t1 66.5t2 57.5t3 38.5zM64 535q-16 10 -18 23.5t5 25t21 17.5t31 2
q10 -3 26.5 -7t34 -8.5t34 -9t25.5 -8.5q18 -7 23.5 -21.5t0 -28t-19.5 -22t-33 -2.5q-11 3 -27 6.5t-34.5 8t-36.5 10.5t-32 14z" />
    <glyph glyph-name="j" unicode="j" horiz-adv-x="408" 
d="M247 369q-2 14 8.5 25t24.5 12q24 2 34.5 -8.5t13.5 -24.5q2 -24 4.5 -55.5t4 -66t2 -69.5t-1.5 -65q-2 -42 -8.5 -91.5t-24.5 -92t-49.5 -71.5t-82.5 -30q-35 0 -63 12t-47.5 32.5t-30.5 47.5t-12 58q-2 23 7 37t30 16t34.5 -9t11.5 -37q3 -42 19 -57.5t48 -15.5
q29 0 46.5 26.5t27 62.5t13 72t3.5 55q0 24 -1 54.5t-2.5 62.5t-4 63.5t-4.5 56.5zM189 525q-16 10 -18 23t5 24.5t21 17.5t31 2q10 -3 26.5 -7t34 -8.5t34 -9t25.5 -7.5q18 -7 23.5 -21.5t0 -28t-19.5 -22t-33 -2.5q-11 3 -27 6t-34.5 7.5t-36.5 11t-32 14.5z" />
    <glyph glyph-name="k" unicode="k" horiz-adv-x="517" 
d="M420 477q17 14 33.5 12.5t26.5 -12t11 -27.5t-13 -33q-38 -35 -86.5 -75.5t-100.5 -78.5q22 -26 47 -51t51 -47t51 -41t46 -33q18 -12 21 -29t-4.5 -30t-23 -18.5t-34.5 5.5q-28 16 -58.5 38.5t-60.5 48t-57 54t-49 58.5q-24 -14 -49 -25q-1 -42 -0.5 -78.5t2.5 -63.5
q2 -18 -10.5 -29t-28.5 -13q-16 -1 -30.5 7t-16.5 28q-2 26 -2.5 65t-0.5 86t1.5 100t3.5 106.5t4.5 105t6.5 95.5q2 20 15.5 31.5t33.5 12.5q16 1 28 -12.5t10 -31.5q-3 -46 -6 -97q-2 -44 -4.5 -99.5t-4.5 -112.5q59 35 122.5 85t125.5 99z" />
    <glyph glyph-name="l" unicode="l" horiz-adv-x="260" 
d="M100 602q2 20 15 32t36 12q20 0 31 -12t9 -32q-1 -21 -2.5 -59.5t-3.5 -86.5t-3.5 -103t-2 -109.5t0 -104.5t3.5 -88q2 -18 -12 -29t-31 -13q-15 -1 -31 7t-18 28q-2 26 -3 65t-1.5 86t0.5 100t2.5 106.5t4 105t6.5 95.5z" />
    <glyph glyph-name="m" unicode="m" horiz-adv-x="851" 
d="M84 459q7 21 22 29.5t29 5.5t24 -16t8 -34l-11 -142q5 13 18 31.5t30.5 38t38.5 38.5t43.5 34.5t44.5 24.5t42 9q30 -1 50 -16.5t32 -41t18 -57t9 -63.5q9 25 24 56.5t36 59.5t48 47t60 19q41 0 67 -26t40.5 -67t20 -91.5t6.5 -98.5t-1 -89t-2 -63q0 -27 -18.5 -38
t-35.5 -7q-12 4 -20.5 13.5t-8.5 27.5q2 33 3 72.5t0 79t-4.5 76t-10 64.5t-17.5 45t-27 17q-10 0 -23.5 -15t-26 -34t-22 -36.5t-11.5 -21.5q-17 -38 -27.5 -67t-18 -57t-13.5 -59t-12 -72q-2 -18 -15 -25.5t-28 -5.5q-16 2 -28 12.5t-11 28.5q0 59 2 112t-3 115
q-1 7 -1.5 26.5t-4 40.5t-11 37t-20.5 16q-13 1 -33 -11t-42 -31.5t-44.5 -45.5t-40.5 -53t-29 -54t-11 -48q-1 -5 -0.5 -21.5t2 -35t3 -34.5t1.5 -22q0 -19 -13.5 -25.5t-25.5 -6.5h-11t-12 2.5t-11 9t-8 19.5q-7 29 -9.5 59t-3.5 54q-2 36 -3 75.5t-0.5 80t2.5 80t5 75.5z
" />
    <glyph glyph-name="n" unicode="n" horiz-adv-x="559" 
d="M84 459q5 18 16.5 26.5t24.5 9.5q17 1 30.5 -12.5t11.5 -38.5l-8 -111q8 20 31.5 45t54 47.5t64.5 37.5t64 15q30 -1 51 -13.5t34.5 -34t20.5 -50t9 -60.5q1 -27 2.5 -61t1.5 -71t-0.5 -76.5t-3.5 -76.5q-2 -18 -15 -25.5t-28 -5.5q-16 2 -28 12.5t-11 28.5
q0 60 2.5 122.5t-2.5 130.5q0 6 -1 21.5t-4.5 31.5t-11.5 28.5t-21 12.5q-20 1 -54 -20t-67 -53.5t-57.5 -70t-24.5 -69.5q-2 -5 -0.5 -26t3.5 -45t4 -45t2 -27q0 -19 -13.5 -25.5t-25.5 -6.5h-11t-12 2.5t-11 9t-8 19.5q-7 29 -9.5 59t-3.5 54q-2 36 -3 75.5t-0.5 80
t2.5 80t5 75.5z" />
    <glyph glyph-name="o" unicode="o" horiz-adv-x="578" 
d="M52 219q-1 53 12.5 100t43.5 82.5t77 55.5t112 19q59 0 102.5 -19.5t72.5 -51t43 -71.5t14 -83q0 -44 -16.5 -86t-46 -76t-71.5 -55t-93 -21q-48 0 -92.5 8.5t-79 31.5t-56 63t-22.5 103zM291 397q-40 0 -68.5 -15t-46.5 -39.5t-26 -55.5t-8 -62q0 -48 16.5 -75t41 -40
t52 -15.5t48.5 -2.5q33 0 58 14.5t42.5 37t26.5 50t11 53.5q1 33 -7 60.5t-26 47.5t-46.5 31t-67.5 11z" />
    <glyph glyph-name="p" unicode="p" horiz-adv-x="585" 
d="M90 406q2 20 14 31.5t29 17.5q19 8 51 13t59 5q56 2 110 -6.5t96 -34t67.5 -72.5t24.5 -122q0 -48 -15.5 -87t-44.5 -67t-73 -42.5t-101 -13.5q-25 -1 -64.5 6t-77.5 28q0 -42 1 -68t2.5 -46t3.5 -38.5t4 -45.5q2 -17 -6 -27.5t-22 -14.5q-16 -5 -32 1t-20 23
q-14 147 -14 282t8 278zM172 378q0 -27 -1 -57.5t-1.5 -61.5t-1.5 -60t-2 -54q38 -20 74 -28.5t73 -10.5q30 -2 56.5 8.5t47 29.5t32.5 44.5t12 55.5q1 48 -17 76.5t-46.5 43.5t-64.5 20t-72 5q-25 0 -46 -3t-43 -8z" />
    <glyph glyph-name="q" unicode="q" horiz-adv-x="560" 
d="M388 -126q0 19 0.5 45.5t1 57t0.5 63v64.5q-26 -8 -57 -13t-58 -5q-44 0 -84 11.5t-71 35.5t-49 61.5t-17 88.5t20 91t51 68t76 43.5t94 18.5q29 2 67.5 -1.5t67.5 -12.5q15 -6 25 -12.5t11 -23.5q6 -60 9.5 -137.5t4 -157.5t-1 -155t-4.5 -130q-1 -18 -12 -29.5
t-28 -12.5q-25 -2 -35.5 10t-10.5 32zM390 190q0 59 -1.5 117t-4.5 112q-21 5 -42 6t-43 -1q-33 -3 -63 -13.5t-52.5 -29.5t-34.5 -45.5t-9 -60.5q3 -55 38 -79.5t92 -26.5q29 -1 61.5 5.5t58.5 15.5z" />
    <glyph glyph-name="r" unicode="r" horiz-adv-x="467" 
d="M172 264q0 -32 -0.5 -64t0 -60.5t1 -52t1.5 -38.5q2 -18 -10.5 -29t-28.5 -12q-16 -2 -30.5 6t-16.5 28q-1 14 -2 46.5t-1 73.5t0.5 86t1 86t1.5 72.5t3 44.5q2 21 15 32.5t32 12.5q16 1 29.5 -12t9.5 -33q-1 -6 -1 -13q0 -6 -0.5 -14t-0.5 -19q40 29 88.5 47t96.5 20
q14 1 33 -1t34 -6q16 -5 23 -16t6 -24q-1 -16 -13 -28t-30 -8q-13 4 -26.5 6t-31.5 1q-21 -1 -46 -9t-49.5 -24t-47 -38.5t-37.5 -52.5z" />
    <glyph glyph-name="s" unicode="s" horiz-adv-x="439" 
d="M375 429q8 -14 7 -29.5t-21 -25.5q-20 -8 -30.5 -1.5t-15.5 14.5q-4 7 -8 13t-11 10t-18.5 6t-30.5 2q-17 -1 -37 -5t-36 -12t-26 -20.5t-7 -29.5q4 -44 83 -70q51 -17 83 -35t50.5 -37.5t25 -41t5.5 -43.5q-1 -40 -23.5 -65t-53.5 -38.5t-64.5 -18.5t-56.5 -5
q-31 0 -65 5.5t-61 25.5q-20 14 -25 31.5t9 36.5q13 18 30.5 17t25.5 -10q15 -17 47.5 -24.5t64.5 -4.5q32 5 53.5 15.5t21.5 36.5q0 22 -21 44.5t-66 35.5q-33 9 -60.5 22t-48 31.5t-32 43.5t-11.5 58t20 57.5t50.5 40.5t66 24.5t67.5 8.5q42 0 72 -14t47 -49z" />
    <glyph glyph-name="t" unicode="t" horiz-adv-x="492" 
d="M222 606q-5 -23 -9.5 -65t-8.5 -89q57 0 106 -0.5t77 -1.5q23 -1 33.5 -13t10.5 -27q0 -17 -10 -28.5t-38 -10.5q-29 1 -79.5 1h-104.5q-1 -26 -2 -47t0 -35q0 -13 1 -34t3.5 -45.5t8 -49.5t14.5 -45t22.5 -33t32.5 -13q28 0 45.5 8t28 21.5t15.5 32t7 38.5q2 18 14.5 26
t30.5 6q21 -2 30.5 -16t7.5 -37q-2 -31 -15.5 -61.5t-38.5 -53.5t-59.5 -36t-76.5 -8q-51 6 -80 31t-44.5 64t-20.5 88t-7 103q-1 17 -0.5 42t1.5 54q-17 0 -33 -0.5t-29 -0.5q-23 -1 -32.5 11.5t-10.5 26.5q-1 16 11 27.5t32 12.5q17 1 33.5 1.5t34.5 0.5q4 52 9 97.5
t10 70.5q4 14 15 23t34 4q15 -2 24.5 -14t6.5 -26z" />
    <glyph glyph-name="u" unicode="u" horiz-adv-x="588" 
d="M440 36q-6 12 -9 40.5t-4 65.5q-15 -30 -36 -55.5t-46.5 -44t-55 -28t-62.5 -6.5q-44 3 -71.5 26t-44 54.5t-23.5 66.5t-10 61q-8 64 -5 116t8 97q3 27 13 40t39 14q12 0 19 -5.5t11 -13.5t5 -17t0 -15q-3 -34 -5.5 -75.5t-0.5 -96.5q0 -28 4 -58t14 -55.5t27 -41.5
t43 -16q32 0 60.5 23.5t52 58.5t40.5 75t26 75q2 51 3.5 87t2.5 42q1 23 14.5 31.5t26.5 9.5q16 1 30.5 -7.5t13.5 -25.5t-2.5 -62t-2 -103t0.5 -121.5t6 -117.5q0 -21 -11.5 -32t-26.5 -12q-23 -1 -31 6.5t-13 19.5z" />
    <glyph glyph-name="v" unicode="v" horiz-adv-x="503" 
d="M33 409q-11 62 39 67q11 1 23.5 -8.5t15.5 -23.5q10 -48 18.5 -95t18.5 -91.5t22.5 -85t29.5 -76.5q33 43 58.5 86t48.5 87.5t45 92t48 98.5q7 15 21.5 19.5t25.5 -0.5q17 -6 25.5 -17.5t-1.5 -36.5q-18 -47 -40 -95.5t-46.5 -96t-51.5 -90.5t-54 -78q-20 -26 -39 -40
t-45 -14q-20 0 -39.5 17.5t-33.5 48.5q-12 25 -24 64.5t-23.5 85.5t-22 93.5t-19.5 88.5z" />
    <glyph glyph-name="w" unicode="w" horiz-adv-x="731" 
d="M83 458q6 14 18 21t26 4q33 -8 37.5 -31t-8.5 -47q-5 -11 -12.5 -42.5t-12 -71.5t-4.5 -82.5t10 -74.5q11 -33 29 -32q31 4 56 31t43 65q20 42 36 88.5t24 91.5q5 23 13.5 38t31.5 11q27 -3 36 -19.5t8 -43.5q1 -15 3.5 -40.5t6.5 -54.5t10.5 -59t16.5 -54.5t25 -41
t36 -18.5q25 -3 40.5 14.5t23.5 49.5q8 29 11.5 65t4.5 73.5t0.5 72t-0.5 60.5q0 22 7.5 35.5t32.5 11.5q25 -1 32 -22.5t9 -48.5q1 -38 2 -79.5t-2 -83t-10.5 -80t-23.5 -69.5q-23 -41 -54.5 -65t-76.5 -21q-33 6 -57.5 27.5t-43 50.5t-31 61t-19.5 59q-12 -28 -32 -62.5
t-46 -64.5t-57.5 -50t-67.5 -19q-28 5 -45.5 18.5t-31.5 33.5q-21 35 -28.5 86.5t-5 107t13.5 109t26 92.5z" />
    <glyph glyph-name="x" unicode="x" horiz-adv-x="477" 
d="M43 9q-14 8 -16 23t6 28q33 59 68.5 106.5t71.5 98.5q-14 22 -25.5 39.5t-23.5 34t-24.5 34t-28.5 40.5q-12 17 -11.5 33t17.5 29q16 12 30 8t25 -15q25 -28 45.5 -62t47.5 -71q29 40 56.5 77.5t48.5 63.5q16 17 33 25.5t40 -5.5q16 -11 15.5 -28.5t-11.5 -31.5
q-18 -25 -34 -46t-31.5 -41.5t-30.5 -42t-32 -45.5l139 -199q14 -21 10.5 -34.5t-15.5 -24.5q-11 -9 -23.5 -10.5t-27.5 11.5q-37 46 -72 95t-63 90l-115 -162q-14 -21 -34 -25t-35 7z" />
    <glyph glyph-name="y" unicode="y" horiz-adv-x="583" 
d="M418 441q-1 18 9.5 29t26.5 13q18 2 31 -8.5t14 -29.5q3 -63 3.5 -138.5t-6 -152t-23 -148t-47.5 -127.5q-33 -61 -79 -92.5t-116 -27.5q-36 3 -62.5 19.5t-42.5 40t-22.5 51.5t-1.5 54q5 23 20 32t29 6q14 -2 25 -14.5t9 -33.5q-2 -16 1.5 -29t11.5 -22t18.5 -14.5
t21.5 -5.5q33 -1 56 10t39 29t26.5 41t18.5 47t14 51.5t11 56.5q-35 -30 -79 -47.5t-89 -12.5q-44 3 -72 26.5t-44.5 55t-24 66t-10.5 60.5q-3 33 -4 59.5t0 49.5t3 44.5t4 44.5q5 26 13 39t36 14q12 0 19.5 -5.5t11.5 -13.5t5.5 -17t0.5 -16q-2 -17 -3.5 -33t-2.5 -33.5
t-1 -38.5t1 -49q0 -28 4 -58t13.5 -55.5t27 -41.5t45.5 -16q22 0 44.5 11.5t44 29.5t40.5 42t33 50q3 55 2.5 107.5t-3.5 100.5z" />
    <glyph glyph-name="z" unicode="z" horiz-adv-x="469" 
d="M114 406q-24 0 -35.5 12t-11.5 27q0 16 11.5 28.5t31.5 13.5q123 6 247 0q24 -2 38.5 -13.5t19 -29t-0.5 -37.5t-20 -38q-69 -81 -132 -147.5t-112 -131.5q65 -1 125 -1.5t123 2.5q16 1 25.5 -2.5t14.5 -9t7 -13t2 -15.5q2 -20 -14 -28.5t-34 -9.5q-70 -2 -149.5 -2.5
t-150.5 2.5q-33 2 -46 27.5t5 56.5q22 38 52.5 76t65 76.5t72.5 78.5t75 82q-29 1 -55 1t-51 -0.5t-50.5 -2t-52.5 -2.5z" />
    <glyph glyph-name="braceleft" unicode="{" horiz-adv-x="428" 
d="M280 777q20 0 37.5 -9.5t17.5 -35.5q0 -38 -47 -38q-8 0 -18.5 -1.5t-20.5 -4.5q-18 -6 -34 -17.5t-15 -31.5q1 -21 7 -46t13.5 -51.5t15 -53.5t10.5 -54q4 -29 -6.5 -52.5t-30.5 -42.5q23 -22 29 -50t5 -51q0 -18 -2 -40.5t-4 -45.5t-2 -46.5t3 -42.5q4 -23 19.5 -32
t40.5 -14q11 -3 18 -12t5 -25q-2 -17 -10.5 -25.5t-32.5 -6.5q-54 3 -89 36.5t-35 107.5q0 15 3 43.5t4.5 58t-1 53t-12.5 29.5q-8 5 -19 7.5t-21 1.5q-45 -4 -53 30q-2 14 4.5 27.5t25.5 21.5q48 18 65 39.5t8 50.5q-2 9 -5.5 20.5t-7.5 24.5t-8 24.5t-7 20.5
q-5 19 -10.5 38t-8 38.5t-0.5 38t11 35.5q20 37 56 55.5t74 24.5q13 3 28 3z" />
    <glyph glyph-name="bar" unicode="|" horiz-adv-x="341" 
d="M135 675q2 20 15.5 31.5t33.5 12.5q16 1 28.5 -12.5t9.5 -31.5q-7 -137 -11 -259q-2 -52 -3.5 -106.5t-2 -104.5t0 -92.5t2.5 -70.5q2 -18 -10.5 -29t-28.5 -13t-30.5 6.5t-16.5 27.5q-2 26 -2.5 71t-0.5 101.5t1.5 120t3.5 126.5t4.5 120.5t6.5 101.5z" />
    <glyph glyph-name="braceright" unicode="}" horiz-adv-x="420" 
d="M116 772h14t14 -1q40 -3 76 -21.5t58 -54.5q9 -17 11.5 -35.5t0.5 -37.5t-7 -38.5t-9 -38.5q-2 -9 -5.5 -21t-7.5 -24.5t-7 -24.5t-5 -21q-8 -29 10 -49.5t66 -37.5q20 -8 27 -21t4 -26q-5 -36 -52 -32q-9 0 -18.5 -3t-17.5 -7q-10 -6 -11.5 -33.5t1.5 -61t7 -65.5t5 -47
q1 -36 -7.5 -59t-25 -37.5t-39.5 -21t-50 -9.5q-24 -3 -33.5 5.5t-11.5 25.5q-2 16 5 25.5t16 11.5q24 7 40 17t20 33q2 19 0.5 42t-4.5 46t-5.5 45t-3.5 40q-2 23 3.5 51t27.5 50q-20 20 -31.5 43t-7.5 51q2 27 8 55t13 55t12 52t5 46q0 15 -9 25t-22.5 16t-29 8.5
t-28.5 2.5q-49 -1 -49 37q-1 25 16 34.5t37 10.5z" />
    <glyph glyph-name="asciitilde" unicode="~" horiz-adv-x="689" 
d="M158 289q1 -21 -12 -30t-29 -8q-14 1 -25.5 10t-14.5 28q-2 20 0 42t7 39q12 36 42 51.5t61 16.5q14 1 40.5 -2.5t51.5 -19.5q22 -14 40.5 -35t37.5 -41t39.5 -34.5t45.5 -14.5q15 0 28 5t23 15t14 24t1 32q-2 9 -8.5 21t-10.5 24.5t-2.5 24t13.5 20.5q20 14 39.5 7
t30.5 -21q13 -17 22 -42.5t9 -49.5q0 -65 -42 -104t-113 -41q-33 -2 -55.5 7t-42 26.5t-40 41t-49.5 51.5q-14 14 -30 18.5t-24 4.5q-27 0 -37.5 -15.5t-9.5 -50.5z" />
    <glyph glyph-name="cid208" unicode="&#xa1;" 
 />
    <glyph glyph-name="cid143" unicode="&#xa2;" 
 />
    <glyph glyph-name="cid143" unicode="&#xffe0;" 
 />
    <glyph glyph-name="cid144" unicode="&#xa3;" 
 />
    <glyph glyph-name="cid144" unicode="&#xffe1;" 
 />
    <glyph glyph-name="cid214" unicode="&#xa4;" 
 />
    <glyph glyph-name="cid155" unicode="&#xa7;" 
 />
    <glyph glyph-name="cid107" unicode="&#xa8;" 
 />
    <glyph glyph-name="cid98" unicode="&#xa9;" 
 />
    <glyph glyph-name="cid668" unicode="&#xaa;" 
 />
    <glyph glyph-name="cid176" unicode="&#xab;" 
 />
    <glyph glyph-name="cid176" unicode="&#x226a;" 
 />
    <glyph glyph-name="cid194" unicode="&#xac;" 
 />
    <glyph glyph-name="cid194" unicode="&#xffe2;" 
 />
    <glyph glyph-name="cid109" unicode="&#xad;" 
 />
    <glyph glyph-name="cid109" unicode="&#x2013;" 
 />
    <glyph glyph-name="cid138" unicode="&#xb0;" 
 />
    <glyph glyph-name="cid130" unicode="&#xb1;" 
 />
    <glyph glyph-name="cid843" unicode="&#xb2;" 
 />
    <glyph glyph-name="cid844" unicode="&#xb3;" 
 />
    <glyph glyph-name="cid199" unicode="&#xb4;" 
 />
    <glyph glyph-name="cid244" unicode="&#xb6;" 
 />
    <glyph glyph-name="cid104" unicode="&#xb7;" 
 />
    <glyph glyph-name="cid104" unicode="&#x30fb;" 
 />
    <glyph glyph-name="cid206" unicode="&#xb8;" 
 />
    <glyph glyph-name="cid842" unicode="&#xb9;" 
 />
    <glyph glyph-name="cid675" unicode="&#xba;" 
 />
    <glyph glyph-name="cid177" unicode="&#xbb;" 
 />
    <glyph glyph-name="cid177" unicode="&#x226b;" 
 />
    <glyph glyph-name="cid751" unicode="&#xbc;" 
 />
    <glyph glyph-name="cid748" unicode="&#xbd;" 
 />
    <glyph glyph-name="cid752" unicode="&#xbe;" 
 />
    <glyph glyph-name="cid209" unicode="&#xbf;" 
 />
    <glyph glyph-name="cid666" unicode="&#xc6;" 
 />
    <glyph glyph-name="cid667" unicode="&#xd0;" 
 />
    <glyph glyph-name="cid131" unicode="&#xd7;" 
 />
    <glyph glyph-name="cid673" unicode="&#xd8;" 
 />
    <glyph glyph-name="cid676" unicode="&#xde;" 
 />
    <glyph glyph-name="cid768" unicode="&#xdf;" 
 />
    <glyph glyph-name="cid757" unicode="&#xe6;" 
 />
    <glyph glyph-name="cid759" unicode="&#xf0;" 
 />
    <glyph glyph-name="cid132" unicode="&#xf7;" 
 />
    <glyph glyph-name="cid766" unicode="&#xf8;" 
 />
    <glyph glyph-name="cid769" unicode="&#xfe;" 
 />
    <glyph glyph-name="cid758" unicode="&#x111;" 
 />
    <glyph glyph-name="cid669" unicode="&#x126;" 
 />
    <glyph glyph-name="cid760" unicode="&#x127;" 
 />
    <glyph glyph-name="cid761" unicode="&#x131;" 
 />
    <glyph glyph-name="cid670" unicode="&#x132;" 
 />
    <glyph glyph-name="cid762" unicode="&#x133;" 
 />
    <glyph glyph-name="cid763" unicode="&#x138;" 
 />
    <glyph glyph-name="cid671" unicode="&#x13f;" 
 />
    <glyph glyph-name="cid764" unicode="&#x140;" 
 />
    <glyph glyph-name="cid672" unicode="&#x141;" 
 />
    <glyph glyph-name="cid765" unicode="&#x142;" 
 />
    <glyph glyph-name="cid772" unicode="&#x149;" 
 />
    <glyph glyph-name="cid678" unicode="&#x14a;" 
 />
    <glyph glyph-name="cid771" unicode="&#x14b;" 
 />
    <glyph glyph-name="cid674" unicode="&#x152;" 
 />
    <glyph glyph-name="cid767" unicode="&#x153;" 
 />
    <glyph glyph-name="cid677" unicode="&#x166;" 
 />
    <glyph glyph-name="cid770" unicode="&#x167;" 
 />
    <glyph glyph-name="cid8275" unicode="&#x2bc;" 
 />
    <glyph glyph-name="cid201" unicode="&#x2c7;" 
 />
    <glyph glyph-name="cid210" unicode="&#x2d0;" 
 />
    <glyph glyph-name="cid210" unicode="&#x2236;" 
 />
    <glyph glyph-name="cid202" unicode="&#x2d8;" 
 />
    <glyph glyph-name="cid205" unicode="&#x2d9;" 
 />
    <glyph glyph-name="cid204" unicode="&#x2da;" 
 />
    <glyph glyph-name="cid207" unicode="&#x2db;" 
 />
    <glyph glyph-name="cid200" unicode="&#x2dc;" 
 />
    <glyph glyph-name="cid203" unicode="&#x2dd;" 
 />
    <glyph glyph-name="cid471" unicode="&#x391;" 
 />
    <glyph glyph-name="cid472" unicode="&#x392;" 
 />
    <glyph glyph-name="cid473" unicode="&#x393;" 
 />
    <glyph glyph-name="cid474" unicode="&#x394;" 
 />
    <glyph glyph-name="cid475" unicode="&#x395;" 
 />
    <glyph glyph-name="cid476" unicode="&#x396;" 
 />
    <glyph glyph-name="cid477" unicode="&#x397;" 
 />
    <glyph glyph-name="cid478" unicode="&#x398;" 
 />
    <glyph glyph-name="cid479" unicode="&#x399;" 
 />
    <glyph glyph-name="cid480" unicode="&#x39a;" 
 />
    <glyph glyph-name="cid481" unicode="&#x39b;" 
 />
    <glyph glyph-name="cid482" unicode="&#x39c;" 
 />
    <glyph glyph-name="cid483" unicode="&#x39d;" 
 />
    <glyph glyph-name="cid484" unicode="&#x39e;" 
 />
    <glyph glyph-name="cid485" unicode="&#x39f;" 
 />
    <glyph glyph-name="cid486" unicode="&#x3a0;" 
 />
    <glyph glyph-name="cid487" unicode="&#x3a1;" 
 />
    <glyph glyph-name="cid488" unicode="&#x3a3;" 
 />
    <glyph glyph-name="cid489" unicode="&#x3a4;" 
 />
    <glyph glyph-name="cid490" unicode="&#x3a5;" 
 />
    <glyph glyph-name="cid491" unicode="&#x3a6;" 
 />
    <glyph glyph-name="cid492" unicode="&#x3a7;" 
 />
    <glyph glyph-name="cid493" unicode="&#x3a8;" 
 />
    <glyph glyph-name="cid494" unicode="&#x3a9;" 
 />
    <glyph glyph-name="cid495" unicode="&#x3b1;" 
 />
    <glyph glyph-name="cid496" unicode="&#x3b2;" 
 />
    <glyph glyph-name="cid497" unicode="&#x3b3;" 
 />
    <glyph glyph-name="cid498" unicode="&#x3b4;" 
 />
    <glyph glyph-name="cid499" unicode="&#x3b5;" 
 />
    <glyph glyph-name="cid500" unicode="&#x3b6;" 
 />
    <glyph glyph-name="cid501" unicode="&#x3b7;" 
 />
    <glyph glyph-name="cid502" unicode="&#x3b8;" 
 />
    <glyph glyph-name="cid503" unicode="&#x3b9;" 
 />
    <glyph glyph-name="cid504" unicode="&#x3ba;" 
 />
    <glyph glyph-name="cid505" unicode="&#x3bb;" 
 />
    <glyph glyph-name="cid506" unicode="&#x3bc;" 
 />
    <glyph glyph-name="cid507" unicode="&#x3bd;" 
 />
    <glyph glyph-name="cid508" unicode="&#x3be;" 
 />
    <glyph glyph-name="cid509" unicode="&#x3bf;" 
 />
    <glyph glyph-name="cid510" unicode="&#x3c0;" 
 />
    <glyph glyph-name="cid511" unicode="&#x3c1;" 
 />
    <glyph glyph-name="cid512" unicode="&#x3c3;" 
 />
    <glyph glyph-name="cid513" unicode="&#x3c4;" 
 />
    <glyph glyph-name="cid514" unicode="&#x3c5;" 
 />
    <glyph glyph-name="cid515" unicode="&#x3c6;" 
 />
    <glyph glyph-name="cid516" unicode="&#x3c7;" 
 />
    <glyph glyph-name="cid517" unicode="&#x3c8;" 
 />
    <glyph glyph-name="cid518" unicode="&#x3c9;" 
 />
    <glyph glyph-name="cid1026" unicode="&#x401;" 
 />
    <glyph glyph-name="cid1020" unicode="&#x410;" 
 />
    <glyph glyph-name="cid1021" unicode="&#x411;" 
 />
    <glyph glyph-name="cid1022" unicode="&#x412;" 
 />
    <glyph glyph-name="cid1023" unicode="&#x413;" 
 />
    <glyph glyph-name="cid1024" unicode="&#x414;" 
 />
    <glyph glyph-name="cid1025" unicode="&#x415;" 
 />
    <glyph glyph-name="cid1027" unicode="&#x416;" 
 />
    <glyph glyph-name="cid1028" unicode="&#x417;" 
 />
    <glyph glyph-name="cid1029" unicode="&#x418;" 
 />
    <glyph glyph-name="cid1030" unicode="&#x419;" 
 />
    <glyph glyph-name="cid1031" unicode="&#x41a;" 
 />
    <glyph glyph-name="cid1032" unicode="&#x41b;" 
 />
    <glyph glyph-name="cid1033" unicode="&#x41c;" 
 />
    <glyph glyph-name="cid1034" unicode="&#x41d;" 
 />
    <glyph glyph-name="cid1035" unicode="&#x41e;" 
 />
    <glyph glyph-name="cid1036" unicode="&#x41f;" 
 />
    <glyph glyph-name="cid1037" unicode="&#x420;" 
 />
    <glyph glyph-name="cid1038" unicode="&#x421;" 
 />
    <glyph glyph-name="cid1039" unicode="&#x422;" 
 />
    <glyph glyph-name="cid1040" unicode="&#x423;" 
 />
    <glyph glyph-name="cid1041" unicode="&#x424;" 
 />
    <glyph glyph-name="cid1042" unicode="&#x425;" 
 />
    <glyph glyph-name="cid1043" unicode="&#x426;" 
 />
    <glyph glyph-name="cid1044" unicode="&#x427;" 
 />
    <glyph glyph-name="cid1045" unicode="&#x428;" 
 />
    <glyph glyph-name="cid1046" unicode="&#x429;" 
 />
    <glyph glyph-name="cid1047" unicode="&#x42a;" 
 />
    <glyph glyph-name="cid1048" unicode="&#x42b;" 
 />
    <glyph glyph-name="cid1049" unicode="&#x42c;" 
 />
    <glyph glyph-name="cid1050" unicode="&#x42d;" 
 />
    <glyph glyph-name="cid1051" unicode="&#x42e;" 
 />
    <glyph glyph-name="cid1052" unicode="&#x42f;" 
 />
    <glyph glyph-name="cid1053" unicode="&#x430;" 
 />
    <glyph glyph-name="cid1054" unicode="&#x431;" 
 />
    <glyph glyph-name="cid1055" unicode="&#x432;" 
 />
    <glyph glyph-name="cid1056" unicode="&#x433;" 
 />
    <glyph glyph-name="cid1057" unicode="&#x434;" 
 />
    <glyph glyph-name="cid1058" unicode="&#x435;" 
 />
    <glyph glyph-name="cid1060" unicode="&#x436;" 
 />
    <glyph glyph-name="cid1061" unicode="&#x437;" 
 />
    <glyph glyph-name="cid1062" unicode="&#x438;" 
 />
    <glyph glyph-name="cid1063" unicode="&#x439;" 
 />
    <glyph glyph-name="cid1064" unicode="&#x43a;" 
 />
    <glyph glyph-name="cid1065" unicode="&#x43b;" 
 />
    <glyph glyph-name="cid1066" unicode="&#x43c;" 
 />
    <glyph glyph-name="cid1067" unicode="&#x43d;" 
 />
    <glyph glyph-name="cid1068" unicode="&#x43e;" 
 />
    <glyph glyph-name="cid1069" unicode="&#x43f;" 
 />
    <glyph glyph-name="cid1070" unicode="&#x440;" 
 />
    <glyph glyph-name="cid1071" unicode="&#x441;" 
 />
    <glyph glyph-name="cid1072" unicode="&#x442;" 
 />
    <glyph glyph-name="cid1073" unicode="&#x443;" 
 />
    <glyph glyph-name="cid1074" unicode="&#x444;" 
 />
    <glyph glyph-name="cid1075" unicode="&#x445;" 
 />
    <glyph glyph-name="cid1076" unicode="&#x446;" 
 />
    <glyph glyph-name="cid1077" unicode="&#x447;" 
 />
    <glyph glyph-name="cid1078" unicode="&#x448;" 
 />
    <glyph glyph-name="cid1079" unicode="&#x449;" 
 />
    <glyph glyph-name="cid1080" unicode="&#x44a;" 
 />
    <glyph glyph-name="cid1081" unicode="&#x44b;" 
 />
    <glyph glyph-name="cid1082" unicode="&#x44c;" 
 />
    <glyph glyph-name="cid1083" unicode="&#x44d;" 
 />
    <glyph glyph-name="cid1084" unicode="&#x44e;" 
 />
    <glyph glyph-name="cid1085" unicode="&#x44f;" 
 />
    <glyph glyph-name="cid1059" unicode="&#x451;" 
 />
    <glyph glyph-name="cid97" unicode="&#x2010;" 
 />
    <glyph glyph-name="cid110" unicode="&#x2014;" 
 />
    <glyph glyph-name="cid110" unicode="&#x2015;" 
 />
    <glyph glyph-name="cid111" unicode="&#x2016;" 
 />
    <glyph glyph-name="quoteleft" unicode="&#x2018;" horiz-adv-x="262" 
d="M105 741q12 22 24 32.5t32 3.5q10 -3 13 -13t-2 -23q-5 -10 -8.5 -21t-7.5 -22l-8 -24q12 0 24 -4t21 -14t13.5 -25.5t1.5 -38.5q-5 -30 -26.5 -46t-50.5 -16q-28 2 -46.5 22t-21.5 52q-1 22 3 41.5t11 37t14.5 32t13.5 26.5z" />
    <glyph glyph-name="quoteright" unicode="&#x2019;" horiz-adv-x="262" 
d="M152 573q-12 -20 -24 -30.5t-32 -2.5q-10 4 -12.5 14.5t2.5 22.5q5 9 9.5 20.5t8.5 21.5q4 11 8 24q-11 0 -22.5 5t-20 15t-12.5 26t0 39q5 30 28 44.5t51 13.5q29 -3 45.5 -24t18.5 -52q0 -22 -4.5 -42t-12 -37t-16 -31.5t-15.5 -26.5z" />
    <glyph glyph-name="cid8238" unicode="&#x201b;" 
 />
    <glyph glyph-name="quotedblleft" unicode="&#x201c;" horiz-adv-x="391" 
d="M75 741q12 22 24 32.5t32 3.5q10 -3 12.5 -13t-1.5 -23q-5 -10 -8.5 -21t-7.5 -22l-8 -24q11 0 23 -4t21 -14t14 -25.5t2 -38.5q-5 -30 -26.5 -46t-50.5 -16q-29 2 -47 22t-21 52q-2 22 2.5 41.5t11 37t14.5 32t14 26.5zM251 741q12 22 23.5 32.5t32.5 3.5q9 -3 12 -13
t-2 -23q-4 -10 -8 -21t-7 -22l-8 -24q11 0 23 -4t21 -14t14 -25.5t2 -38.5q-5 -30 -27 -46t-51 -16q-28 2 -46 22t-21 52q-2 22 2 41.5t11 37t15 32t14 26.5z" />
    <glyph glyph-name="quotedblright" unicode="&#x201d;" horiz-adv-x="391" 
d="M130 573q-13 -20 -25 -30.5t-32 -2.5q-9 4 -11.5 14.5t1.5 22.5q5 9 9.5 20.5t8.5 21.5q4 11 9 24q-11 0 -23 5t-20.5 15t-12.5 26t0 39q6 30 28.5 44.5t50.5 13.5q29 -3 46 -24t19 -52q0 -22 -4.5 -42t-12 -37t-16 -31.5t-15.5 -26.5zM310 573q-13 -20 -25 -30.5
t-32 -2.5q-10 4 -12.5 14.5t2.5 22.5q5 9 9.5 20.5t8.5 21.5q4 11 9 24q-12 0 -23.5 5t-20 15t-12.5 26t0 39q6 30 28.5 44.5t50.5 13.5q29 -3 45.5 -24t18.5 -52q0 -22 -4.5 -42t-12 -37t-15.5 -31.5t-15 -26.5z" />
    <glyph glyph-name="cid8237" unicode="&#x201f;" 
 />
    <glyph glyph-name="cid245" unicode="&#x2020;" 
 />
    <glyph glyph-name="cid246" unicode="&#x2021;" 
 />
    <glyph glyph-name="cid8607" unicode="&#x2022;" 
 />
    <glyph glyph-name="twodotenleader" unicode="&#x2025;" horiz-adv-x="902" 
d="M213 238q-9 0 -18.5 3.5t-16.5 11.5t-10.5 21t-1.5 31q4 23 20.5 35t39.5 12q22 0 36 -16t16 -40q2 -32 -14 -45t-51 -13zM664 238q-9 0 -18.5 3.5t-16.5 11.5t-10.5 21t-1.5 31q4 23 20.5 35t39.5 12q22 0 36.5 -16t16.5 -40q1 -32 -14.5 -45t-51.5 -13z" />
    <glyph glyph-name="ellipsis" unicode="&#x2026;" horiz-adv-x="902" 
d="M147 238q-9 0 -18.5 3.5t-16.5 11.5t-10.5 21t-1.5 31q3 23 20.5 35t40.5 12q21 0 35 -16t16 -40q2 -32 -14 -45t-51 -13zM446 238q-8 0 -17.5 3.5t-16.5 11.5t-11 21t-1 31q4 23 20.5 35t39.5 12q21 0 35.5 -16t16.5 -40q2 -32 -14 -45t-52 -13zM746 238q-9 0 -18.5 3.5
t-16.5 11.5t-11 21t-2 31q4 23 21 35t40 12q21 0 35 -16t16 -40q2 -32 -13.5 -45t-50.5 -13z" />
    <glyph glyph-name="cid216" unicode="&#x2030;" 
 />
    <glyph glyph-name="cid139" unicode="&#x2032;" 
 />
    <glyph glyph-name="cid140" unicode="&#x2033;" 
 />
    <glyph glyph-name="cid8582" unicode="&#x2034;" 
 />
    <glyph glyph-name="cid9326" unicode="&#x2035;" 
 />
    <glyph glyph-name="cid9324" unicode="&#x2036;" 
 />
    <glyph glyph-name="cid8612" unicode="&#x2039;" 
 />
    <glyph glyph-name="cid8613" unicode="&#x203a;" 
 />
    <glyph glyph-name="cid156" unicode="&#x203b;" 
 />
    <glyph glyph-name="cid8763" unicode="&#x203c;" 
 />
    <glyph glyph-name="cid357" unicode="&#x203e;" 
 />
    <glyph glyph-name="cid8599" unicode="&#x2042;" 
 />
    <glyph glyph-name="cid845" unicode="&#x2074;" 
 />
    <glyph glyph-name="cid8239" unicode="&#x207a;" 
 />
    <glyph glyph-name="cid8240" unicode="&#x207b;" 
 />
    <glyph glyph-name="cid8248" unicode="&#x207c;" 
 />
    <glyph glyph-name="cid8250" unicode="&#x207d;" 
 />
    <glyph glyph-name="cid8251" unicode="&#x207e;" 
 />
    <glyph glyph-name="cid846" unicode="&#x207f;" 
 />
    <glyph glyph-name="cid847" unicode="&#x2081;" 
 />
    <glyph glyph-name="cid848" unicode="&#x2082;" 
 />
    <glyph glyph-name="cid849" unicode="&#x2083;" 
 />
    <glyph glyph-name="cid850" unicode="&#x2084;" 
 />
    <glyph glyph-name="dong" unicode="&#x20ab;" horiz-adv-x="599" 
d="M207 503q-1 23 11 33.5t26 11.5q32 2 74.5 2t85.5 -1l1 57q0 17 8.5 30t33.5 13q41 0 43 -44q0 -15 0.5 -29t0.5 -28h62q16 0 27 -10t13 -22q1 -8 0.5 -16.5t-4 -16.5t-12.5 -13t-24 -5h-62q-1 -38 -2.5 -72t-3.5 -66t-4.5 -64.5t-5.5 -67.5q1 -14 -1.5 -27t-10.5 -24
t-22.5 -19.5t-38.5 -13.5q-26 -5 -51.5 -7.5t-51.5 -2.5q-112 0 -175.5 40.5t-63.5 119.5q0 73 39 116.5t111 48.5q57 4 104 -17.5t89 -77.5l1 135q-40 1 -80 1t-77 -2q-16 -1 -27.5 9.5t-12.5 28.5zM42 8q-1 23 11 33.5t26 11.5q21 1 57.5 1.5t80 1t90.5 0.5h90h78h54
q17 0 27.5 -10t12.5 -23q1 -7 0.5 -16t-4 -16.5t-12.5 -12.5t-24 -5h-56.5h-76h-86.5t-87.5 -0.5t-79 -1t-61.5 -1.5q-16 -1 -27.5 9t-12.5 29zM144 262q0 -45 33.5 -64.5t110.5 -22.5q23 -1 49 2t51 8q1 6 2 9.5t1.5 7t1 8.5l1.5 15q-40 58 -74.5 89.5t-81.5 31.5
q-41 0 -67.5 -21t-26.5 -63z" />
    <glyph glyph-name="cid141" unicode="&#x2103;" 
 />
    <glyph glyph-name="cid215" unicode="&#x2109;" 
 />
    <glyph glyph-name="cid590" unicode="&#x2113;" 
 />
    <glyph glyph-name="cid258" unicode="&#x2116;" 
 />
    <glyph glyph-name="cid263" unicode="&#x2121;" 
 />
    <glyph glyph-name="cid260" unicode="&#x2122;" 
 />
    <glyph glyph-name="cid643" unicode="&#x2126;" 
 />
    <glyph glyph-name="cid142" unicode="&#x212b;" 
 />
    <glyph glyph-name="cid749" unicode="&#x2153;" 
 />
    <glyph glyph-name="cid750" unicode="&#x2154;" 
 />
    <glyph glyph-name="cid753" unicode="&#x215b;" 
 />
    <glyph glyph-name="cid754" unicode="&#x215c;" 
 />
    <glyph glyph-name="cid755" unicode="&#x215d;" 
 />
    <glyph glyph-name="cid756" unicode="&#x215e;" 
 />
    <glyph glyph-name="cid461" unicode="&#x2160;" 
 />
    <glyph glyph-name="cid462" unicode="&#x2161;" 
 />
    <glyph glyph-name="cid463" unicode="&#x2162;" 
 />
    <glyph glyph-name="cid464" unicode="&#x2163;" 
 />
    <glyph glyph-name="cid465" unicode="&#x2164;" 
 />
    <glyph glyph-name="cid466" unicode="&#x2165;" 
 />
    <glyph glyph-name="cid467" unicode="&#x2166;" 
 />
    <glyph glyph-name="cid468" unicode="&#x2167;" 
 />
    <glyph glyph-name="cid469" unicode="&#x2168;" 
 />
    <glyph glyph-name="cid470" unicode="&#x2169;" 
 />
    <glyph glyph-name="cid451" unicode="&#x2170;" 
 />
    <glyph glyph-name="cid452" unicode="&#x2171;" 
 />
    <glyph glyph-name="cid453" unicode="&#x2172;" 
 />
    <glyph glyph-name="cid454" unicode="&#x2173;" 
 />
    <glyph glyph-name="cid455" unicode="&#x2174;" 
 />
    <glyph glyph-name="cid456" unicode="&#x2175;" 
 />
    <glyph glyph-name="cid457" unicode="&#x2176;" 
 />
    <glyph glyph-name="cid458" unicode="&#x2177;" 
 />
    <glyph glyph-name="cid459" unicode="&#x2178;" 
 />
    <glyph glyph-name="cid460" unicode="&#x2179;" 
 />
    <glyph glyph-name="cid171" unicode="&#x2190;" 
 />
    <glyph glyph-name="cid172" unicode="&#x2191;" 
 />
    <glyph glyph-name="cid170" unicode="&#x2192;" 
 />
    <glyph glyph-name="cid173" unicode="&#x2193;" 
 />
    <glyph glyph-name="cid174" unicode="&#x2194;" 
 />
    <glyph glyph-name="cid247" unicode="&#x2195;" 
 />
    <glyph glyph-name="cid250" unicode="&#x2196;" 
 />
    <glyph glyph-name="cid248" unicode="&#x2197;" 
 />
    <glyph glyph-name="cid251" unicode="&#x2198;" 
 />
    <glyph glyph-name="cid249" unicode="&#x2199;" 
 />
    <glyph glyph-name="cid8868" unicode="&#x21b0;" 
 />
    <glyph glyph-name="cid8865" unicode="&#x21b1;" 
 />
    <glyph glyph-name="cid8864" unicode="&#x21b2;" 
 />
    <glyph glyph-name="cid8869" unicode="&#x21b3;" 
 />
    <glyph glyph-name="cid8867" unicode="&#x21b4;" 
 />
    <glyph glyph-name="cid8884" unicode="&#x21bc;" 
 />
    <glyph glyph-name="cid8885" unicode="&#x21c0;" 
 />
    <glyph glyph-name="cid8896" unicode="&#x21c4;" 
 />
    <glyph glyph-name="cid8897" unicode="&#x21c5;" 
 />
    <glyph glyph-name="cid8816" unicode="&#x21cd;" 
 />
    <glyph glyph-name="cid8815" unicode="&#x21cf;" 
 />
    <glyph glyph-name="cid8814" unicode="&#x21d0;" 
 />
    <glyph glyph-name="cid8854" unicode="&#x21d1;" 
 />
    <glyph glyph-name="cid8854" unicode="&#x2963;" 
 />
    <glyph glyph-name="cid195" unicode="&#x21d2;" 
 />
    <glyph glyph-name="cid8855" unicode="&#x21d3;" 
 />
    <glyph glyph-name="cid8855" unicode="&#x2965;" 
 />
    <glyph glyph-name="cid196" unicode="&#x21d4;" 
 />
    <glyph glyph-name="cid9190" unicode="&#x21e0;" 
 />
    <glyph glyph-name="cid9192" unicode="&#x21e1;" 
 />
    <glyph glyph-name="cid9191" unicode="&#x21e2;" 
 />
    <glyph glyph-name="cid9193" unicode="&#x21e3;" 
 />
    <glyph glyph-name="cid9198" unicode="&#x21e6;" 
 />
    <glyph glyph-name="cid9200" unicode="&#x21e7;" 
 />
    <glyph glyph-name="cid9199" unicode="&#x21e8;" 
 />
    <glyph glyph-name="cid9201" unicode="&#x21e9;" 
 />
    <glyph glyph-name="cid197" unicode="&#x2200;" 
 />
    <glyph glyph-name="cid151" unicode="&#x2202;" 
 />
    <glyph glyph-name="cid198" unicode="&#x2203;" 
 />
    <glyph glyph-name="cid8715" unicode="&#x2206;" 
 />
    <glyph glyph-name="cid152" unicode="&#x2207;" 
 />
    <glyph glyph-name="cid184" unicode="&#x2208;" 
 />
    <glyph glyph-name="cid8749" unicode="&#x2209;" 
 />
    <glyph glyph-name="cid185" unicode="&#x220b;" 
 />
    <glyph glyph-name="cid8750" unicode="&#x220c;" 
 />
    <glyph glyph-name="cid213" unicode="&#x220f;" 
 />
    <glyph glyph-name="cid212" unicode="&#x2211;" 
 />
    <glyph glyph-name="cid8726" unicode="&#x2213;" 
 />
    <glyph glyph-name="cid178" unicode="&#x221a;" 
 />
    <glyph glyph-name="cid180" unicode="&#x221d;" 
 />
    <glyph glyph-name="cid136" unicode="&#x221e;" 
 />
    <glyph glyph-name="cid8717" unicode="&#x221f;" 
 />
    <glyph glyph-name="cid148" unicode="&#x2220;" 
 />
    <glyph glyph-name="cid8738" unicode="&#x2222;" 
 />
    <glyph glyph-name="cid8719" unicode="&#x2225;" 
 />
    <glyph glyph-name="cid8720" unicode="&#x2226;" 
 />
    <glyph glyph-name="cid192" unicode="&#x2227;" 
 />
    <glyph glyph-name="cid193" unicode="&#x2228;" 
 />
    <glyph glyph-name="cid191" unicode="&#x2229;" 
 />
    <glyph glyph-name="cid190" unicode="&#x222a;" 
 />
    <glyph glyph-name="cid182" unicode="&#x222b;" 
 />
    <glyph glyph-name="cid183" unicode="&#x222c;" 
 />
    <glyph glyph-name="cid211" unicode="&#x222e;" 
 />
    <glyph glyph-name="cid137" unicode="&#x2234;" 
 />
    <glyph glyph-name="cid181" unicode="&#x2235;" 
 />
    <glyph glyph-name="cid8321" unicode="&#x2237;" 
 />
    <glyph glyph-name="cid113" unicode="&#x223c;" 
 />
    <glyph glyph-name="cid113" unicode="&#xff5e;" 
 />
    <glyph glyph-name="cid113" unicode="&#x301c;" 
 />
    <glyph glyph-name="cid179" unicode="&#x223d;" 
 />
    <glyph glyph-name="cid8500" unicode="&#x2243;" 
 />
    <glyph glyph-name="cid8499" unicode="&#x2245;" 
 />
    <glyph glyph-name="cid8501" unicode="&#x2248;" 
 />
    <glyph glyph-name="cid8739" unicode="&#x2250;" 
 />
    <glyph glyph-name="cid8723" unicode="&#x2251;" 
 />
    <glyph glyph-name="cid154" unicode="&#x2252;" 
 />
    <glyph glyph-name="cid8722" unicode="&#x2253;" 
 />
    <glyph glyph-name="cid8753" unicode="&#x225a;" 
 />
    <glyph glyph-name="cid133" unicode="&#x2260;" 
 />
    <glyph glyph-name="cid153" unicode="&#x2261;" 
 />
    <glyph glyph-name="cid8734" unicode="&#x2262;" 
 />
    <glyph glyph-name="cid134" unicode="&#x2264;" 
 />
    <glyph glyph-name="cid135" unicode="&#x2265;" 
 />
    <glyph glyph-name="cid8724" unicode="&#x2266;" 
 />
    <glyph glyph-name="cid8725" unicode="&#x2267;" 
 />
    <glyph glyph-name="cid8745" unicode="&#x226e;" 
 />
    <glyph glyph-name="cid8746" unicode="&#x226f;" 
 />
    <glyph glyph-name="cid8481" unicode="&#x2270;" 
 />
    <glyph glyph-name="cid8482" unicode="&#x2271;" 
 />
    <glyph glyph-name="cid8483" unicode="&#x2272;" 
 />
    <glyph glyph-name="cid8484" unicode="&#x2273;" 
 />
    <glyph glyph-name="cid8489" unicode="&#x2276;" 
 />
    <glyph glyph-name="cid8490" unicode="&#x2277;" 
 />
    <glyph glyph-name="cid8491" unicode="&#x2279;" 
 />
    <glyph glyph-name="cid8475" unicode="&#x227a;" 
 />
    <glyph glyph-name="cid8476" unicode="&#x227b;" 
 />
    <glyph glyph-name="cid8479" unicode="&#x2280;" 
 />
    <glyph glyph-name="cid8480" unicode="&#x2281;" 
 />
    <glyph glyph-name="cid188" unicode="&#x2282;" 
 />
    <glyph glyph-name="cid189" unicode="&#x2283;" 
 />
    <glyph glyph-name="cid8748" unicode="&#x2284;" 
 />
    <glyph glyph-name="cid8747" unicode="&#x2285;" 
 />
    <glyph glyph-name="cid186" unicode="&#x2286;" 
 />
    <glyph glyph-name="cid187" unicode="&#x2287;" 
 />
    <glyph glyph-name="cid8486" unicode="&#x228a;" 
 />
    <glyph glyph-name="cid8486" unicode="&#x2acb;" 
 />
    <glyph glyph-name="cid8488" unicode="&#x228b;" 
 />
    <glyph glyph-name="cid8488" unicode="&#x2acc;" 
 />
    <glyph glyph-name="cid8727" unicode="&#x2295;" 
 />
    <glyph glyph-name="cid8728" unicode="&#x2296;" 
 />
    <glyph glyph-name="cid8729" unicode="&#x2297;" 
 />
    <glyph glyph-name="cid227" unicode="&#x2299;" 
 />
    <glyph glyph-name="cid227" unicode="&#x25c9;" 
 />
    <glyph glyph-name="cid8742" unicode="&#x22a3;" 
 />
    <glyph glyph-name="cid8503" unicode="&#x22a4;" 
 />
    <glyph glyph-name="cid149" unicode="&#x22a5;" 
 />
    <glyph glyph-name="cid8751" unicode="&#x22bb;" 
 />
    <glyph glyph-name="cid8752" unicode="&#x22bc;" 
 />
    <glyph glyph-name="cid8477" unicode="&#x22ce;" 
 />
    <glyph glyph-name="cid8478" unicode="&#x22cf;" 
 />
    <glyph glyph-name="cid8492" unicode="&#x22da;" 
 />
    <glyph glyph-name="cid8493" unicode="&#x22db;" 
 />
    <glyph glyph-name="cid8320" unicode="&#x22ee;" 
 />
    <glyph glyph-name="cid8754" unicode="&#x2306;" 
 />
    <glyph glyph-name="cid150" unicode="&#x2312;" 
 />
    <glyph glyph-name="cid8731" unicode="&#x2314;" 
 />
    <glyph glyph-name="cid733" unicode="&#x2460;" 
 />
    <glyph glyph-name="cid734" unicode="&#x2461;" 
 />
    <glyph glyph-name="cid735" unicode="&#x2462;" 
 />
    <glyph glyph-name="cid736" unicode="&#x2463;" 
 />
    <glyph glyph-name="cid737" unicode="&#x2464;" 
 />
    <glyph glyph-name="cid738" unicode="&#x2465;" 
 />
    <glyph glyph-name="cid739" unicode="&#x2466;" 
 />
    <glyph glyph-name="cid740" unicode="&#x2467;" 
 />
    <glyph glyph-name="cid741" unicode="&#x2468;" 
 />
    <glyph glyph-name="cid742" unicode="&#x2469;" 
 />
    <glyph glyph-name="cid743" unicode="&#x246a;" 
 />
    <glyph glyph-name="cid744" unicode="&#x246b;" 
 />
    <glyph glyph-name="cid745" unicode="&#x246c;" 
 />
    <glyph glyph-name="cid746" unicode="&#x246d;" 
 />
    <glyph glyph-name="cid747" unicode="&#x246e;" 
 />
    <glyph glyph-name="cid8791" unicode="&#x246f;" 
 />
    <glyph glyph-name="cid8792" unicode="&#x2470;" 
 />
    <glyph glyph-name="cid8793" unicode="&#x2471;" 
 />
    <glyph glyph-name="cid8794" unicode="&#x2472;" 
 />
    <glyph glyph-name="cid8795" unicode="&#x2473;" 
 />
    <glyph glyph-name="cid827" unicode="&#x2474;" 
 />
    <glyph glyph-name="cid828" unicode="&#x2475;" 
 />
    <glyph glyph-name="cid829" unicode="&#x2476;" 
 />
    <glyph glyph-name="cid830" unicode="&#x2477;" 
 />
    <glyph glyph-name="cid831" unicode="&#x2478;" 
 />
    <glyph glyph-name="cid832" unicode="&#x2479;" 
 />
    <glyph glyph-name="cid833" unicode="&#x247a;" 
 />
    <glyph glyph-name="cid834" unicode="&#x247b;" 
 />
    <glyph glyph-name="cid835" unicode="&#x247c;" 
 />
    <glyph glyph-name="cid836" unicode="&#x247d;" 
 />
    <glyph glyph-name="cid837" unicode="&#x247e;" 
 />
    <glyph glyph-name="cid838" unicode="&#x247f;" 
 />
    <glyph glyph-name="cid839" unicode="&#x2480;" 
 />
    <glyph glyph-name="cid840" unicode="&#x2481;" 
 />
    <glyph glyph-name="cid841" unicode="&#x2482;" 
 />
    <glyph glyph-name="cid9042" unicode="&#x2483;" 
 />
    <glyph glyph-name="cid9043" unicode="&#x2484;" 
 />
    <glyph glyph-name="cid9044" unicode="&#x2485;" 
 />
    <glyph glyph-name="cid9045" unicode="&#x2486;" 
 />
    <glyph glyph-name="cid9046" unicode="&#x2487;" 
 />
    <glyph glyph-name="cid801" unicode="&#x249c;" 
 />
    <glyph glyph-name="cid802" unicode="&#x249d;" 
 />
    <glyph glyph-name="cid803" unicode="&#x249e;" 
 />
    <glyph glyph-name="cid804" unicode="&#x249f;" 
 />
    <glyph glyph-name="cid805" unicode="&#x24a0;" 
 />
    <glyph glyph-name="cid806" unicode="&#x24a1;" 
 />
    <glyph glyph-name="cid807" unicode="&#x24a2;" 
 />
    <glyph glyph-name="cid808" unicode="&#x24a3;" 
 />
    <glyph glyph-name="cid809" unicode="&#x24a4;" 
 />
    <glyph glyph-name="cid810" unicode="&#x24a5;" 
 />
    <glyph glyph-name="cid811" unicode="&#x24a6;" 
 />
    <glyph glyph-name="cid812" unicode="&#x24a7;" 
 />
    <glyph glyph-name="cid813" unicode="&#x24a8;" 
 />
    <glyph glyph-name="cid814" unicode="&#x24a9;" 
 />
    <glyph glyph-name="cid815" unicode="&#x24aa;" 
 />
    <glyph glyph-name="cid816" unicode="&#x24ab;" 
 />
    <glyph glyph-name="cid817" unicode="&#x24ac;" 
 />
    <glyph glyph-name="cid818" unicode="&#x24ad;" 
 />
    <glyph glyph-name="cid819" unicode="&#x24ae;" 
 />
    <glyph glyph-name="cid820" unicode="&#x24af;" 
 />
    <glyph glyph-name="cid821" unicode="&#x24b0;" 
 />
    <glyph glyph-name="cid822" unicode="&#x24b1;" 
 />
    <glyph glyph-name="cid823" unicode="&#x24b2;" 
 />
    <glyph glyph-name="cid824" unicode="&#x24b3;" 
 />
    <glyph glyph-name="cid825" unicode="&#x24b4;" 
 />
    <glyph glyph-name="cid826" unicode="&#x24b5;" 
 />
    <glyph glyph-name="cid8388" unicode="&#x24b6;" 
 />
    <glyph glyph-name="cid8389" unicode="&#x24b7;" 
 />
    <glyph glyph-name="cid8390" unicode="&#x24b8;" 
 />
    <glyph glyph-name="cid8391" unicode="&#x24b9;" 
 />
    <glyph glyph-name="cid8392" unicode="&#x24ba;" 
 />
    <glyph glyph-name="cid8393" unicode="&#x24bb;" 
 />
    <glyph glyph-name="cid8394" unicode="&#x24bc;" 
 />
    <glyph glyph-name="cid8395" unicode="&#x24bd;" 
 />
    <glyph glyph-name="cid8396" unicode="&#x24be;" 
 />
    <glyph glyph-name="cid8397" unicode="&#x24bf;" 
 />
    <glyph glyph-name="cid8398" unicode="&#x24c0;" 
 />
    <glyph glyph-name="cid8399" unicode="&#x24c1;" 
 />
    <glyph glyph-name="cid8400" unicode="&#x24c2;" 
 />
    <glyph glyph-name="cid8401" unicode="&#x24c3;" 
 />
    <glyph glyph-name="cid8402" unicode="&#x24c4;" 
 />
    <glyph glyph-name="cid8403" unicode="&#x24c5;" 
 />
    <glyph glyph-name="cid8404" unicode="&#x24c6;" 
 />
    <glyph glyph-name="cid8405" unicode="&#x24c7;" 
 />
    <glyph glyph-name="cid8406" unicode="&#x24c8;" 
 />
    <glyph glyph-name="cid8407" unicode="&#x24c9;" 
 />
    <glyph glyph-name="cid8408" unicode="&#x24ca;" 
 />
    <glyph glyph-name="cid8409" unicode="&#x24cb;" 
 />
    <glyph glyph-name="cid8410" unicode="&#x24cc;" 
 />
    <glyph glyph-name="cid8411" unicode="&#x24cd;" 
 />
    <glyph glyph-name="cid8412" unicode="&#x24ce;" 
 />
    <glyph glyph-name="cid8413" unicode="&#x24cf;" 
 />
    <glyph glyph-name="cid707" unicode="&#x24d0;" 
 />
    <glyph glyph-name="cid708" unicode="&#x24d1;" 
 />
    <glyph glyph-name="cid709" unicode="&#x24d2;" 
 />
    <glyph glyph-name="cid710" unicode="&#x24d3;" 
 />
    <glyph glyph-name="cid711" unicode="&#x24d4;" 
 />
    <glyph glyph-name="cid712" unicode="&#x24d5;" 
 />
    <glyph glyph-name="cid713" unicode="&#x24d6;" 
 />
    <glyph glyph-name="cid714" unicode="&#x24d7;" 
 />
    <glyph glyph-name="cid715" unicode="&#x24d8;" 
 />
    <glyph glyph-name="cid716" unicode="&#x24d9;" 
 />
    <glyph glyph-name="cid717" unicode="&#x24da;" 
 />
    <glyph glyph-name="cid718" unicode="&#x24db;" 
 />
    <glyph glyph-name="cid719" unicode="&#x24dc;" 
 />
    <glyph glyph-name="cid720" unicode="&#x24dd;" 
 />
    <glyph glyph-name="cid721" unicode="&#x24de;" 
 />
    <glyph glyph-name="cid722" unicode="&#x24df;" 
 />
    <glyph glyph-name="cid723" unicode="&#x24e0;" 
 />
    <glyph glyph-name="cid724" unicode="&#x24e1;" 
 />
    <glyph glyph-name="cid725" unicode="&#x24e2;" 
 />
    <glyph glyph-name="cid726" unicode="&#x24e3;" 
 />
    <glyph glyph-name="cid727" unicode="&#x24e4;" 
 />
    <glyph glyph-name="cid728" unicode="&#x24e5;" 
 />
    <glyph glyph-name="cid729" unicode="&#x24e6;" 
 />
    <glyph glyph-name="cid730" unicode="&#x24e7;" 
 />
    <glyph glyph-name="cid731" unicode="&#x24e8;" 
 />
    <glyph glyph-name="cid732" unicode="&#x24e9;" 
 />
    <glyph glyph-name="cid8683" unicode="&#x24eb;" 
 />
    <glyph glyph-name="cid8684" unicode="&#x24ec;" 
 />
    <glyph glyph-name="cid8685" unicode="&#x24ed;" 
 />
    <glyph glyph-name="cid8686" unicode="&#x24ee;" 
 />
    <glyph glyph-name="cid8687" unicode="&#x24ef;" 
 />
    <glyph glyph-name="cid8688" unicode="&#x24f0;" 
 />
    <glyph glyph-name="cid8689" unicode="&#x24f1;" 
 />
    <glyph glyph-name="cid8690" unicode="&#x24f2;" 
 />
    <glyph glyph-name="cid8691" unicode="&#x24f3;" 
 />
    <glyph glyph-name="cid8692" unicode="&#x24f4;" 
 />
    <glyph glyph-name="cid519" unicode="&#x2500;" 
 />
    <glyph glyph-name="cid530" unicode="&#x2501;" 
 />
    <glyph glyph-name="cid520" unicode="&#x2502;" 
 />
    <glyph glyph-name="cid531" unicode="&#x2503;" 
 />
    <glyph glyph-name="cid521" unicode="&#x250c;" 
 />
    <glyph glyph-name="cid558" unicode="&#x250d;" 
 />
    <glyph glyph-name="cid557" unicode="&#x250e;" 
 />
    <glyph glyph-name="cid532" unicode="&#x250f;" 
 />
    <glyph glyph-name="cid522" unicode="&#x2510;" 
 />
    <glyph glyph-name="cid552" unicode="&#x2511;" 
 />
    <glyph glyph-name="cid551" unicode="&#x2512;" 
 />
    <glyph glyph-name="cid533" unicode="&#x2513;" 
 />
    <glyph glyph-name="cid524" unicode="&#x2514;" 
 />
    <glyph glyph-name="cid556" unicode="&#x2515;" 
 />
    <glyph glyph-name="cid555" unicode="&#x2516;" 
 />
    <glyph glyph-name="cid535" unicode="&#x2517;" 
 />
    <glyph glyph-name="cid523" unicode="&#x2518;" 
 />
    <glyph glyph-name="cid554" unicode="&#x2519;" 
 />
    <glyph glyph-name="cid553" unicode="&#x251a;" 
 />
    <glyph glyph-name="cid534" unicode="&#x251b;" 
 />
    <glyph glyph-name="cid525" unicode="&#x251c;" 
 />
    <glyph glyph-name="cid546" unicode="&#x251d;" 
 />
    <glyph glyph-name="cid559" unicode="&#x251e;" 
 />
    <glyph glyph-name="cid560" unicode="&#x251f;" 
 />
    <glyph glyph-name="cid541" unicode="&#x2520;" 
 />
    <glyph glyph-name="cid561" unicode="&#x2521;" 
 />
    <glyph glyph-name="cid562" unicode="&#x2522;" 
 />
    <glyph glyph-name="cid536" unicode="&#x2523;" 
 />
    <glyph glyph-name="cid527" unicode="&#x2524;" 
 />
    <glyph glyph-name="cid548" unicode="&#x2525;" 
 />
    <glyph glyph-name="cid563" unicode="&#x2526;" 
 />
    <glyph glyph-name="cid564" unicode="&#x2527;" 
 />
    <glyph glyph-name="cid543" unicode="&#x2528;" 
 />
    <glyph glyph-name="cid565" unicode="&#x2529;" 
 />
    <glyph glyph-name="cid566" unicode="&#x252a;" 
 />
    <glyph glyph-name="cid538" unicode="&#x252b;" 
 />
    <glyph glyph-name="cid526" unicode="&#x252c;" 
 />
    <glyph glyph-name="cid567" unicode="&#x252d;" 
 />
    <glyph glyph-name="cid568" unicode="&#x252e;" 
 />
    <glyph glyph-name="cid542" unicode="&#x252f;" 
 />
    <glyph glyph-name="cid547" unicode="&#x2530;" 
 />
    <glyph glyph-name="cid569" unicode="&#x2531;" 
 />
    <glyph glyph-name="cid570" unicode="&#x2532;" 
 />
    <glyph glyph-name="cid537" unicode="&#x2533;" 
 />
    <glyph glyph-name="cid528" unicode="&#x2534;" 
 />
    <glyph glyph-name="cid571" unicode="&#x2535;" 
 />
    <glyph glyph-name="cid572" unicode="&#x2536;" 
 />
    <glyph glyph-name="cid544" unicode="&#x2537;" 
 />
    <glyph glyph-name="cid549" unicode="&#x2538;" 
 />
    <glyph glyph-name="cid573" unicode="&#x2539;" 
 />
    <glyph glyph-name="cid574" unicode="&#x253a;" 
 />
    <glyph glyph-name="cid539" unicode="&#x253b;" 
 />
    <glyph glyph-name="cid529" unicode="&#x253c;" 
 />
    <glyph glyph-name="cid575" unicode="&#x253d;" 
 />
    <glyph glyph-name="cid576" unicode="&#x253e;" 
 />
    <glyph glyph-name="cid545" unicode="&#x253f;" 
 />
    <glyph glyph-name="cid577" unicode="&#x2540;" 
 />
    <glyph glyph-name="cid578" unicode="&#x2541;" 
 />
    <glyph glyph-name="cid550" unicode="&#x2542;" 
 />
    <glyph glyph-name="cid579" unicode="&#x2543;" 
 />
    <glyph glyph-name="cid580" unicode="&#x2544;" 
 />
    <glyph glyph-name="cid581" unicode="&#x2545;" 
 />
    <glyph glyph-name="cid582" unicode="&#x2546;" 
 />
    <glyph glyph-name="cid583" unicode="&#x2547;" 
 />
    <glyph glyph-name="cid584" unicode="&#x2548;" 
 />
    <glyph glyph-name="cid585" unicode="&#x2549;" 
 />
    <glyph glyph-name="cid586" unicode="&#x254a;" 
 />
    <glyph glyph-name="cid540" unicode="&#x254b;" 
 />
    <glyph glyph-name="cid232" unicode="&#x2592;" 
 />
    <glyph glyph-name="cid165" unicode="&#x25a0;" 
 />
    <glyph glyph-name="cid164" unicode="&#x25a1;" 
 />
    <glyph glyph-name="cid229" unicode="&#x25a3;" 
 />
    <glyph glyph-name="cid233" unicode="&#x25a4;" 
 />
    <glyph glyph-name="cid234" unicode="&#x25a5;" 
 />
    <glyph glyph-name="cid237" unicode="&#x25a6;" 
 />
    <glyph glyph-name="cid236" unicode="&#x25a7;" 
 />
    <glyph glyph-name="cid235" unicode="&#x25a8;" 
 />
    <glyph glyph-name="cid238" unicode="&#x25a9;" 
 />
    <glyph glyph-name="cid8736" unicode="&#x25b1;" 
 />
    <glyph glyph-name="cid167" unicode="&#x25b2;" 
 />
    <glyph glyph-name="cid166" unicode="&#x25b3;" 
 />
    <glyph glyph-name="cid8780" unicode="&#x25b5;" 
 />
    <glyph glyph-name="cid220" unicode="&#x25b6;" 
 />
    <glyph glyph-name="cid219" unicode="&#x25b7;" 
 />
    <glyph glyph-name="cid8781" unicode="&#x25b9;" 
 />
    <glyph glyph-name="cid169" unicode="&#x25bc;" 
 />
    <glyph glyph-name="cid168" unicode="&#x25bd;" 
 />
    <glyph glyph-name="cid8779" unicode="&#x25bf;" 
 />
    <glyph glyph-name="cid218" unicode="&#x25c0;" 
 />
    <glyph glyph-name="cid217" unicode="&#x25c1;" 
 />
    <glyph glyph-name="cid8782" unicode="&#x25c3;" 
 />
    <glyph glyph-name="cid163" unicode="&#x25c6;" 
 />
    <glyph glyph-name="cid162" unicode="&#x25c7;" 
 />
    <glyph glyph-name="cid228" unicode="&#x25c8;" 
 />
    <glyph glyph-name="cid8787" unicode="&#x25ca;" 
 />
    <glyph glyph-name="cid159" unicode="&#x25cb;" 
 />
    <glyph glyph-name="cid8639" unicode="&#x25cc;" 
 />
    <glyph glyph-name="cid161" unicode="&#x25ce;" 
 />
    <glyph glyph-name="cid160" unicode="&#x25cf;" 
 />
    <glyph glyph-name="cid230" unicode="&#x25d0;" 
 />
    <glyph glyph-name="cid231" unicode="&#x25d1;" 
 />
    <glyph glyph-name="cid8775" unicode="&#x25e6;" 
 />
    <glyph glyph-name="cid8633" unicode="&#x25ef;" 
 />
    <glyph glyph-name="uni2605" unicode="&#x2605;" 
d="M296 285q-18 12 -42.5 27.5t-49 31.5t-46 31.5t-34.5 27.5q-7 3 -9.5 9.5t-1 13.5t7 12.5t15.5 6.5q15 0 38 0.5t50 0.5h56h57q14 62 28 120t34 113q3 7 11 12t17.5 5.5t19 -4.5t14.5 -18q23 -59 37.5 -115t31.5 -113h207q15 0 27.5 -0.5t20.5 -14.5q7 -14 -1 -22
q-50 -40 -102.5 -74.5t-103.5 -74.5l53 -198q2 -23 -13 -30t-29 -2q-29 14 -67.5 48.5t-82.5 73.5q-14 -11 -29.5 -25.5t-31.5 -29.5t-30.5 -29t-27.5 -24q-6 -5 -18 -11t-24 -5t-20 12.5t-4 40.5q3 22 8 48t11 52.5l12 53t11 50.5z" />
    <glyph glyph-name="uni2606" unicode="&#x2606;" 
d="M246 101q5 43 11.5 89t14.5 91q-14 16 -31 29.5t-35.5 27t-38.5 27.5t-39 31q-7 6 -9.5 15t-0.5 17t9 14t19 7q31 2 70.5 2h92.5q12 59 29.5 116t35.5 107q5 11 15.5 16.5t23.5 5.5q11 0 23 -6.5t18 -19.5q20 -54 38 -109t34 -110h47t58 0.5t59.5 0.5h52.5q11 0 19.5 -5
t12.5 -12.5t3 -16.5t-9 -15l-193 -147l44 -187q2 -29 -15 -37.5t-35 -1.5q-29 14 -65.5 42.5t-79.5 66.5l-101 -82q-8 -6 -20.5 -11t-24.5 -5q-14 0 -25 13t-8 47zM505 280l-32 115h-16t-20 -0.5t-29.5 -0.5h-44.5l-3 -13q-5 -22 -10.5 -43t-9.5 -43l82 -79zM375 451h83
q-10 32 -21 66.5t-25 69.5zM540 396q5 -19 10.5 -37t10.5 -38q18 13 31.5 23.5t25 19l23 17t25.5 17.5zM520 213q-28 -20 -52 -40q20 -18 39.5 -33.5t38.5 -29.5q-8 27 -14.5 50.5t-11.5 52.5zM318 158q-2 -15 -5 -31q17 14 32.5 26t33.5 26q-3 3 -6 5.5t-8.5 8t-14.5 14
t-23 22.5zM284 348q2 11 5.5 21.5t5.5 23.5h-27t-17 -0.5t-13.5 -0.5h-15.5z" />
    <glyph glyph-name="cid241" unicode="&#x260e;" 
 />
    <glyph glyph-name="cid240" unicode="&#x260f;" 
 />
    <glyph glyph-name="cid242" unicode="&#x261c;" 
 />
    <glyph glyph-name="cid9222" unicode="&#x261d;" 
 />
    <glyph glyph-name="cid243" unicode="&#x261e;" 
 />
    <glyph glyph-name="cid9223" unicode="&#x261f;" 
 />
    <glyph glyph-name="cid8664" unicode="&#x262f;" 
 />
    <glyph glyph-name="cid147" unicode="&#x2640;" 
 />
    <glyph glyph-name="cid146" unicode="&#x2642;" 
 />
    <glyph glyph-name="cid222" unicode="&#x2660;" 
 />
    <glyph glyph-name="uni2661" unicode="&#x2661;" 
d="M260 653q34 0 62 -9t51 -24.5t41.5 -36t33.5 -43.5q10 20 28.5 40.5t41.5 37t49.5 27t53.5 10.5q54 0 91 -19t60.5 -47.5t34.5 -61.5t12 -62q1 -32 -8 -62.5t-25 -57.5t-36 -51.5t-41 -44.5q-46 -45 -91 -80.5t-90 -68.5l-86 -68q-6 -5 -14 -8.5t-15.5 -3.5t-13.5 4.5
t-9 16.5q-2 13 -6 26.5t-12 25.5q-16 33 -42 59t-56 49t-61.5 46t-58.5 51t-46.5 63t-25.5 82q-4 36 6.5 73t34 67.5t58.5 50t79 19.5zM477 446q-6 -13 -18 -13q-10 0 -19 8.5t-16 22.5q-11 21 -27.5 43t-38.5 40t-47 30t-52 12q-26 -3 -46.5 -16t-35 -32t-22.5 -43t-7 -50
q1 -32 16 -59.5t39 -52t52.5 -47t56.5 -44.5q32 -27 65.5 -59t57.5 -79q21 19 42.5 34.5t43.5 30.5q36 26 72.5 53.5t71.5 69.5q15 17 30.5 34.5t27.5 37.5t19.5 44t7.5 54q0 20 -6.5 42t-21.5 40t-40 30t-62 12q-18 0 -37 -9t-36 -23.5t-30 -32t-20 -33.5
q-5 -11 -8.5 -19.5t-11.5 -25.5z" />
    <glyph glyph-name="cid226" unicode="&#x2663;" 
 />
    <glyph glyph-name="cid221" unicode="&#x2664;" 
 />
    <glyph glyph-name="heart" unicode="&#x2665;" 
d="M261 653q35 0 63.5 -10t52 -28t42 -42.5t33.5 -52.5q9 24 26.5 48.5t41 43.5t51 31t56.5 12q53 0 89 -19t58 -47.5t31.5 -62t10.5 -61.5q1 -32 -7 -60.5t-22.5 -54.5t-33.5 -49t-40 -44q-35 -34 -69.5 -63t-68.5 -56t-68 -53t-69 -54q-5 -4 -11.5 -7t-12.5 -3t-10.5 3.5
t-7.5 13.5q-2 13 -5.5 26t-10.5 24q-22 47 -64.5 83t-87.5 72q-26 20 -50.5 41.5t-44 46.5t-32.5 53t-16 62q-4 35 5 71.5t31.5 66.5t57.5 49.5t82 19.5z" />
    <glyph glyph-name="cid225" unicode="&#x2667;" 
 />
    <glyph glyph-name="cid239" unicode="&#x2668;" 
 />
    <glyph glyph-name="cid253" unicode="&#x2669;" 
 />
    <glyph glyph-name="cid254" unicode="&#x266a;" 
 />
    <glyph glyph-name="cid255" unicode="&#x266c;" 
 />
    <glyph glyph-name="cid252" unicode="&#x266d;" 
 />
    <glyph glyph-name="cid8594" unicode="&#x266f;" 
 />
    <glyph glyph-name="cid8631" unicode="&#x2716;" 
 />
    <glyph glyph-name="cid8630" unicode="&#x271a;" 
 />
    <glyph glyph-name="cid8604" unicode="&#x273d;" 
 />
    <glyph glyph-name="cid8637" unicode="&#x2756;" 
 />
    <glyph glyph-name="cid8673" unicode="&#x2776;" 
 />
    <glyph glyph-name="cid8674" unicode="&#x2777;" 
 />
    <glyph glyph-name="cid8675" unicode="&#x2778;" 
 />
    <glyph glyph-name="cid8676" unicode="&#x2779;" 
 />
    <glyph glyph-name="cid8677" unicode="&#x277a;" 
 />
    <glyph glyph-name="cid8678" unicode="&#x277b;" 
 />
    <glyph glyph-name="cid8679" unicode="&#x277c;" 
 />
    <glyph glyph-name="cid8680" unicode="&#x277d;" 
 />
    <glyph glyph-name="cid8681" unicode="&#x277e;" 
 />
    <glyph glyph-name="cid8682" unicode="&#x277f;" 
 />
    <glyph glyph-name="cid8342" unicode="&#x278a;" 
 />
    <glyph glyph-name="cid8343" unicode="&#x278b;" 
 />
    <glyph glyph-name="cid8344" unicode="&#x278c;" 
 />
    <glyph glyph-name="cid8345" unicode="&#x278d;" 
 />
    <glyph glyph-name="cid8346" unicode="&#x278e;" 
 />
    <glyph glyph-name="cid8347" unicode="&#x278f;" 
 />
    <glyph glyph-name="cid8348" unicode="&#x2790;" 
 />
    <glyph glyph-name="cid8349" unicode="&#x2791;" 
 />
    <glyph glyph-name="cid8350" unicode="&#x2792;" 
 />
    <glyph glyph-name="cid8351" unicode="&#x2793;" 
 />
    <glyph glyph-name="cid8485" unicode="&#x2ac5;" 
 />
    <glyph glyph-name="cid8487" unicode="&#x2ac6;" 
 />
    <glyph glyph-name="cid6460" unicode="&#x2f00;" 
 />
    <glyph glyph-name="cid6460" unicode="&#x4e00;" 
 />
    <glyph glyph-name="cid6380" unicode="&#x2f04;" 
 />
    <glyph glyph-name="cid6380" unicode="&#x4e59;" 
 />
    <glyph glyph-name="cid6413" unicode="&#x2f06;" 
 />
    <glyph glyph-name="cid6413" unicode="&#x4e8c;" 
 />
    <glyph glyph-name="cid6443" unicode="&#x2f08;" 
 />
    <glyph glyph-name="cid6443" unicode="&#x4eba;" 
 />
    <glyph glyph-name="cid6477" unicode="&#x2f0a;" 
 />
    <glyph glyph-name="cid6477" unicode="&#x5165;" 
 />
    <glyph glyph-name="cid7499" unicode="&#x2f0b;" 
 />
    <glyph glyph-name="cid7499" unicode="&#x516b;" 
 />
    <glyph glyph-name="cid4270" unicode="&#x2f11;" 
 />
    <glyph glyph-name="cid4270" unicode="&#x5200;" 
 />
    <glyph glyph-name="cid4458" unicode="&#x2f12;" 
 />
    <glyph glyph-name="cid4458" unicode="&#xf98a;" 
 />
    <glyph glyph-name="cid4458" unicode="&#x529b;" 
 />
    <glyph glyph-name="cid5183" unicode="&#x2f14;" 
 />
    <glyph glyph-name="cid5183" unicode="&#x5315;" 
 />
    <glyph glyph-name="cid5772" unicode="&#x2f17;" 
 />
    <glyph glyph-name="cid5772" unicode="&#x5341;" 
 />
    <glyph glyph-name="cid5077" unicode="&#x2f18;" 
 />
    <glyph glyph-name="cid5077" unicode="&#x535c;" 
 />
    <glyph glyph-name="cid6201" unicode="&#x2f1c;" 
 />
    <glyph glyph-name="cid6201" unicode="&#x53c8;" 
 />
    <glyph glyph-name="cid3901" unicode="&#x2f1d;" 
 />
    <glyph glyph-name="cid3901" unicode="&#x53e3;" 
 />
    <glyph glyph-name="cid7451" unicode="&#x2f1f;" 
 />
    <glyph glyph-name="cid7451" unicode="&#x571f;" 
 />
    <glyph glyph-name="cid5255" unicode="&#x2f20;" 
 />
    <glyph glyph-name="cid5255" unicode="&#x58eb;" 
 />
    <glyph glyph-name="cid5403" unicode="&#x2f23;" 
 />
    <glyph glyph-name="cid5403" unicode="&#x5915;" 
 />
    <glyph glyph-name="cid4253" unicode="&#x2f24;" 
 />
    <glyph glyph-name="cid4253" unicode="&#x5927;" 
 />
    <glyph glyph-name="cid4159" unicode="&#x2f25;" 
 />
    <glyph glyph-name="cid4159" unicode="&#xf981;" 
 />
    <glyph glyph-name="cid4159" unicode="&#x5973;" 
 />
    <glyph glyph-name="cid6488" unicode="&#x2f26;" 
 />
    <glyph glyph-name="cid6488" unicode="&#x5b50;" 
 />
    <glyph glyph-name="cid7247" unicode="&#x2f28;" 
 />
    <glyph glyph-name="cid7247" unicode="&#x5bf8;" 
 />
    <glyph glyph-name="cid5504" unicode="&#x2f29;" 
 />
    <glyph glyph-name="cid5504" unicode="&#x5c0f;" 
 />
    <glyph glyph-name="cid5697" unicode="&#x2f2b;" 
 />
    <glyph glyph-name="cid5697" unicode="&#x5c38;" 
 />
    <glyph glyph-name="cid5305" unicode="&#x2f2d;" 
 />
    <glyph glyph-name="cid5305" unicode="&#x5c71;" 
 />
    <glyph glyph-name="cid3791" unicode="&#x2f2f;" 
 />
    <glyph glyph-name="cid3791" unicode="&#x5de5;" 
 />
    <glyph glyph-name="cid4077" unicode="&#x2f30;" 
 />
    <glyph glyph-name="cid4077" unicode="&#x5df1;" 
 />
    <glyph glyph-name="cid3604" unicode="&#x2f31;" 
 />
    <glyph glyph-name="cid3604" unicode="&#x5dfe;" 
 />
    <glyph glyph-name="cid3481" unicode="&#x2f32;" 
 />
    <glyph glyph-name="cid3481" unicode="&#x5e72;" 
 />
    <glyph glyph-name="cid3964" unicode="&#x2f38;" 
 />
    <glyph glyph-name="cid3964" unicode="&#x5f13;" 
 />
    <glyph glyph-name="cid5764" unicode="&#x2f3c;" 
 />
    <glyph glyph-name="cid5764" unicode="&#x5fc3;" 
 />
    <glyph glyph-name="cid3804" unicode="&#x2f3d;" 
 />
    <glyph glyph-name="cid3804" unicode="&#x6208;" 
 />
    <glyph glyph-name="cid7808" unicode="&#x2f3e;" 
 />
    <glyph glyph-name="cid7808" unicode="&#x6236;" 
 />
    <glyph glyph-name="cid5580" unicode="&#x2f3f;" 
 />
    <glyph glyph-name="cid5580" unicode="&#x624b;" 
 />
    <glyph glyph-name="cid6951" unicode="&#x2f40;" 
 />
    <glyph glyph-name="cid6951" unicode="&#x652f;" 
 />
    <glyph glyph-name="cid4840" unicode="&#x2f42;" 
 />
    <glyph glyph-name="cid4840" unicode="&#x6587;" 
 />
    <glyph glyph-name="cid4349" unicode="&#x2f43;" 
 />
    <glyph glyph-name="cid4349" unicode="&#x6597;" 
 />
    <glyph glyph-name="cid4027" unicode="&#x2f44;" 
 />
    <glyph glyph-name="cid4027" unicode="&#x65a4;" 
 />
    <glyph glyph-name="cid4950" unicode="&#x2f45;" 
 />
    <glyph glyph-name="cid4950" unicode="&#x65b9;" 
 />
    <glyph glyph-name="cid4819" unicode="&#x2f46;" 
 />
    <glyph glyph-name="cid4819" unicode="&#x65e0;" 
 />
    <glyph glyph-name="cid6125" unicode="&#x2f47;" 
 />
    <glyph glyph-name="cid6125" unicode="&#x66f0;" 
 />
    <glyph glyph-name="cid6281" unicode="&#x2f49;" 
 />
    <glyph glyph-name="cid6281" unicode="&#x6708;" 
 />
    <glyph glyph-name="cid4788" unicode="&#x2f4a;" 
 />
    <glyph glyph-name="cid4788" unicode="&#x6728;" 
 />
    <glyph glyph-name="cid8027" unicode="&#x2f4b;" 
 />
    <glyph glyph-name="cid8027" unicode="&#x6b20;" 
 />
    <glyph glyph-name="cid6956" unicode="&#x2f4c;" 
 />
    <glyph glyph-name="cid6956" unicode="&#x6b62;" 
 />
    <glyph glyph-name="cid4822" unicode="&#x2f4f;" 
 />
    <glyph glyph-name="cid4822" unicode="&#x6bcb;" 
 />
    <glyph glyph-name="cid5196" unicode="&#x2f50;" 
 />
    <glyph glyph-name="cid5196" unicode="&#x6bd4;" 
 />
    <glyph glyph-name="cid4776" unicode="&#x2f51;" 
 />
    <glyph glyph-name="cid4776" unicode="&#x6bdb;" 
 />
    <glyph glyph-name="cid5774" unicode="&#x2f52;" 
 />
    <glyph glyph-name="cid5774" unicode="&#x6c0f;" 
 />
    <glyph glyph-name="cid5587" unicode="&#x2f54;" 
 />
    <glyph glyph-name="cid5587" unicode="&#x6c34;" 
 />
    <glyph glyph-name="cid7867" unicode="&#x2f55;" 
 />
    <glyph glyph-name="cid7867" unicode="&#x706b;" 
 />
    <glyph glyph-name="cid6803" unicode="&#x2f56;" 
 />
    <glyph glyph-name="cid6803" unicode="&#x722a;" 
 />
    <glyph glyph-name="cid5129" unicode="&#x2f57;" 
 />
    <glyph glyph-name="cid5129" unicode="&#x7236;" 
 />
    <glyph glyph-name="cid7962" unicode="&#x2f58;" 
 />
    <glyph glyph-name="cid7962" unicode="&#x723b;" 
 />
    <glyph glyph-name="cid7521" unicode="&#x2f5a;" 
 />
    <glyph glyph-name="cid7521" unicode="&#x7247;" 
 />
    <glyph glyph-name="cid5782" unicode="&#x2f5b;" 
 />
    <glyph glyph-name="cid5782" unicode="&#x7259;" 
 />
    <glyph glyph-name="cid6210" unicode="&#x2f5c;" 
 />
    <glyph glyph-name="cid6210" unicode="&#x725b;" 
 />
    <glyph glyph-name="cid3639" unicode="&#x2f5d;" 
 />
    <glyph glyph-name="cid3639" unicode="&#x72ac;" 
 />
    <glyph glyph-name="cid7741" unicode="&#x2f5e;" 
 />
    <glyph glyph-name="cid7741" unicode="&#x7384;" 
 />
    <glyph glyph-name="cid6081" unicode="&#x2f5f;" 
 />
    <glyph glyph-name="cid6081" unicode="&#x7389;" 
 />
    <glyph glyph-name="cid3806" unicode="&#x2f60;" 
 />
    <glyph glyph-name="cid3806" unicode="&#x74dc;" 
 />
    <glyph glyph-name="cid6100" unicode="&#x2f61;" 
 />
    <glyph glyph-name="cid6100" unicode="&#x74e6;" 
 />
    <glyph glyph-name="cid3521" unicode="&#x2f62;" 
 />
    <glyph glyph-name="cid3521" unicode="&#x7518;" 
 />
    <glyph glyph-name="cid5370" unicode="&#x2f63;" 
 />
    <glyph glyph-name="cid5370" unicode="&#x751f;" 
 />
    <glyph glyph-name="cid6189" unicode="&#x2f64;" 
 />
    <glyph glyph-name="cid6189" unicode="&#x7528;" 
 />
    <glyph glyph-name="cid6664" unicode="&#x2f65;" 
 />
    <glyph glyph-name="cid6664" unicode="&#x7530;" 
 />
    <glyph glyph-name="cid7610" unicode="&#x2f66;" 
 />
    <glyph glyph-name="cid7610" unicode="&#x758b;" 
 />
    <glyph glyph-name="cid4993" unicode="&#x2f69;" 
 />
    <glyph glyph-name="cid4993" unicode="&#x767d;" 
 />
    <glyph glyph-name="cid7600" unicode="&#x2f6a;" 
 />
    <glyph glyph-name="cid7600" unicode="&#x76ae;" 
 />
    <glyph glyph-name="cid4755" unicode="&#x2f6b;" 
 />
    <glyph glyph-name="cid4755" unicode="&#x76bf;" 
 />
    <glyph glyph-name="cid4791" unicode="&#x2f6c;" 
 />
    <glyph glyph-name="cid4791" unicode="&#x76ee;" 
 />
    <glyph glyph-name="cid4781" unicode="&#x2f6d;" 
 />
    <glyph glyph-name="cid4781" unicode="&#x77db;" 
 />
    <glyph glyph-name="cid5709" unicode="&#x2f6e;" 
 />
    <glyph glyph-name="cid5709" unicode="&#x77e2;" 
 />
    <glyph glyph-name="cid5413" unicode="&#x2f6f;" 
 />
    <glyph glyph-name="cid5413" unicode="&#x77f3;" 
 />
    <glyph glyph-name="cid5710" unicode="&#x2f70;" 
 />
    <glyph glyph-name="cid5710" unicode="&#x793a;" 
 />
    <glyph glyph-name="cid7870" unicode="&#x2f72;" 
 />
    <glyph glyph-name="cid7870" unicode="&#x79be;" 
 />
    <glyph glyph-name="cid7755" unicode="&#x2f73;" 
 />
    <glyph glyph-name="cid7755" unicode="&#x7a74;" 
 />
    <glyph glyph-name="cid4653" unicode="&#x2f74;" 
 />
    <glyph glyph-name="cid4653" unicode="&#xf9f7;" 
 />
    <glyph glyph-name="cid4653" unicode="&#x7acb;" 
 />
    <glyph glyph-name="cid6900" unicode="&#x2f75;" 
 />
    <glyph glyph-name="cid6900" unicode="&#x7af9;" 
 />
    <glyph glyph-name="cid4863" unicode="&#x2f76;" 
 />
    <glyph glyph-name="cid4863" unicode="&#x7c73;" 
 />
    <glyph glyph-name="cid5132" unicode="&#x2f78;" 
 />
    <glyph glyph-name="cid5132" unicode="&#x7f36;" 
 />
    <glyph glyph-name="cid5896" unicode="&#x2f7a;" 
 />
    <glyph glyph-name="cid5896" unicode="&#x7f8a;" 
 />
    <glyph glyph-name="cid6218" unicode="&#x2f7b;" 
 />
    <glyph glyph-name="cid6218" unicode="&#x7fbd;" 
 />
    <glyph glyph-name="cid4519" unicode="&#x2f7c;" 
 />
    <glyph glyph-name="cid4519" unicode="&#xf934;" 
 />
    <glyph glyph-name="cid4519" unicode="&#x8001;" 
 />
    <glyph glyph-name="cid6427" unicode="&#x2f7d;" 
 />
    <glyph glyph-name="cid6427" unicode="&#x800c;" 
 />
    <glyph glyph-name="cid6428" unicode="&#x2f7f;" 
 />
    <glyph glyph-name="cid6428" unicode="&#x8033;" 
 />
    <glyph glyph-name="cid6368" unicode="&#x2f80;" 
 />
    <glyph glyph-name="cid6368" unicode="&#x807f;" 
 />
    <glyph glyph-name="cid6357" unicode="&#x2f81;" 
 />
    <glyph glyph-name="cid6357" unicode="&#x8089;" 
 />
    <glyph glyph-name="cid5749" unicode="&#x2f82;" 
 />
    <glyph glyph-name="cid5749" unicode="&#x81e3;" 
 />
    <glyph glyph-name="cid6502" unicode="&#x2f83;" 
 />
    <glyph glyph-name="cid6502" unicode="&#x81ea;" 
 />
    <glyph glyph-name="cid6967" unicode="&#x2f84;" 
 />
    <glyph glyph-name="cid6967" unicode="&#x81f3;" 
 />
    <glyph glyph-name="cid3930" unicode="&#x2f85;" 
 />
    <glyph glyph-name="cid3930" unicode="&#x81fc;" 
 />
    <glyph glyph-name="cid5456" unicode="&#x2f86;" 
 />
    <glyph glyph-name="cid5456" unicode="&#x820c;" 
 />
    <glyph glyph-name="cid7158" unicode="&#x2f87;" 
 />
    <glyph glyph-name="cid7158" unicode="&#x821b;" 
 />
    <glyph glyph-name="cid6888" unicode="&#x2f88;" 
 />
    <glyph glyph-name="cid6888" unicode="&#x821f;" 
 />
    <glyph glyph-name="cid3496" unicode="&#x2f89;" 
 />
    <glyph glyph-name="cid3496" unicode="&#x826e;" 
 />
    <glyph glyph-name="cid5368" unicode="&#x2f8a;" 
 />
    <glyph glyph-name="cid5368" unicode="&#x8272;" 
 />
    <glyph glyph-name="cid7232" unicode="&#x2f8b;" 
 />
    <glyph glyph-name="cid7232" unicode="&#x8278;" 
 />
    <glyph glyph-name="cid7756" unicode="&#x2f8e;" 
 />
    <glyph glyph-name="cid7756" unicode="&#x8840;" 
 />
    <glyph glyph-name="cid7709" unicode="&#x2f8f;" 
 />
    <glyph glyph-name="cid7709" unicode="&#xfa08;" 
 />
    <glyph glyph-name="cid7709" unicode="&#x884c;" 
 />
    <glyph glyph-name="cid6409" unicode="&#x2f90;" 
 />
    <glyph glyph-name="cid6409" unicode="&#x8863;" 
 />
    <glyph glyph-name="cid3644" unicode="&#x2f92;" 
 />
    <glyph glyph-name="cid3644" unicode="&#xfa0a;" 
 />
    <glyph glyph-name="cid3644" unicode="&#x898b;" 
 />
    <glyph glyph-name="cid3474" unicode="&#x2f93;" 
 />
    <glyph glyph-name="cid3474" unicode="&#x89d2;" 
 />
    <glyph glyph-name="cid5921" unicode="&#x2f94;" 
 />
    <glyph glyph-name="cid5921" unicode="&#x8a00;" 
 />
    <glyph glyph-name="cid3772" unicode="&#x2f95;" 
 />
    <glyph glyph-name="cid3772" unicode="&#x8c37;" 
 />
    <glyph glyph-name="cid4355" unicode="&#x2f96;" 
 />
    <glyph glyph-name="cid4355" unicode="&#x8c46;" 
 />
    <glyph glyph-name="cid5718" unicode="&#x2f97;" 
 />
    <glyph glyph-name="cid5718" unicode="&#x8c55;" 
 />
    <glyph glyph-name="cid7512" unicode="&#x2f99;" 
 />
    <glyph glyph-name="cid7512" unicode="&#x8c9d;" 
 />
    <glyph glyph-name="cid6636" unicode="&#x2f9a;" 
 />
    <glyph glyph-name="cid6636" unicode="&#x8d64;" 
 />
    <glyph glyph-name="cid6892" unicode="&#x2f9b;" 
 />
    <glyph glyph-name="cid6892" unicode="&#x8d70;" 
 />
    <glyph glyph-name="cid6830" unicode="&#x2f9c;" 
 />
    <glyph glyph-name="cid6830" unicode="&#x8db3;" 
 />
    <glyph glyph-name="cid5755" unicode="&#x2f9d;" 
 />
    <glyph glyph-name="cid5755" unicode="&#x8eab;" 
 />
    <glyph glyph-name="cid7053" unicode="&#x2f9e;" 
 />
    <glyph glyph-name="cid7053" unicode="&#xf902;" 
 />
    <glyph glyph-name="cid7053" unicode="&#x8eca;" 
 />
    <glyph glyph-name="cid5756" unicode="&#x2f9f;" 
 />
    <glyph glyph-name="cid5756" unicode="&#x8f9b;" 
 />
    <glyph glyph-name="cid7009" unicode="&#x2fa0;" 
 />
    <glyph glyph-name="cid7009" unicode="&#xf971;" 
 />
    <glyph glyph-name="cid7009" unicode="&#x8fb0;" 
 />
    <glyph glyph-name="cid6389" unicode="&#x2fa2;" 
 />
    <glyph glyph-name="cid6389" unicode="&#x9091;" 
 />
    <glyph glyph-name="cid6352" unicode="&#x2fa3;" 
 />
    <glyph glyph-name="cid6352" unicode="&#x9149;" 
 />
    <glyph glyph-name="cid4634" unicode="&#x2fa5;" 
 />
    <glyph glyph-name="cid4634" unicode="&#xf9e9;" 
 />
    <glyph glyph-name="cid4634" unicode="&#x91cc;" 
 />
    <glyph glyph-name="cid4131" unicode="&#x2fa6;" 
 />
    <glyph glyph-name="cid4131" unicode="&#xf90a;" 
 />
    <glyph glyph-name="cid4131" unicode="&#x91d1;" 
 />
    <glyph glyph-name="cid6568" unicode="&#x2fa7;" 
 />
    <glyph glyph-name="cid6568" unicode="&#x9577;" 
 />
    <glyph glyph-name="cid4846" unicode="&#x2fa8;" 
 />
    <glyph glyph-name="cid4846" unicode="&#x9580;" 
 />
    <glyph glyph-name="cid5147" unicode="&#x2fa9;" 
 />
    <glyph glyph-name="cid5147" unicode="&#x961c;" 
 />
    <glyph glyph-name="cid6227" unicode="&#x2fac;" 
 />
    <glyph glyph-name="cid6227" unicode="&#x96e8;" 
 />
    <glyph glyph-name="cid7203" unicode="&#x2fad;" 
 />
    <glyph glyph-name="cid7203" unicode="&#x9751;" 
 />
    <glyph glyph-name="cid5220" unicode="&#x2fae;" 
 />
    <glyph glyph-name="cid5220" unicode="&#x975e;" 
 />
    <glyph glyph-name="cid4744" unicode="&#x2faf;" 
 />
    <glyph glyph-name="cid4744" unicode="&#x9762;" 
 />
    <glyph glyph-name="cid7733" unicode="&#x2fb0;" 
 />
    <glyph glyph-name="cid7733" unicode="&#x9769;" 
 />
    <glyph glyph-name="cid6307" unicode="&#x2fb1;" 
 />
    <glyph glyph-name="cid6307" unicode="&#x97cb;" 
 />
    <glyph glyph-name="cid6385" unicode="&#x2fb3;" 
 />
    <glyph glyph-name="cid6385" unicode="&#x97f3;" 
 />
    <glyph glyph-name="cid7757" unicode="&#x2fb4;" 
 />
    <glyph glyph-name="cid7757" unicode="&#x9801;" 
 />
    <glyph glyph-name="cid7595" unicode="&#x2fb5;" 
 />
    <glyph glyph-name="cid7595" unicode="&#x98a8;" 
 />
    <glyph glyph-name="cid5221" unicode="&#x2fb6;" 
 />
    <glyph glyph-name="cid5221" unicode="&#x98db;" 
 />
    <glyph glyph-name="cid5733" unicode="&#x2fb7;" 
 />
    <glyph glyph-name="cid5733" unicode="&#x98df;" 
 />
    <glyph glyph-name="cid5625" unicode="&#x2fb8;" 
 />
    <glyph glyph-name="cid5625" unicode="&#x9996;" 
 />
    <glyph glyph-name="cid7718" unicode="&#x2fb9;" 
 />
    <glyph glyph-name="cid7718" unicode="&#x9999;" 
 />
    <glyph glyph-name="cid4661" unicode="&#x2fba;" 
 />
    <glyph glyph-name="cid4661" unicode="&#x99ac;" 
 />
    <glyph glyph-name="cid3785" unicode="&#x2fbb;" 
 />
    <glyph glyph-name="cid3785" unicode="&#x9aa8;" 
 />
    <glyph glyph-name="cid3765" unicode="&#x2fbc;" 
 />
    <glyph glyph-name="cid3765" unicode="&#x9ad8;" 
 />
    <glyph glyph-name="cid3993" unicode="&#x2fc1;" 
 />
    <glyph glyph-name="cid3993" unicode="&#x9b3c;" 
 />
    <glyph glyph-name="cid5910" unicode="&#x2fc2;" 
 />
    <glyph glyph-name="cid5910" unicode="&#x9b5a;" 
 />
    <glyph glyph-name="cid6827" unicode="&#x2fc3;" 
 />
    <glyph glyph-name="cid6827" unicode="&#x9ce5;" 
 />
    <glyph glyph-name="cid4527" unicode="&#x2fc4;" 
 />
    <glyph glyph-name="cid4527" unicode="&#x9e75;" 
 />
    <glyph glyph-name="cid4533" unicode="&#x2fc5;" 
 />
    <glyph glyph-name="cid4533" unicode="&#xf940;" 
 />
    <glyph glyph-name="cid4533" unicode="&#x9e7f;" 
 />
    <glyph glyph-name="cid4726" unicode="&#x2fc6;" 
 />
    <glyph glyph-name="cid4726" unicode="&#x9ea5;" 
 />
    <glyph glyph-name="cid4663" unicode="&#x2fc7;" 
 />
    <glyph glyph-name="cid4663" unicode="&#x9ebb;" 
 />
    <glyph glyph-name="cid7927" unicode="&#x2fc8;" 
 />
    <glyph glyph-name="cid7927" unicode="&#x9ec3;" 
 />
    <glyph glyph-name="cid5401" unicode="&#x2fc9;" 
 />
    <glyph glyph-name="cid5401" unicode="&#x9ecd;" 
 />
    <glyph glyph-name="cid8018" unicode="&#x2fca;" 
 />
    <glyph glyph-name="cid8018" unicode="&#x9ed1;" 
 />
    <glyph glyph-name="cid6758" unicode="&#x2fcd;" 
 />
    <glyph glyph-name="cid6758" unicode="&#x9f0e;" 
 />
    <glyph glyph-name="cid3766" unicode="&#x2fce;" 
 />
    <glyph glyph-name="cid3766" unicode="&#x9f13;" 
 />
    <glyph glyph-name="cid5402" unicode="&#x2fcf;" 
 />
    <glyph glyph-name="cid5402" unicode="&#x9f20;" 
 />
    <glyph glyph-name="cid5222" unicode="&#x2fd0;" 
 />
    <glyph glyph-name="cid5222" unicode="&#x9f3b;" 
 />
    <glyph glyph-name="cid6781" unicode="&#x2fd1;" 
 />
    <glyph glyph-name="cid6781" unicode="&#x9f4a;" 
 />
    <glyph glyph-name="cid7359" unicode="&#x2fd2;" 
 />
    <glyph glyph-name="cid7359" unicode="&#x9f52;" 
 />
    <glyph glyph-name="cid4563" unicode="&#x2fd3;" 
 />
    <glyph glyph-name="cid4563" unicode="&#xf9c4;" 
 />
    <glyph glyph-name="cid4563" unicode="&#x9f8d;" 
 />
    <glyph glyph-name="cid3946" unicode="&#x2fd4;" 
 />
    <glyph glyph-name="cid3946" unicode="&#xf908;" 
 />
    <glyph glyph-name="cid3946" unicode="&#xf907;" 
 />
    <glyph glyph-name="cid3946" unicode="&#x9f9c;" 
 />
    <glyph glyph-name="cid101" unicode="&#x3000;" 
 />
    <glyph glyph-name="cid101" unicode="&#x3164;" 
 />
    <glyph glyph-name="cid102" unicode="&#x3001;" 
 />
    <glyph glyph-name="cid103" unicode="&#x3002;" 
 />
    <glyph glyph-name="cid108" unicode="&#x3003;" 
 />
    <glyph glyph-name="cid120" unicode="&#x3008;" 
 />
    <glyph glyph-name="cid121" unicode="&#x3009;" 
 />
    <glyph glyph-name="cid122" unicode="&#x300a;" 
 />
    <glyph glyph-name="cid123" unicode="&#x300b;" 
 />
    <glyph glyph-name="cid124" unicode="&#x300c;" 
 />
    <glyph glyph-name="cid125" unicode="&#x300d;" 
 />
    <glyph glyph-name="cid126" unicode="&#x300e;" 
 />
    <glyph glyph-name="cid127" unicode="&#x300f;" 
 />
    <glyph glyph-name="cid128" unicode="&#x3010;" 
 />
    <glyph glyph-name="cid129" unicode="&#x3011;" 
 />
    <glyph glyph-name="cid8700" unicode="&#x3012;" 
 />
    <glyph glyph-name="cid175" unicode="&#x3013;" 
 />
    <glyph glyph-name="uni3014" unicode="&#x3014;" 
 />
    <glyph glyph-name="cid119" unicode="&#x3015;" 
 />
    <glyph glyph-name="cid8219" unicode="&#x3016;" 
 />
    <glyph glyph-name="cid8220" unicode="&#x3017;" 
 />
    <glyph glyph-name="cid8221" unicode="&#x3018;" 
 />
    <glyph glyph-name="cid8222" unicode="&#x3019;" 
 />
    <glyph glyph-name="cid9322" unicode="&#x301e;" 
 />
    <glyph glyph-name="cid9323" unicode="&#x301f;" 
 />
    <glyph glyph-name="cid8671" unicode="&#x3020;" 
 />
    <glyph glyph-name="cid8701" unicode="&#x3036;" 
 />
    <glyph glyph-name="cid851" unicode="&#x3041;" 
 />
    <glyph glyph-name="cid852" unicode="&#x3042;" 
 />
    <glyph glyph-name="cid853" unicode="&#x3043;" 
 />
    <glyph glyph-name="cid854" unicode="&#x3044;" 
 />
    <glyph glyph-name="cid855" unicode="&#x3045;" 
 />
    <glyph glyph-name="cid856" unicode="&#x3046;" 
 />
    <glyph glyph-name="cid857" unicode="&#x3047;" 
 />
    <glyph glyph-name="cid858" unicode="&#x3048;" 
 />
    <glyph glyph-name="cid859" unicode="&#x3049;" 
 />
    <glyph glyph-name="cid860" unicode="&#x304a;" 
 />
    <glyph glyph-name="cid861" unicode="&#x304b;" 
 />
    <glyph glyph-name="cid862" unicode="&#x304c;" 
 />
    <glyph glyph-name="cid863" unicode="&#x304d;" 
 />
    <glyph glyph-name="cid864" unicode="&#x304e;" 
 />
    <glyph glyph-name="cid865" unicode="&#x304f;" 
 />
    <glyph glyph-name="cid866" unicode="&#x3050;" 
 />
    <glyph glyph-name="cid867" unicode="&#x3051;" 
 />
    <glyph glyph-name="cid868" unicode="&#x3052;" 
 />
    <glyph glyph-name="cid869" unicode="&#x3053;" 
 />
    <glyph glyph-name="cid870" unicode="&#x3054;" 
 />
    <glyph glyph-name="cid871" unicode="&#x3055;" 
 />
    <glyph glyph-name="cid872" unicode="&#x3056;" 
 />
    <glyph glyph-name="cid873" unicode="&#x3057;" 
 />
    <glyph glyph-name="cid874" unicode="&#x3058;" 
 />
    <glyph glyph-name="cid875" unicode="&#x3059;" 
 />
    <glyph glyph-name="cid876" unicode="&#x305a;" 
 />
    <glyph glyph-name="cid877" unicode="&#x305b;" 
 />
    <glyph glyph-name="cid878" unicode="&#x305c;" 
 />
    <glyph glyph-name="cid879" unicode="&#x305d;" 
 />
    <glyph glyph-name="cid880" unicode="&#x305e;" 
 />
    <glyph glyph-name="cid881" unicode="&#x305f;" 
 />
    <glyph glyph-name="cid882" unicode="&#x3060;" 
 />
    <glyph glyph-name="cid883" unicode="&#x3061;" 
 />
    <glyph glyph-name="cid884" unicode="&#x3062;" 
 />
    <glyph glyph-name="cid885" unicode="&#x3063;" 
 />
    <glyph glyph-name="cid886" unicode="&#x3064;" 
 />
    <glyph glyph-name="cid887" unicode="&#x3065;" 
 />
    <glyph glyph-name="cid888" unicode="&#x3066;" 
 />
    <glyph glyph-name="cid889" unicode="&#x3067;" 
 />
    <glyph glyph-name="cid890" unicode="&#x3068;" 
 />
    <glyph glyph-name="cid891" unicode="&#x3069;" 
 />
    <glyph glyph-name="cid892" unicode="&#x306a;" 
 />
    <glyph glyph-name="cid893" unicode="&#x306b;" 
 />
    <glyph glyph-name="cid894" unicode="&#x306c;" 
 />
    <glyph glyph-name="cid895" unicode="&#x306d;" 
 />
    <glyph glyph-name="cid896" unicode="&#x306e;" 
 />
    <glyph glyph-name="cid897" unicode="&#x306f;" 
 />
    <glyph glyph-name="cid898" unicode="&#x3070;" 
 />
    <glyph glyph-name="cid899" unicode="&#x3071;" 
 />
    <glyph glyph-name="cid900" unicode="&#x3072;" 
 />
    <glyph glyph-name="cid901" unicode="&#x3073;" 
 />
    <glyph glyph-name="cid902" unicode="&#x3074;" 
 />
    <glyph glyph-name="cid903" unicode="&#x3075;" 
 />
    <glyph glyph-name="cid904" unicode="&#x3076;" 
 />
    <glyph glyph-name="cid905" unicode="&#x3077;" 
 />
    <glyph glyph-name="cid906" unicode="&#x3078;" 
 />
    <glyph glyph-name="cid907" unicode="&#x3079;" 
 />
    <glyph glyph-name="cid908" unicode="&#x307a;" 
 />
    <glyph glyph-name="cid909" unicode="&#x307b;" 
 />
    <glyph glyph-name="cid910" unicode="&#x307c;" 
 />
    <glyph glyph-name="cid911" unicode="&#x307d;" 
 />
    <glyph glyph-name="cid912" unicode="&#x307e;" 
 />
    <glyph glyph-name="cid913" unicode="&#x307f;" 
 />
    <glyph glyph-name="cid914" unicode="&#x3080;" 
 />
    <glyph glyph-name="cid915" unicode="&#x3081;" 
 />
    <glyph glyph-name="cid916" unicode="&#x3082;" 
 />
    <glyph glyph-name="cid917" unicode="&#x3083;" 
 />
    <glyph glyph-name="cid918" unicode="&#x3084;" 
 />
    <glyph glyph-name="cid919" unicode="&#x3085;" 
 />
    <glyph glyph-name="cid920" unicode="&#x3086;" 
 />
    <glyph glyph-name="cid921" unicode="&#x3087;" 
 />
    <glyph glyph-name="cid922" unicode="&#x3088;" 
 />
    <glyph glyph-name="cid923" unicode="&#x3089;" 
 />
    <glyph glyph-name="cid924" unicode="&#x308a;" 
 />
    <glyph glyph-name="cid925" unicode="&#x308b;" 
 />
    <glyph glyph-name="cid926" unicode="&#x308c;" 
 />
    <glyph glyph-name="cid927" unicode="&#x308d;" 
 />
    <glyph glyph-name="cid928" unicode="&#x308e;" 
 />
    <glyph glyph-name="cid929" unicode="&#x308f;" 
 />
    <glyph glyph-name="cid930" unicode="&#x3090;" 
 />
    <glyph glyph-name="cid931" unicode="&#x3091;" 
 />
    <glyph glyph-name="cid932" unicode="&#x3092;" 
 />
    <glyph glyph-name="cid933" unicode="&#x3093;" 
 />
    <glyph glyph-name="cid934" unicode="&#x30a1;" 
 />
    <glyph glyph-name="cid935" unicode="&#x30a2;" 
 />
    <glyph glyph-name="cid936" unicode="&#x30a3;" 
 />
    <glyph glyph-name="cid937" unicode="&#x30a4;" 
 />
    <glyph glyph-name="cid938" unicode="&#x30a5;" 
 />
    <glyph glyph-name="cid939" unicode="&#x30a6;" 
 />
    <glyph glyph-name="cid940" unicode="&#x30a7;" 
 />
    <glyph glyph-name="cid941" unicode="&#x30a8;" 
 />
    <glyph glyph-name="cid942" unicode="&#x30a9;" 
 />
    <glyph glyph-name="cid943" unicode="&#x30aa;" 
 />
    <glyph glyph-name="cid944" unicode="&#x30ab;" 
 />
    <glyph glyph-name="cid945" unicode="&#x30ac;" 
 />
    <glyph glyph-name="cid946" unicode="&#x30ad;" 
 />
    <glyph glyph-name="cid947" unicode="&#x30ae;" 
 />
    <glyph glyph-name="cid948" unicode="&#x30af;" 
 />
    <glyph glyph-name="cid949" unicode="&#x30b0;" 
 />
    <glyph glyph-name="cid950" unicode="&#x30b1;" 
 />
    <glyph glyph-name="cid951" unicode="&#x30b2;" 
 />
    <glyph glyph-name="cid952" unicode="&#x30b3;" 
 />
    <glyph glyph-name="cid953" unicode="&#x30b4;" 
 />
    <glyph glyph-name="cid954" unicode="&#x30b5;" 
 />
    <glyph glyph-name="cid955" unicode="&#x30b6;" 
 />
    <glyph glyph-name="cid956" unicode="&#x30b7;" 
 />
    <glyph glyph-name="cid957" unicode="&#x30b8;" 
 />
    <glyph glyph-name="cid958" unicode="&#x30b9;" 
 />
    <glyph glyph-name="cid959" unicode="&#x30ba;" 
 />
    <glyph glyph-name="cid960" unicode="&#x30bb;" 
 />
    <glyph glyph-name="cid961" unicode="&#x30bc;" 
 />
    <glyph glyph-name="cid962" unicode="&#x30bd;" 
 />
    <glyph glyph-name="cid963" unicode="&#x30be;" 
 />
    <glyph glyph-name="cid964" unicode="&#x30bf;" 
 />
    <glyph glyph-name="cid965" unicode="&#x30c0;" 
 />
    <glyph glyph-name="cid966" unicode="&#x30c1;" 
 />
    <glyph glyph-name="cid967" unicode="&#x30c2;" 
 />
    <glyph glyph-name="cid968" unicode="&#x30c3;" 
 />
    <glyph glyph-name="cid969" unicode="&#x30c4;" 
 />
    <glyph glyph-name="cid970" unicode="&#x30c5;" 
 />
    <glyph glyph-name="cid971" unicode="&#x30c6;" 
 />
    <glyph glyph-name="cid972" unicode="&#x30c7;" 
 />
    <glyph glyph-name="cid973" unicode="&#x30c8;" 
 />
    <glyph glyph-name="cid974" unicode="&#x30c9;" 
 />
    <glyph glyph-name="cid975" unicode="&#x30ca;" 
 />
    <glyph glyph-name="cid976" unicode="&#x30cb;" 
 />
    <glyph glyph-name="cid977" unicode="&#x30cc;" 
 />
    <glyph glyph-name="cid978" unicode="&#x30cd;" 
 />
    <glyph glyph-name="cid979" unicode="&#x30ce;" 
 />
    <glyph glyph-name="cid980" unicode="&#x30cf;" 
 />
    <glyph glyph-name="cid981" unicode="&#x30d0;" 
 />
    <glyph glyph-name="cid982" unicode="&#x30d1;" 
 />
    <glyph glyph-name="cid983" unicode="&#x30d2;" 
 />
    <glyph glyph-name="cid984" unicode="&#x30d3;" 
 />
    <glyph glyph-name="cid985" unicode="&#x30d4;" 
 />
    <glyph glyph-name="cid986" unicode="&#x30d5;" 
 />
    <glyph glyph-name="cid987" unicode="&#x30d6;" 
 />
    <glyph glyph-name="cid988" unicode="&#x30d7;" 
 />
    <glyph glyph-name="cid989" unicode="&#x30d8;" 
 />
    <glyph glyph-name="cid990" unicode="&#x30d9;" 
 />
    <glyph glyph-name="cid991" unicode="&#x30da;" 
 />
    <glyph glyph-name="cid992" unicode="&#x30db;" 
 />
    <glyph glyph-name="cid993" unicode="&#x30dc;" 
 />
    <glyph glyph-name="cid994" unicode="&#x30dd;" 
 />
    <glyph glyph-name="cid995" unicode="&#x30de;" 
 />
    <glyph glyph-name="cid996" unicode="&#x30df;" 
 />
    <glyph glyph-name="cid997" unicode="&#x30e0;" 
 />
    <glyph glyph-name="cid998" unicode="&#x30e1;" 
 />
    <glyph glyph-name="cid999" unicode="&#x30e2;" 
 />
    <glyph glyph-name="cid1000" unicode="&#x30e3;" 
 />
    <glyph glyph-name="cid1001" unicode="&#x30e4;" 
 />
    <glyph glyph-name="cid1002" unicode="&#x30e5;" 
 />
    <glyph glyph-name="cid1003" unicode="&#x30e6;" 
 />
    <glyph glyph-name="cid1004" unicode="&#x30e7;" 
 />
    <glyph glyph-name="cid1005" unicode="&#x30e8;" 
 />
    <glyph glyph-name="cid1006" unicode="&#x30e9;" 
 />
    <glyph glyph-name="cid1007" unicode="&#x30ea;" 
 />
    <glyph glyph-name="cid1008" unicode="&#x30eb;" 
 />
    <glyph glyph-name="cid1009" unicode="&#x30ec;" 
 />
    <glyph glyph-name="cid1010" unicode="&#x30ed;" 
 />
    <glyph glyph-name="cid1011" unicode="&#x30ee;" 
 />
    <glyph glyph-name="cid1012" unicode="&#x30ef;" 
 />
    <glyph glyph-name="cid1013" unicode="&#x30f0;" 
 />
    <glyph glyph-name="cid1014" unicode="&#x30f1;" 
 />
    <glyph glyph-name="cid1015" unicode="&#x30f2;" 
 />
    <glyph glyph-name="cid1016" unicode="&#x30f3;" 
 />
    <glyph glyph-name="cid1017" unicode="&#x30f4;" 
 />
    <glyph glyph-name="cid1018" unicode="&#x30f5;" 
 />
    <glyph glyph-name="cid1019" unicode="&#x30f6;" 
 />
    <glyph glyph-name="cid9330" unicode="&#x30fc;" 
 />
    <glyph glyph-name="uni3131" unicode="&#x3131;" 
d="M269 451q-19 0 -29 11.5t-10 24.5q0 14 8 27.5t34 14.5q158 4 299 0q20 0 38 -3t31 -11t20.5 -22.5t7.5 -38.5q0 -14 -0.5 -43.5t-2 -65.5t-4 -75t-5.5 -72q-2 -20 -12 -31t-30 -11q-14 0 -26.5 11.5t-10.5 28.5q2 32 4 55.5t3.5 48t2 54t0.5 72.5q0 8 -2 15.5t-22 9.5
q-32 2 -64 2.5t-66.5 0t-74.5 -1t-89 -1.5z" />
    <glyph glyph-name="uni3132" unicode="&#x3132;" 
d="M212 440q-19 -1 -29 11t-10 25q0 14 8 27.5t34 14.5q16 0 37.5 0.5t43.5 0t42.5 -1t34.5 -1.5q29 -2 45.5 -18.5t16.5 -54.5q0 -14 -0.5 -43.5t-1.5 -65.5t-3.5 -75t-5.5 -72q-2 -20 -12 -31t-30 -11q-14 0 -26.5 11.5t-10.5 28.5q2 32 4 66t3.5 65t2 57t-0.5 42
q-1 8 -2.5 15.5t-21.5 9.5q-17 2 -50 1.5t-68 -1.5zM515 440q-19 -1 -29 11t-10 25q0 14 8 27.5t34 14.5q36 1 55 1.5t32 0t24 -1.5t31 -3q29 -4 46.5 -19.5t17.5 -53.5q0 -14 -0.5 -43.5t-2 -65.5t-4 -75t-5.5 -72q-2 -20 -12 -31t-30 -11q-14 0 -26.5 11.5t-10.5 28.5
q2 32 4 55.5t3.5 48t2 54t0.5 72.5q0 8 -2 16t-22 9q-16 1 -42.5 1.5t-61.5 -0.5z" />
    <glyph glyph-name="uni3133" unicode="&#x3133;" 
d="M212 440q-19 -1 -29 11t-10 25q0 14 8 27.5t34 14.5q16 0 37.5 0.5t43.5 0t42.5 -1t34.5 -1.5q29 -2 45.5 -18.5t16.5 -54.5q0 -14 -0.5 -43.5t-1.5 -65.5t-3.5 -75t-5.5 -72q-2 -20 -12 -31t-30 -11q-14 0 -26.5 11.5t-10.5 28.5q2 32 4 66t3.5 65t2 57t-0.5 42
q-1 8 -2.5 15.5t-21.5 9.5q-17 2 -50 1.5t-68 -1.5zM473 206q27 35 46 61t33.5 55t26.5 66.5t27 95.5q2 20 16.5 28t28.5 6q17 -1 27.5 -11.5t10.5 -33.5q-6 -61 -28 -113q22 -23 38.5 -40.5t30.5 -33t28.5 -32t31.5 -37.5q11 -17 9 -30.5t-7 -21.5q-10 -13 -29.5 -16
t-33.5 10q-22 25 -36 41.5t-25 29t-21 24.5t-25 27q-23 -43 -41.5 -69t-39.5 -52q-14 -18 -31.5 -18.5t-29.5 9.5q-10 9 -13 23.5t6 31.5z" />
    <glyph glyph-name="uni3134" unicode="&#x3134;" 
d="M256 470q2 18 14.5 27.5t27.5 10.5q14 1 25 -7.5t12 -26.5q1 -47 2.5 -98.5t6.5 -92.5q2 -10 10 -16.5t33 -5.5q75 2 131.5 5t98.5 13q21 5 34.5 -3.5t18.5 -22.5q4 -14 -2.5 -27.5t-26.5 -20.5q-27 -9 -65 -13.5t-77 -6t-72.5 -2t-51.5 -0.5q-24 0 -44 3.5t-35 16
t-24 35t-11 59.5q-2 30 -2.5 48.5t-1.5 35t-1 36.5v53z" />
    <glyph glyph-name="uni3135" unicode="&#x3135;" 
d="M176 460q2 18 14.5 27.5t27.5 10.5q14 1 25 -7.5t12 -26.5q1 -47 2.5 -98.5t6.5 -92.5q2 -10 9 -14.5t27 -6.5q21 -2 50 0t56 10q11 3 21.5 -4t13.5 -28q2 -17 -6 -26t-18 -12q-14 -5 -34.5 -7t-41.5 -3t-39.5 -0.5t-26.5 1.5q-11 1 -26.5 3.5t-29.5 12.5t-25 30.5
t-13 57.5q-2 30 -2.5 48.5t-1.5 35t-1 36.5v53zM479 418q-21 3 -30.5 16t-9.5 27q0 13 10 25t33 14l197 1q12 -1 27 -9t15 -31q0 -19 -5 -33.5t-9 -19.5q-4 -9 -10.5 -22.5t-13.5 -26.5q-8 -15 -18 -32q15 -20 39 -42t44 -45q13 -16 12 -29t-9.5 -22t-21 -12.5t-22.5 -0.5
q-8 3 -13 6t-14 13l-66 67q-17 -23 -36 -46t-48 -43q-14 -9 -21 -9q-22 0 -35 13.5t-11 32.5q0 9 7 16q44 40 69.5 70.5t39.5 53t20.5 39t12.5 29.5h-133z" />
    <glyph glyph-name="uni3136" unicode="&#x3136;" 
d="M176 460q2 18 14.5 27.5t27.5 10.5q14 1 25 -7.5t12 -26.5q1 -47 2.5 -98.5t6.5 -92.5q2 -10 9 -14.5t27 -6.5q21 -2 50 0t56 10q11 3 21.5 -4t13.5 -28q2 -17 -6 -26t-18 -12q-14 -5 -34.5 -7t-41.5 -3t-39.5 -0.5t-26.5 1.5q-11 1 -26.5 3.5t-29.5 12.5t-25 30.5
t-13 57.5q-2 30 -2.5 48.5t-1.5 35t-1 36.5v53zM707 275q0 -56 -30 -91t-95 -35q-35 1 -57.5 11.5t-36 27.5t-19 39t-5.5 45q0 24 7 47t23 41t40 28.5t59 10.5q54 0 84 -34.5t30 -89.5zM438 417q-18 3 -26.5 15.5t-8.5 24.5t9 24t28 13l89 1q-1 20 -0.5 37.5t0.5 38.5
q0 16 11.5 25t27.5 11q17 0 30 -8.5t14 -24.5l3 -79l106 -1q17 0 23.5 -13.5t6.5 -26.5q0 -14 -8.5 -25.5t-22.5 -11.5h-282zM542 274q0 -17 9.5 -32t34.5 -15q47 0 47 50q0 20 -10.5 34t-33.5 14t-35 -15.5t-12 -35.5z" />
    <glyph glyph-name="uni3137" unicode="&#x3137;" 
d="M628 243q17 -1 23.5 -11t6.5 -27q0 -18 -8.5 -28t-19.5 -11q-20 -2 -62 -2.5t-89 -1t-89.5 -0.5h-62.5q-31 3 -44 19.5t-14 47.5q-2 60 -4.5 118.5t-5.5 117.5q-1 21 11.5 35.5t36.5 15.5l310 5q20 1 29 -11t9 -24q1 -26 -10 -35t-24 -9l-281 -4q3 -48 4 -99t3 -100h32
t49.5 0.5t58 0.5t58.5 0.5t50 1t33 1.5z" />
    <glyph glyph-name="uni3138" unicode="&#x3138;" 
d="M409 261q17 -1 23.5 -11t6.5 -27q0 -18 -8.5 -28t-19.5 -11l-153 -2q-31 3 -44 19.5t-14 47.5q-2 60 -4.5 113.5t-5.5 112.5q-1 21 11.5 35.5t36.5 15.5l130 3q20 1 29 -11t9 -24q1 -26 -10 -35t-24 -9l-101 -2q3 -48 4 -94t3 -95zM666 261q17 -1 23.5 -11t6.5 -27
q0 -18 -8.5 -28t-19.5 -11l-143 -2q-31 3 -44 19.5t-14 47.5q-2 60 -4.5 113.5t-5.5 112.5q-1 21 11.5 35.5t36.5 15.5l140 3q20 1 29 -11t9 -24q1 -26 -10 -35t-24 -9l-111 -2q3 -48 4 -94t3 -95z" />
    <glyph glyph-name="uni3139" unicode="&#x3139;" 
d="M314 475q-18 -2 -27.5 8.5t-11.5 25.5q-2 14 6 26.5t26 14.5q19 3 54 4t72 1t70 -1.5t49 -5.5q20 -5 29.5 -15.5t13.5 -31.5q5 -32 5 -61.5v-72.5q0 -23 -13.5 -37.5t-36.5 -16.5q-24 -2 -52.5 -2.5t-56 -0.5t-52 -0.5t-41.5 -1.5q-1 -5 -2 -16.5t-1 -25v-26t2 -18.5
q9 -2 39.5 -2t67 1t71.5 2.5t54 1.5q20 1 27 -13t7 -26q0 -14 -6.5 -26t-31.5 -14q-15 -1 -49 -2.5t-71.5 -2t-70.5 -0.5t-46 1q-10 1 -20.5 2.5t-20 5.5t-16.5 11.5t-11 19.5q-4 14 -6.5 34t-3 41t0.5 41.5t3 35.5q3 23 20.5 37.5t43.5 16.5q18 1 44 1.5t53 0.5h52.5
t42.5 2q3 14 2.5 38t-4.5 48q-2 1 -16 1.5t-34.5 0.5t-44.5 -0.5t-46.5 -1.5t-39.5 -1.5t-23 -0.5z" />
    <glyph glyph-name="uni313A" unicode="&#x313a;" 
d="M212 470q-25 -1 -32.5 13t-7.5 28q0 15 7.5 24.5t26.5 10.5q42 2 84 1.5t75 0.5q31 0 44 -18.5t13 -45.5q0 -20 -1 -41t-2.5 -40.5t-4 -36.5t-6.5 -29q-5 -13 -15 -18.5t-19 -7.5q-8 -2 -23.5 -2.5t-35 -0.5h-39h-34.5v-66q0 -8 2 -15.5t22 -7.5h137q12 0 21.5 -6
t10.5 -24q1 -28 -15 -36t-35 -8q-26 0 -45 -0.5t-35.5 -0.5t-33.5 0.5t-38 1.5q-41 2 -55.5 17.5t-16.5 43.5q-1 26 -0.5 63t2.5 75q1 11 6 22t25 12h144q3 17 4 44t-1 47h-129zM510 470q-20 0 -30 10.5t-10 24.5q0 12 7.5 25t35.5 14q32 1 69.5 1h72.5q18 0 29 -4.5t17 -12
t8 -16.5t2 -18q0 -13 0.5 -35t0 -48t-1 -54t-1 -53.5t-1 -46.5t-1.5 -33q-1 -17 -10 -28t-32 -10q-17 0 -27.5 10.5t-8.5 30.5q1 15 2 48t1 70.5t-0.5 72t-1.5 52.5h-120z" />
    <glyph glyph-name="uni313B" unicode="&#x313b;" 
d="M204 470q-25 -1 -32.5 13t-7.5 28q0 15 7.5 24.5t26.5 10.5q42 2 84 1.5t75 0.5q31 0 44 -18.5t13 -45.5q0 -20 -1 -41t-2.5 -40.5t-4 -36.5t-6.5 -29q-5 -13 -15 -18.5t-19 -7.5q-8 -2 -23.5 -2.5t-35 -0.5h-39h-34.5v-66q0 -8 2 -15.5t22 -7.5h137q12 0 21.5 -6
t10.5 -24q1 -28 -15 -36t-35 -8q-26 0 -45 -0.5t-35.5 -0.5t-33.5 0.5t-38 1.5q-41 2 -55.5 17.5t-16.5 43.5q-1 26 -0.5 63t2.5 75q1 11 6 22t25 12h144q3 17 4 44t-1 47h-129zM455 463q-1 21 11.5 35.5t36.5 15.5l179 5q41 4 44 -41q1 -54 2 -91.5t1.5 -62.5t0.5 -40.5
v-26.5q-1 -22 -3 -38.5t-8.5 -28.5t-19.5 -19t-36 -9l-140 -4q-31 3 -44 19.5t-14 47.5q-2 60 -4.5 119.5t-5.5 118.5zM536 436q3 -48 4 -100t3 -101l75 1q24 2 30.5 7t7.5 19v18.5t-1 32t-2.5 51t-2.5 75.5z" />
    <glyph glyph-name="uni313C" unicode="&#x313c;" 
d="M197 470q-25 -1 -32.5 13t-7.5 28q0 15 7.5 24.5t26.5 10.5q42 2 84 1.5t75 0.5q31 0 44 -18.5t13 -45.5q0 -20 -1 -41t-2.5 -40.5t-4 -36.5t-6.5 -29q-5 -13 -15 -18.5t-19 -7.5q-8 -2 -23.5 -2.5t-35 -0.5h-39h-34.5v-66q0 -8 2 -15.5t22 -7.5h137q12 0 21.5 -6
t10.5 -24q1 -28 -15 -36t-35 -8q-26 0 -45 -0.5t-35.5 -0.5t-33.5 0.5t-38 1.5q-41 2 -55.5 17.5t-16.5 43.5q-1 26 -0.5 63t2.5 75q1 11 6 22t25 12h144q3 17 4 44t-1 47h-129zM636 511q0 15 10.5 24.5t24.5 9.5q34 0 36 -40q1 -37 1.5 -69.5t1 -64t0 -63.5t-1.5 -66
q-2 -38 -12.5 -63t-45.5 -34q-12 -3 -29.5 -5t-35.5 -3.5t-34 -1.5h-24q-27 2 -36 14t-14 44q-8 103 -16 178.5t-8 129.5q0 17 10.5 25.5t24.5 8.5q12 0 24 -7t13 -24l6 -82l104 2zM615 216q16 0 19 36q2 21 2 42.5t-2 54.5l-97 -1l10 -136z" />
    <glyph glyph-name="uni313D" unicode="&#x313d;" 
d="M204 470q-25 -1 -32.5 13t-7.5 28q0 15 7.5 24.5t26.5 10.5q42 2 84 1.5t75 0.5q31 0 44 -18.5t13 -45.5q0 -20 -1 -41t-2.5 -40.5t-4 -36.5t-6.5 -29q-5 -13 -15 -18.5t-19 -7.5q-8 -2 -23.5 -2.5t-35 -0.5h-39h-34.5v-66q0 -8 2 -15.5t22 -7.5h137q12 0 21.5 -6
t10.5 -24q1 -28 -15 -36t-35 -8q-26 0 -45 -0.5t-35.5 -0.5t-33.5 0.5t-38 1.5q-41 2 -55.5 17.5t-16.5 43.5q-1 26 -0.5 63t2.5 75q1 11 6 22t25 12h144q3 17 4 44t-1 47h-129zM443 206q27 35 46 61t33.5 55t26.5 66.5t27 95.5q2 20 16.5 28t28.5 6q17 -1 27.5 -11.5
t10.5 -33.5q-6 -61 -28 -113q22 -23 38.5 -40.5t30.5 -33t28.5 -32t31.5 -37.5q11 -17 9 -30.5t-7 -21.5q-10 -13 -29.5 -16t-33.5 10q-22 25 -36 41.5t-25 29t-21 24.5t-25 27q-23 -43 -41.5 -69t-39.5 -52q-14 -18 -31.5 -18.5t-29.5 9.5q-10 9 -13 23.5t6 31.5z" />
    <glyph glyph-name="uni313E" unicode="&#x313e;" 
d="M204 470q-25 -1 -32.5 13t-7.5 28q0 15 7.5 24.5t26.5 10.5q42 2 84 1.5t75 0.5q31 0 44 -18.5t13 -45.5q0 -20 -1 -41t-2.5 -40.5t-4 -36.5t-6.5 -29q-5 -13 -15 -18.5t-19 -7.5q-8 -2 -23.5 -2.5t-35 -0.5h-39h-34.5v-66q0 -8 2 -15.5t22 -7.5h137q12 0 21.5 -6
t10.5 -24q1 -28 -15 -36t-35 -8q-26 0 -45 -0.5t-35.5 -0.5t-33.5 0.5t-38 1.5q-41 2 -55.5 17.5t-16.5 43.5q-1 26 -0.5 63t2.5 75q1 11 6 22t25 12h144q3 17 4 44t-1 47h-129zM718 238q17 -1 23.5 -11t6.5 -27q0 -18 -8.5 -28t-19.5 -11l-173 -2q-31 3 -44 19.5t-14 47.5
q-2 60 -4.5 128.5t-5.5 127.5q-1 21 11.5 35.5t36.5 15.5l150 3q20 1 29 -11t9 -24q1 -26 -10 -35t-24 -9l-121 -2l3 -74l135 2q20 1 29 -11t9 -24q1 -26 -10 -35t-24 -9l-138 -1l3 -67z" />
    <glyph glyph-name="uni313F" unicode="&#x313f;" 
d="M204 470q-25 -1 -32.5 13t-7.5 28q0 15 7.5 24.5t26.5 10.5q42 2 84 1.5t75 0.5q31 0 44 -18.5t13 -45.5q0 -20 -1 -41t-2.5 -40.5t-4 -36.5t-6.5 -29q-5 -13 -15 -18.5t-19 -7.5q-8 -2 -23.5 -2.5t-35 -0.5h-39h-34.5v-66q0 -8 2 -15.5t22 -7.5h137q12 0 21.5 -6
t10.5 -24q1 -28 -15 -36t-35 -8q-26 0 -45 -0.5t-35.5 -0.5t-33.5 0.5t-38 1.5q-41 2 -55.5 17.5t-16.5 43.5q-1 26 -0.5 63t2.5 75q1 11 6 22t25 12h144q3 17 4 44t-1 47h-129zM640 449h-54v-54v-66v-61v-38l3 -2q18 -1 25 -1h25zM738 521q16 1 25.5 -8.5t8.5 -26.5
q-1 -18 -10.5 -25t-24.5 -8l-21 -2l-4 -222l26 2q16 1 25.5 -10t8.5 -28q-1 -18 -10.5 -25t-24.5 -8q-16 -1 -45 -2t-64.5 -1.5t-73 -0.5t-69.5 2q-12 1 -22 8.5t-11 28.5q-1 17 10 26t25 11l28 -2v219l-30 2q-12 1 -22 8.5t-11 28.5q-1 17 10 23t25 8z" />
    <glyph glyph-name="uni3140" unicode="&#x3140;" 
d="M715 260q0 -53 -28.5 -86.5t-90.5 -33.5q-33 1 -54.5 11t-34 26t-18 37t-5.5 43q0 23 7 45t21.5 39t38 27t56.5 10q51 0 79.5 -33t28.5 -85zM472 399q-18 0 -26.5 13t-8.5 25t9 24t28 13q23 0 42 0.5t37 0.5v63q0 16 11.5 25t27.5 11q17 0 30 -8.5t14 -24.5l3 -67h96
q17 0 23.5 -13.5t6.5 -26.5q0 -14 -8.5 -24.5t-22.5 -10.5h-262zM560 259q0 -16 8.5 -29.5t31.5 -13.5q43 0 43 46q0 18 -9.5 31t-30.5 13t-32 -14t-11 -33zM204 470q-25 -1 -32.5 13t-7.5 28q0 15 7.5 24.5t26.5 10.5q42 2 84 1.5t75 0.5q31 0 44 -18.5t13 -45.5
q0 -20 -1 -41t-2.5 -40.5t-4 -36.5t-6.5 -29q-5 -13 -15 -18.5t-19 -7.5q-8 -2 -23.5 -2.5t-35 -0.5h-39h-34.5v-66q0 -8 2 -15.5t22 -7.5h137q12 0 21.5 -6t10.5 -24q1 -28 -15 -36t-35 -8q-26 0 -45 -0.5t-35.5 -0.5t-33.5 0.5t-38 1.5q-41 2 -55.5 17.5t-16.5 43.5
q-1 26 -0.5 63t2.5 75q1 11 6 22t25 12h144q3 17 4 44t-1 47h-129z" />
    <glyph glyph-name="uni3141" unicode="&#x3141;" 
d="M253 463q-1 21 11.5 35.5t36.5 15.5l289 5q41 4 44 -41q1 -54 2 -91.5t1.5 -62.5t0.5 -40.5v-26.5q-1 -22 -3 -38.5t-8.5 -28.5t-19.5 -19t-36 -9t-55 -3t-67 -1.5t-68.5 0t-59.5 0.5q-31 3 -44 19.5t-14 47.5q-2 60 -4.5 119.5t-5.5 118.5zM334 436q3 -48 4 -100t3 -101
q16 0 40.5 -0.5t51.5 -0.5t52 0.5t41 1.5q24 2 30.5 7t7.5 19v18.5t-1 32t-2.5 51t-2.5 75.5z" />
    <glyph glyph-name="uni3142" unicode="&#x3142;" 
d="M317 121q-28 3 -37.5 14.5t-14.5 43.5q-8 103 -15.5 183.5t-7.5 134.5q2 14 12 24t24 10q13 0 25.5 -7t13.5 -24l6 -92l245 6l1 90q0 15 11 24.5t25 9.5q17 0 27 -10.5t11 -29.5q1 -37 1.5 -70t0.5 -65t-1 -64.5t-2 -66.5q-2 -38 -14 -61.5t-47 -35.5q-12 -4 -32.5 -7
t-60.5 -5zM531 204q9 0 21 6.5t14 29.5q2 21 3 43.5t-1 55.5l-238 -5l8 -136q75 1 123 2t70 4z" />
    <glyph glyph-name="uni3143" unicode="&#x3143;" 
d="M601 521q0 15 11 24.5t24 9.5q34 0 36 -40q2 -74 3 -139t-2 -134q-2 -38 -19 -63t-40 -31q-17 -5 -42 -9t-70 -6q-27 3 -36.5 14.5t-13.5 43.5q-8 103 -16 183.5t-8 134.5q1 17 10.5 25.5t23.5 8.5q13 0 25 -7t13 -24l5 -92l97 4zM579 216q16 0 19 36q2 21 3.5 42.5
t-0.5 54.5l-89 -3l10 -136zM313 511q0 15 10.5 24.5t24.5 9.5q34 0 36 -40q1 -37 1.5 -69.5t1 -64t0 -63.5t-1.5 -66q-2 -38 -12.5 -63t-45.5 -34q-12 -3 -29.5 -5t-35.5 -3.5t-34 -1.5h-24q-27 2 -36 14t-14 44q-8 103 -16 178.5t-8 129.5q0 17 10.5 25.5t24.5 8.5
q12 0 24 -7t13 -24l6 -82l104 2zM292 216q16 0 19 36q2 21 2 42.5t-2 54.5l-97 -1l10 -136z" />
    <glyph glyph-name="uni3144" unicode="&#x3144;" 
d="M323 511q0 15 10.5 24.5t24.5 9.5q34 0 36 -40q1 -37 1.5 -69.5t1 -64t0 -63.5t-1.5 -66q-2 -38 -12.5 -63t-45.5 -34q-12 -3 -29.5 -5t-35.5 -3.5t-34 -1.5h-24q-27 2 -36 14t-14 44q-8 103 -16 178.5t-8 129.5q0 17 10.5 25.5t24.5 8.5q12 0 24 -7t13 -24l6 -82l104 2z
M302 216q16 0 19 36q2 21 2 42.5t-2 54.5l-97 -1l10 -136zM423 206q27 35 46 61t33.5 55t26.5 66.5t27 95.5q2 20 16.5 28t28.5 6q17 -1 27.5 -11.5t10.5 -33.5q-6 -61 -28 -113q22 -23 38.5 -40.5t30.5 -33t28.5 -32t31.5 -37.5q11 -17 9 -30.5t-7 -21.5q-10 -13 -29.5 -16
t-33.5 10q-22 25 -36 41.5t-25 29t-21 24.5t-25 27q-23 -43 -41.5 -69t-39.5 -52q-14 -18 -31.5 -18.5t-29.5 9.5q-10 9 -13 23.5t6 31.5z" />
    <glyph glyph-name="uni3145" unicode="&#x3145;" 
d="M419 525q11 17 27.5 20.5t28.5 -3.5q15 -8 22 -19t2 -34q-3 -5 -5.5 -11t-5.5 -12q24 -27 53 -59t57 -62.5t52.5 -56.5t40.5 -41q14 -17 12 -30.5t-6 -22.5q-8 -14 -27.5 -19.5t-34.5 5.5q-49 48 -100.5 101.5t-94.5 104.5q-38 -60 -82.5 -118t-87.5 -103
q-17 -14 -36 -9.5t-29 16.5q-8 11 -8.5 27t12.5 31q22 24 49.5 59t56 74.5t55.5 81.5t49 80z" />
    <glyph glyph-name="uni3146" unicode="&#x3146;" 
d="M510 507q5 19 21 25.5t33 -0.5q16 -6 23 -15t4 -31q-11 -47 -36 -98q25 -20 42.5 -35l31.5 -27t25 -22.5t23 -22.5q14 -16 15 -29.5t-4 -21.5q-8 -14 -27 -19.5t-34 5.5q-32 27 -58.5 51.5t-54.5 47.5q-27 -44 -57 -83t-57 -69q-17 -17 -34 -15t-28 13q-9 11 -10 25
t10 31q10 11 20.5 24t21.5 27q-17 16 -34.5 32.5t-35.5 32.5q-21 -30 -43.5 -58t-44.5 -52q-17 -17 -36 -14.5t-30 13.5q-8 11 -9.5 25.5t9.5 30.5q45 50 88.5 112t74.5 141q7 18 24.5 23t30.5 2q16 -4 24.5 -17.5t2.5 -35.5q-5 -21 -16.5 -46t-27.5 -52q22 -20 39.5 -36.5
t31.5 -30.5q26 41 47.5 84t34.5 85z" />
    <glyph glyph-name="uni3147" unicode="&#x3147;" 
d="M468 524q34 0 63 -12.5t51 -35.5t34 -54.5t12 -68.5q-1 -41 -13 -75t-35.5 -58t-57.5 -36.5t-79 -10.5q-67 0 -111.5 44t-51.5 118q-4 42 8.5 77t38 59.5t62 38.5t79.5 14zM551 351q-1 38 -19 63t-56 30q-29 4 -51 -4.5t-37 -24t-22 -35t-5 -37.5q2 -35 24 -62.5
t66 -27.5q43 2 71.5 26t28.5 72z" />
    <glyph glyph-name="uni3148" unicode="&#x3148;" 
d="M275 454q-19 2 -29 12.5t-11 23.5q-1 15 10 28.5t34 14.5q14 1 53 1h84.5t87 -1t61.5 -2q25 -2 38.5 -10t18 -20t1 -25.5t-10.5 -24.5q-18 -29 -43 -57.5t-54 -55.5q18 -13 39 -28.5t41 -30.5t38.5 -29t32.5 -24q17 -14 16 -30.5t-11 -27.5q-8 -8 -22 -12.5t-26 2.5
l-38 28.5t-45.5 34t-46 34.5t-40.5 30q-57 -45 -111 -78.5t-89 -49.5q-18 -7 -36.5 2.5t-22.5 23.5q-3 12 -0.5 26t21.5 24q40 21 82.5 47t81.5 55.5t71.5 59.5t53.5 58q-14 1 -46.5 1.5t-68.5 0.5t-68.5 -0.5t-45.5 -0.5z" />
    <glyph glyph-name="uni3149" unicode="&#x3149;" 
d="M515 241q-27 -35 -53.5 -64.5t-46.5 -52.5q-13 -13 -34 -12t-30 12q-8 11 -11 24t10 30l27 30l-65 59q-26 -32 -54 -58t-52 -46q-7 -6 -16.5 -7.5t-18.5 0t-16.5 5.5t-11.5 10q-6 11 -7.5 25t13.5 29q35 31 63.5 59.5t51 55.5t38.5 54t25 56q-31 2 -66 0.5t-62 -2.5
q-19 2 -29 12.5t-11 23.5q-1 15 10 28.5t34 14.5q14 1 36 1.5t47 0.5t49 -1t41 -3q15 -2 24 -9q11 10 30 11q14 1 34 2t42.5 1t45 -1t41.5 -4q25 -5 37.5 -21t4.5 -42q-13 -42 -32.5 -81.5t-42.5 -75.5l105 -79q18 -13 19 -29t-7 -27q-6 -10 -20 -16t-26 0zM426 448
q-7 0 -13 3q-10 -34 -23.5 -63.5t-30.5 -55.5l69 -63q36 47 65.5 93t46.5 88q-31 2 -59 0.5t-55 -2.5z" />
    <glyph glyph-name="uni314A" unicode="&#x314a;" 
d="M306 404q-19 2 -29 12.5t-11 23.5q-1 15 10 28.5t34 14.5q11 1 41 1h65l1 85q2 14 12.5 25.5t26.5 11.5q12 0 27 -9t15 -26v-88q32 0 58 -0.5t40 -1.5q25 -2 38.5 -10t18 -20t1 -25.5t-10.5 -24.5q-34 -53 -90 -103q18 -13 37.5 -28t39 -29t37 -27t30.5 -23
q17 -14 16 -30.5t-11 -27.5q-8 -8 -22 -12.5t-26 2.5l-164 123q-29 -22 -58 -41t-56 -35t-50.5 -28t-41.5 -20q-18 -7 -36.5 2.5t-22.5 23.5q-3 12 -0.5 26t21.5 24q40 21 82.5 45t81.5 50t71.5 54t53.5 56q-14 1 -46.5 1.5t-68.5 0.5t-68.5 -0.5t-45.5 -0.5z" />
    <glyph glyph-name="uni314B" unicode="&#x314b;" 
d="M274 483q-19 0 -29 11.5t-10 24.5q0 14 8 27.5t34 14.5q158 4 299 0q20 0 38 -3t31 -11t20.5 -22.5t7.5 -38.5q0 -14 -0.5 -53t-2 -86.5t-4 -95.5t-5.5 -81q-2 -20 -12 -31t-30 -11q-14 0 -26.5 11.5t-10.5 28.5q2 25 3.5 50.5t2.5 53.5l-332 -3q-19 0 -29 11.5t-10 24.5
q0 14 8 27.5t34 14.5q21 1 64 1.5t92.5 0.5h97h78.5q1 26 1 53v56q0 8 -2 15.5t-22 9.5q-32 2 -64 2.5t-66.5 0t-74.5 -1t-89 -1.5z" />
    <glyph glyph-name="uni314C" unicode="&#x314c;" 
d="M616 156q-70 -2 -144 -4t-159 0q-31 3 -44 19.5t-14 47.5q-1 30 -2 65.5t-2.5 72.5t-3 73t-2.5 65q-1 21 11.5 35.5t36.5 15.5l310 5q20 1 29 -11t9 -24q1 -26 -10 -35t-24 -9l-281 -4q1 -18 2 -40t1 -46l273 2q20 1 29 -11t9 -24q1 -26 -10 -35t-24 -9l-276 -2l3 -74h32
t49.5 0.5t58 0.5t58.5 0.5t50 1t33 1.5q17 -1 23.5 -11t6.5 -27q0 -18 -8.5 -28t-19.5 -11z" />
    <glyph glyph-name="uni314D" unicode="&#x314d;" 
d="M278 147q-20 -2 -30.5 10t-12.5 27q-1 14 7 27t27 15q10 0 20.5 0.5t21.5 0.5q-3 28 -6.5 59t-6.5 61t-6 56.5t-4 43.5h-42q-20 2 -30 13.5t-10 25.5q0 15 11 27t33 13q44 1 94.5 2t103 2.5t104 3.5t96.5 4q18 0 26 -12t8 -27q0 -14 -6 -25t-28 -12l-42 -2q0 -20 0.5 -48
t1.5 -58.5t2 -61.5t1 -57q5 0 8.5 0.5t8.5 0.5q22 1 33.5 -11t12.5 -27q1 -14 -8 -26.5t-29 -14.5q-37 -2 -83.5 -3t-95.5 -2t-96 -2.5t-84 -2.5zM527 457q-38 -2 -78.5 -3.5t-81.5 -3.5q2 -18 4.5 -44.5t5.5 -56.5t6.5 -61.5l6.5 -58.5l141 4q0 27 -1 58t-1.5 61t-1 57.5
t-0.5 47.5z" />
    <glyph glyph-name="uni314E" unicode="&#x314e;" 
d="M474 401q30 0 55.5 -9.5t45 -28t30 -44.5t10.5 -59q-2 -73 -42.5 -112t-120.5 -37q-60 0 -99 34t-45 99q-4 37 7 66t33.5 49.5t55 31t70.5 10.5zM294 438q-20 3 -29.5 15t-8.5 26q1 15 12.5 26.5t33.5 11.5q32 -1 59 -1h55l3 73q2 14 12.5 25.5t26.5 11.5q12 0 27 -9
t15 -26l-2 -75q29 0 58.5 0.5t63.5 1.5q18 -1 25.5 -13.5t6.5 -27.5q-1 -14 -7 -25.5t-28 -10.5q-29 0 -66.5 -1t-80 -1.5t-87.5 -1t-89 0.5zM539 258q-1 31 -15.5 46t-44.5 19q-23 3 -41 -2t-29.5 -15.5t-17.5 -24.5t-5 -29q2 -29 20 -45.5t53 -16.5q35 2 57.5 16t22.5 52z
" />
    <glyph glyph-name="uni314F" unicode="&#x314f;" 
d="M413 532q2 14 12.5 25.5t26.5 11.5q12 0 27 -9t15 -26v-52t-1 -75h113q18 0 26 -14.5t8 -28.5q0 -15 -10.5 -27t-26.5 -12h-112l-5 -155q-1 -23 -13 -32.5t-25 -9.5q-14 0 -29 9.5t-14 29.5z" />
    <glyph glyph-name="uni3150" unicode="&#x3150;" 
d="M535 529q2 14 12.5 25.5t26.5 11.5q12 0 27 -9t15 -26q0 -43 -1.5 -135t-6.5 -229q-1 -23 -13 -32.5t-25 -9.5q-14 0 -29 9.5t-14 29.5l3 158h-139l-5 -155q-1 -23 -13 -32.5t-25 -9.5q-14 0 -29 9.5t-14 29.5l8 365q2 14 12.5 25.5t26.5 11.5q12 0 27 -9t15 -26v-52
t-1 -75h139z" />
    <glyph glyph-name="uni3151" unicode="&#x3151;" 
d="M403 545q2 14 12.5 25.5t26.5 11.5q12 0 27 -9t15 -26v-34.5t-1 -46.5l127 7q21 1 31 -11t10 -27q0 -30 -34 -36l-135 -7q0 -21 -0.5 -44t-1.5 -48h136q18 0 26 -14.5t8 -28.5q0 -15 -10.5 -27t-26.5 -12h-135q-1 -14 -1.5 -27.5t-0.5 -27.5q-1 -23 -13 -32.5t-25 -9.5
q-14 0 -29 9.5t-14 29.5z" />
    <glyph glyph-name="uni3152" unicode="&#x3152;" 
d="M534 540q2 14 12.5 25.5t26.5 11.5q12 0 27 -9t15 -26q0 -21 -0.5 -58.5t-1 -87t-2 -110t-4.5 -128.5q-1 -23 -13 -32.5t-25 -9.5q-14 0 -29 9.5t-14 29.5l1 61l-160 -9q-1 -12 -1.5 -24t-0.5 -25q-1 -23 -13 -32.5t-25 -9.5q-14 0 -29 9.5t-14 29.5l8 385
q2 14 12.5 25.5t26.5 11.5q12 0 27 -9t15 -26v-33t-1 -43h160zM529 296l2 88h-160q0 -22 -0.5 -45.5t-1.5 -49.5z" />
    <glyph glyph-name="uni3153" unicode="&#x3153;" 
d="M293 317q-21 3 -30.5 15.5t-9.5 26.5q0 13 9.5 26.5t33.5 13.5h159v155q0 15 10 25.5t29 11.5q17 1 29.5 -8.5t12.5 -26.5q0 -21 0.5 -64.5t0.5 -98v-114t-1 -113.5q-1 -23 -13 -32.5t-25 -9.5q-14 0 -29 9.5t-14 29.5v154h-162z" />
    <glyph glyph-name="uni3154" unicode="&#x3154;" 
d="M247 317q-21 3 -30.5 15.5t-9.5 26.5q0 13 9.5 26.5t33.5 13.5h153l3 141q2 14 12.5 25.5t26.5 11.5q12 0 27 -9t15 -26q0 -43 -1.5 -135t-6.5 -229q-1 -23 -13 -32.5t-25 -9.5q-14 0 -29 9.5t-14 29.5l3 142h-154zM603 540q2 14 12.5 25.5t26.5 11.5q12 0 27 -9t15 -26
q0 -43 -1.5 -135t-6.5 -229q-1 -23 -13 -32.5t-25 -9.5q-14 0 -29 9.5t-14 29.5z" />
    <glyph glyph-name="uni3155" unicode="&#x3155;" 
d="M494 202l-170 -8q-22 2 -31.5 14t-10.5 26q-1 13 8.5 26.5t33.5 15.5l170 8v98h-172q-21 3 -30.5 15.5t-9.5 26.5q0 13 9.5 26.5t33.5 13.5h169v72q0 15 10 25.5t29 11.5q17 1 29.5 -8.5t12.5 -26.5q0 -21 0.5 -64.5t0.5 -98v-114t-1 -113.5q-1 -23 -13 -32.5t-25 -9.5
q-14 0 -29 9.5t-14 29.5v57z" />
    <glyph glyph-name="uni3156" unicode="&#x3156;" 
d="M228 215q-21 3 -30.5 15.5t-9.5 26.5q0 13 9.5 26.5t33.5 13.5h171l1 58h-175q-21 3 -30.5 15.5t-9.5 26.5q0 13 9.5 26.5t33.5 13.5h174l2 93q2 14 12.5 25.5t26.5 11.5q12 0 27 -9t15 -26q0 -43 -1.5 -135t-6.5 -229q-1 -23 -13 -32.5t-25 -9.5q-14 0 -29 9.5t-14 29.5
l1 50h-172zM593 530q2 14 12.5 25.5t26.5 11.5q12 0 27 -9t15 -26q0 -43 -1.5 -135t-6.5 -229q-1 -23 -13 -32.5t-25 -9.5q-14 0 -29 9.5t-14 29.5z" />
    <glyph glyph-name="uni3157" unicode="&#x3157;" 
d="M193 176q-21 2 -30.5 14.5t-9.5 26.5q0 12 10 25t33 15q58 -2 106 -2.5t93 -0.5l1 159q0 17 15 27t30 10q13 0 27 -7t14 -27l-2 -162q51 1 104.5 2t118.5 3q19 1 27.5 -12.5t6.5 -32.5q-2 -20 -11.5 -26t-25.5 -8q-18 -1 -52.5 -2t-78 -1.5t-93.5 -1.5t-100.5 -1
t-97.5 0.5t-85 1.5z" />
    <glyph glyph-name="uni3158" unicode="&#x3158;" 
d="M112 97q-21 2 -30.5 14.5t-9.5 26.5q0 12 10 25t33 15q38 -2 76 -2t82 1l1 156q0 17 15 27t30 10q13 0 27 -7t14 -27l-2 -157l174 4q19 1 27.5 -12.5t6.5 -32.5q-2 -20 -11.5 -26t-25.5 -8q-27 -1 -74.5 -3t-104.5 -3.5t-119 -2t-119 1.5zM717 306l-5 -155
q-1 -23 -13 -32.5t-25 -9.5q-14 0 -29 9.5t-14 29.5l8 365q2 14 12.5 25.5t26.5 11.5q12 0 27 -9t15 -26v-52t-1 -75h113q18 0 26 -14.5t8 -28.5q0 -15 -10.5 -27t-26.5 -12h-112z" />
    <glyph glyph-name="uni3159" unicode="&#x3159;" 
d="M719 475q0 17 10.5 27t26.5 10q12 0 27 -9t15 -26q0 -21 0.5 -62t0.5 -87.5v-90.5t-1 -71q-1 -23 -12.5 -34t-24.5 -11q-14 0 -29 9.5t-14 29.5v136h-93v-71.5t-1 -55.5q-1 -23 -12.5 -34t-24.5 -11q-14 0 -29 9.5t-14 29.5l3 325q0 16 10.5 26.5t26.5 10.5q17 0 29.5 -9
t12.5 -26v-112h92zM121 97q-21 2 -30.5 14.5t-9.5 26.5q0 12 10 25t33 15q18 -1 32.5 -1.5t27.5 -0.5t27 0.5t32 0.5l1 146q0 17 15 27t30 10q13 0 27 -7t14 -27l-2 -147l134 4q19 1 27.5 -12.5t6.5 -32.5q-2 -20 -11.5 -26t-25.5 -8q-55 -2 -139.5 -6.5t-198.5 -0.5z" />
    <glyph glyph-name="uni315A" unicode="&#x315a;" 
d="M142 97q-21 2 -30.5 14.5t-9.5 26.5q0 12 10 25t33 15q38 -2 76 -2t82 1l1 156q0 17 15 27t30 10q13 0 27 -7t14 -27l-2 -157l174 4q19 1 27.5 -12.5t6.5 -32.5q-2 -20 -11.5 -26t-25.5 -8q-27 -1 -74.5 -3t-104.5 -3.5t-119 -2t-119 1.5zM742 151q-1 -23 -13 -32.5
t-25 -9.5q-14 0 -29 9.5t-14 29.5l8 365q2 14 12.5 25.5t26.5 11.5q12 0 27 -9t15 -26z" />
    <glyph glyph-name="uni315B" unicode="&#x315b;" 
d="M182 196q-21 2 -30.5 14.5t-9.5 26.5q0 12 10 25t33 15l90 -3l1 122q0 17 15 27t30 10q13 0 27 -7t14 -27l-2 -125h73.5t70.5 1l1 121q0 17 15 27t30 10q13 0 27 -7t14 -27l-2 -123l103 3q19 1 27.5 -12.5t6.5 -32.5q-2 -20 -11.5 -26t-25.5 -8q-18 -1 -52.5 -2t-78 -1.5
t-93.5 -1.5t-100.5 -1t-97.5 0.5t-85 1.5z" />
    <glyph glyph-name="uni315C" unicode="&#x315c;" 
d="M194 305q-21 2 -30.5 14.5t-9.5 26.5q0 12 10 25t33 15q78 -2 140 -2.5t119.5 0t116.5 1.5t131 3q19 1 27.5 -12.5t6.5 -32.5q-2 -20 -11.5 -26t-25.5 -8q-26 -2 -82.5 -3t-125.5 -2l-2 -178q0 -23 -13.5 -33t-24.5 -10q-14 0 -28 9.5t-14 30.5l1 180q-60 -1 -116.5 -0.5
t-101.5 2.5z" />
    <glyph glyph-name="uni315D" unicode="&#x315d;" 
d="M160 319q-21 2 -30.5 14.5t-9.5 26.5q0 12 10 25t33 15q42 -2 86 -1.5t93.5 1t107.5 2t130 3.5q19 1 27.5 -12.5t6.5 -32.5q-2 -20 -11.5 -26t-25.5 -8q-31 -2 -85 -4t-120 -4l-2 -202q0 -23 -13.5 -33t-24.5 -10q-14 0 -28.5 9t-13.5 31l1 204h-67t-64 2zM514 172
q-17 3 -26 17.5t-9 30.5q0 29 38 35h32.5t41 0.5t43.5 0.5h40l5 251q2 17 13 27t27 10q19 0 30.5 -9t11.5 -26q0 -21 -0.5 -58.5t-1 -87t-2 -110.5t-4.5 -129q-1 -23 -13 -32.5t-25 -9.5q-14 0 -29 9.5t-14 29.5v53z" />
    <glyph glyph-name="uni315E" unicode="&#x315e;" 
d="M93 287q-21 2 -30.5 14.5t-9.5 26.5q0 12 10 25t33 15q42 -2 76.5 -1.5t73 1t87 2t120.5 3.5q19 1 27.5 -12.5t6.5 -32.5q-2 -20 -11.5 -26t-25.5 -8q-15 -1 -28.5 -2t-29.5 -1.5t-37 -1.5t-50 -2l-2 -173q0 -23 -13.5 -33t-24.5 -10q-14 0 -28.5 9t-13.5 31l1 174h-66
t-65 2zM387 147q-17 3 -26 17.5t-9 30.5q0 29 38 35h32.5t41 0.5t43.5 0.5h40l5 284q2 17 13 27t27 10q19 0 30.5 -9t11.5 -26q0 -21 -0.5 -60t-1 -90.5t-2 -114t-4.5 -130.5q-1 -23 -13 -32.5t-25 -9.5q-14 0 -29 9.5t-14 29.5v30zM721 511q2 17 13 27t27 10q19 0 30.5 -9
t11.5 -26q0 -21 -0.5 -60t-1 -90.5t-2 -114t-4.5 -130.5q-1 -23 -13 -32.5t-25 -9.5q-14 0 -29 9.5t-14 29.5z" />
    <glyph glyph-name="uni315F" unicode="&#x315f;" 
d="M160 289q-21 2 -30.5 14.5t-9.5 26.5q0 12 10 25t33 15q42 -2 86 -1.5t93.5 1t107.5 2t130 3.5q19 1 27.5 -12.5t6.5 -32.5q-2 -20 -11.5 -26t-25.5 -8q-31 -2 -85 -4t-120 -4l-2 -172q0 -23 -13.5 -33t-24.5 -10q-14 0 -28.5 9t-13.5 31l1 174h-67t-64 2zM679 507
q2 17 13 27t27 10q19 0 30.5 -9t11.5 -26q0 -21 -0.5 -58.5t-1 -87t-2 -110.5t-4.5 -129q-1 -23 -13 -32.5t-25 -9.5q-14 0 -29 9.5t-14 29.5z" />
    <glyph glyph-name="uni3160" unicode="&#x3160;" 
d="M202 346q-21 2 -30.5 14.5t-9.5 26.5q0 12 10 25t33 15q78 -2 140 -2.5t119.5 0t116.5 1.5t131 3q19 1 27.5 -12.5t6.5 -32.5q-2 -20 -11.5 -26t-25.5 -8l-88 -3l-2 -180q0 -23 -13.5 -33t-24.5 -10q-14 0 -28 9.5t-14 30.5l1 181q-41 -1 -84 -1h-86l-1 -177
q0 -23 -13.5 -33t-24.5 -10q-14 0 -28 9.5t-14 30.5l1 180q-24 0 -46 0.5t-42 1.5z" />
    <glyph glyph-name="uni3161" unicode="&#x3161;" 
d="M202 296q-21 2 -30.5 14.5t-9.5 26.5q0 12 10 25t33 15q78 -2 140 -2.5t119.5 0t116.5 1.5t131 3q19 1 27.5 -12.5t6.5 -32.5q-2 -20 -11.5 -26t-25.5 -8q-18 -1 -52.5 -2t-78 -1.5t-93.5 -1.5t-100.5 -1t-97.5 0.5t-85 1.5z" />
    <glyph glyph-name="uni3162" unicode="&#x3162;" 
d="M170 130q-21 2 -30.5 14.5t-9.5 26.5q0 12 10 25t33 15q42 -2 79.5 -2h79.5t94 1t124 3q19 1 27.5 -12.5t6.5 -32.5q-2 -20 -11.5 -26t-25.5 -8q-27 -1 -68.5 -2.5t-91 -2.5t-105 -1t-112.5 2zM677 523q2 14 12.5 25.5t26.5 11.5q12 0 27 -9t15 -26q0 -43 -1.5 -135
t-6.5 -229q-1 -23 -13 -32.5t-25 -9.5q-14 0 -29 9.5t-14 29.5z" />
    <glyph glyph-name="uni3163" unicode="&#x3163;" 
d="M425 556q0 15 10 25.5t29 11.5q17 1 29.5 -8.5t12.5 -26.5q0 -21 0.5 -64.5t0.5 -98v-114t-1 -113.5q-1 -23 -13 -32.5t-25 -9.5q-14 0 -29 9.5t-14 29.5v391z" />
    <glyph glyph-name="cid409" unicode="&#x3165;" 
 />
    <glyph glyph-name="cid410" unicode="&#x3166;" 
 />
    <glyph glyph-name="cid411" unicode="&#x3167;" 
 />
    <glyph glyph-name="cid412" unicode="&#x3168;" 
 />
    <glyph glyph-name="cid413" unicode="&#x3169;" 
 />
    <glyph glyph-name="cid414" unicode="&#x316a;" 
 />
    <glyph glyph-name="cid415" unicode="&#x316b;" 
 />
    <glyph glyph-name="cid416" unicode="&#x316c;" 
 />
    <glyph glyph-name="cid417" unicode="&#x316d;" 
 />
    <glyph glyph-name="cid418" unicode="&#x316e;" 
 />
    <glyph glyph-name="cid419" unicode="&#x316f;" 
 />
    <glyph glyph-name="cid420" unicode="&#x3170;" 
 />
    <glyph glyph-name="cid421" unicode="&#x3171;" 
 />
    <glyph glyph-name="cid422" unicode="&#x3172;" 
 />
    <glyph glyph-name="cid423" unicode="&#x3173;" 
 />
    <glyph glyph-name="cid424" unicode="&#x3174;" 
 />
    <glyph glyph-name="cid425" unicode="&#x3175;" 
 />
    <glyph glyph-name="cid426" unicode="&#x3176;" 
 />
    <glyph glyph-name="cid427" unicode="&#x3177;" 
 />
    <glyph glyph-name="cid428" unicode="&#x3178;" 
 />
    <glyph glyph-name="cid429" unicode="&#x3179;" 
 />
    <glyph glyph-name="cid430" unicode="&#x317a;" 
 />
    <glyph glyph-name="cid431" unicode="&#x317b;" 
 />
    <glyph glyph-name="cid432" unicode="&#x317c;" 
 />
    <glyph glyph-name="cid433" unicode="&#x317d;" 
 />
    <glyph glyph-name="cid434" unicode="&#x317e;" 
 />
    <glyph glyph-name="cid435" unicode="&#x317f;" 
 />
    <glyph glyph-name="cid436" unicode="&#x3180;" 
 />
    <glyph glyph-name="cid437" unicode="&#x3181;" 
 />
    <glyph glyph-name="cid438" unicode="&#x3182;" 
 />
    <glyph glyph-name="cid439" unicode="&#x3183;" 
 />
    <glyph glyph-name="cid440" unicode="&#x3184;" 
 />
    <glyph glyph-name="cid441" unicode="&#x3185;" 
 />
    <glyph glyph-name="cid442" unicode="&#x3186;" 
 />
    <glyph glyph-name="cid443" unicode="&#x3187;" 
 />
    <glyph glyph-name="cid444" unicode="&#x3188;" 
 />
    <glyph glyph-name="cid445" unicode="&#x3189;" 
 />
    <glyph glyph-name="cid446" unicode="&#x318a;" 
 />
    <glyph glyph-name="cid447" unicode="&#x318b;" 
 />
    <glyph glyph-name="cid448" unicode="&#x318c;" 
 />
    <glyph glyph-name="cid449" unicode="&#x318d;" 
 />
    <glyph glyph-name="cid450" unicode="&#x318e;" 
 />
    <glyph glyph-name="cid773" unicode="&#x3200;" 
 />
    <glyph glyph-name="cid774" unicode="&#x3201;" 
 />
    <glyph glyph-name="cid775" unicode="&#x3202;" 
 />
    <glyph glyph-name="cid776" unicode="&#x3203;" 
 />
    <glyph glyph-name="cid777" unicode="&#x3204;" 
 />
    <glyph glyph-name="cid778" unicode="&#x3205;" 
 />
    <glyph glyph-name="cid779" unicode="&#x3206;" 
 />
    <glyph glyph-name="cid780" unicode="&#x3207;" 
 />
    <glyph glyph-name="cid781" unicode="&#x3208;" 
 />
    <glyph glyph-name="cid782" unicode="&#x3209;" 
 />
    <glyph glyph-name="cid783" unicode="&#x320a;" 
 />
    <glyph glyph-name="cid784" unicode="&#x320b;" 
 />
    <glyph glyph-name="cid785" unicode="&#x320c;" 
 />
    <glyph glyph-name="cid786" unicode="&#x320d;" 
 />
    <glyph glyph-name="cid787" unicode="&#x320e;" 
 />
    <glyph glyph-name="cid788" unicode="&#x320f;" 
 />
    <glyph glyph-name="cid789" unicode="&#x3210;" 
 />
    <glyph glyph-name="cid790" unicode="&#x3211;" 
 />
    <glyph glyph-name="cid791" unicode="&#x3212;" 
 />
    <glyph glyph-name="cid792" unicode="&#x3213;" 
 />
    <glyph glyph-name="cid793" unicode="&#x3214;" 
 />
    <glyph glyph-name="cid794" unicode="&#x3215;" 
 />
    <glyph glyph-name="cid795" unicode="&#x3216;" 
 />
    <glyph glyph-name="cid796" unicode="&#x3217;" 
 />
    <glyph glyph-name="cid797" unicode="&#x3218;" 
 />
    <glyph glyph-name="cid798" unicode="&#x3219;" 
 />
    <glyph glyph-name="cid799" unicode="&#x321a;" 
 />
    <glyph glyph-name="cid800" unicode="&#x321b;" 
 />
    <glyph glyph-name="cid257" unicode="&#x321c;" 
 />
    <glyph glyph-name="cid8788" unicode="&#x3231;" 
 />
    <glyph glyph-name="cid8789" unicode="&#x3239;" 
 />
    <glyph glyph-name="cid8796" unicode="&#x3251;" 
 />
    <glyph glyph-name="cid8797" unicode="&#x3252;" 
 />
    <glyph glyph-name="cid8798" unicode="&#x3253;" 
 />
    <glyph glyph-name="cid8799" unicode="&#x3254;" 
 />
    <glyph glyph-name="cid8800" unicode="&#x3255;" 
 />
    <glyph glyph-name="cid8801" unicode="&#x3256;" 
 />
    <glyph glyph-name="cid8802" unicode="&#x3257;" 
 />
    <glyph glyph-name="cid8803" unicode="&#x3258;" 
 />
    <glyph glyph-name="cid8804" unicode="&#x3259;" 
 />
    <glyph glyph-name="cid8805" unicode="&#x325a;" 
 />
    <glyph glyph-name="cid679" unicode="&#x3260;" 
 />
    <glyph glyph-name="cid680" unicode="&#x3261;" 
 />
    <glyph glyph-name="cid681" unicode="&#x3262;" 
 />
    <glyph glyph-name="cid682" unicode="&#x3263;" 
 />
    <glyph glyph-name="cid683" unicode="&#x3264;" 
 />
    <glyph glyph-name="cid684" unicode="&#x3265;" 
 />
    <glyph glyph-name="cid685" unicode="&#x3266;" 
 />
    <glyph glyph-name="cid686" unicode="&#x3267;" 
 />
    <glyph glyph-name="cid687" unicode="&#x3268;" 
 />
    <glyph glyph-name="cid688" unicode="&#x3269;" 
 />
    <glyph glyph-name="cid689" unicode="&#x326a;" 
 />
    <glyph glyph-name="cid690" unicode="&#x326b;" 
 />
    <glyph glyph-name="cid691" unicode="&#x326c;" 
 />
    <glyph glyph-name="cid692" unicode="&#x326d;" 
 />
    <glyph glyph-name="cid693" unicode="&#x326e;" 
 />
    <glyph glyph-name="cid694" unicode="&#x326f;" 
 />
    <glyph glyph-name="cid695" unicode="&#x3270;" 
 />
    <glyph glyph-name="cid696" unicode="&#x3271;" 
 />
    <glyph glyph-name="cid697" unicode="&#x3272;" 
 />
    <glyph glyph-name="cid698" unicode="&#x3273;" 
 />
    <glyph glyph-name="cid699" unicode="&#x3274;" 
 />
    <glyph glyph-name="cid700" unicode="&#x3275;" 
 />
    <glyph glyph-name="cid701" unicode="&#x3276;" 
 />
    <glyph glyph-name="cid702" unicode="&#x3277;" 
 />
    <glyph glyph-name="cid703" unicode="&#x3278;" 
 />
    <glyph glyph-name="cid704" unicode="&#x3279;" 
 />
    <glyph glyph-name="cid705" unicode="&#x327a;" 
 />
    <glyph glyph-name="cid706" unicode="&#x327b;" 
 />
    <glyph glyph-name="cid256" unicode="&#x327f;" 
 />
    <glyph glyph-name="cid9301" unicode="&#x328a;" 
 />
    <glyph glyph-name="cid9302" unicode="&#x328b;" 
 />
    <glyph glyph-name="cid9303" unicode="&#x328c;" 
 />
    <glyph glyph-name="cid9304" unicode="&#x328d;" 
 />
    <glyph glyph-name="cid9305" unicode="&#x328e;" 
 />
    <glyph glyph-name="cid9306" unicode="&#x328f;" 
 />
    <glyph glyph-name="cid9300" unicode="&#x3290;" 
 />
    <glyph glyph-name="cid9080" unicode="&#x3294;" 
 />
    <glyph glyph-name="cid8761" unicode="&#x329e;" 
 />
    <glyph glyph-name="cid9096" unicode="&#x32a5;" 
 />
    <glyph glyph-name="cid627" unicode="&#x3380;" 
 />
    <glyph glyph-name="cid628" unicode="&#x3381;" 
 />
    <glyph glyph-name="cid629" unicode="&#x3382;" 
 />
    <glyph glyph-name="cid630" unicode="&#x3383;" 
 />
    <glyph glyph-name="cid631" unicode="&#x3384;" 
 />
    <glyph glyph-name="cid612" unicode="&#x3388;" 
 />
    <glyph glyph-name="cid613" unicode="&#x3389;" 
 />
    <glyph glyph-name="cid646" unicode="&#x338a;" 
 />
    <glyph glyph-name="cid647" unicode="&#x338b;" 
 />
    <glyph glyph-name="cid648" unicode="&#x338c;" 
 />
    <glyph glyph-name="cid608" unicode="&#x338d;" 
 />
    <glyph glyph-name="cid609" unicode="&#x338e;" 
 />
    <glyph glyph-name="cid610" unicode="&#x338f;" 
 />
    <glyph glyph-name="cid638" unicode="&#x3390;" 
 />
    <glyph glyph-name="cid639" unicode="&#x3391;" 
 />
    <glyph glyph-name="cid640" unicode="&#x3392;" 
 />
    <glyph glyph-name="cid641" unicode="&#x3393;" 
 />
    <glyph glyph-name="cid642" unicode="&#x3394;" 
 />
    <glyph glyph-name="cid587" unicode="&#x3395;" 
 />
    <glyph glyph-name="cid588" unicode="&#x3396;" 
 />
    <glyph glyph-name="cid589" unicode="&#x3397;" 
 />
    <glyph glyph-name="cid591" unicode="&#x3398;" 
 />
    <glyph glyph-name="cid597" unicode="&#x3399;" 
 />
    <glyph glyph-name="cid598" unicode="&#x339a;" 
 />
    <glyph glyph-name="cid599" unicode="&#x339b;" 
 />
    <glyph glyph-name="cid600" unicode="&#x339c;" 
 />
    <glyph glyph-name="cid601" unicode="&#x339d;" 
 />
    <glyph glyph-name="cid602" unicode="&#x339e;" 
 />
    <glyph glyph-name="cid603" unicode="&#x339f;" 
 />
    <glyph glyph-name="cid604" unicode="&#x33a0;" 
 />
    <glyph glyph-name="cid605" unicode="&#x33a1;" 
 />
    <glyph glyph-name="cid606" unicode="&#x33a2;" 
 />
    <glyph glyph-name="cid593" unicode="&#x33a3;" 
 />
    <glyph glyph-name="cid594" unicode="&#x33a4;" 
 />
    <glyph glyph-name="cid595" unicode="&#x33a5;" 
 />
    <glyph glyph-name="cid596" unicode="&#x33a6;" 
 />
    <glyph glyph-name="cid615" unicode="&#x33a7;" 
 />
    <glyph glyph-name="cid616" unicode="&#x33a8;" 
 />
    <glyph glyph-name="cid655" unicode="&#x33a9;" 
 />
    <glyph glyph-name="cid656" unicode="&#x33aa;" 
 />
    <glyph glyph-name="cid657" unicode="&#x33ab;" 
 />
    <glyph glyph-name="cid658" unicode="&#x33ac;" 
 />
    <glyph glyph-name="cid651" unicode="&#x33ad;" 
 />
    <glyph glyph-name="cid652" unicode="&#x33ae;" 
 />
    <glyph glyph-name="cid653" unicode="&#x33af;" 
 />
    <glyph glyph-name="cid617" unicode="&#x33b0;" 
 />
    <glyph glyph-name="cid618" unicode="&#x33b1;" 
 />
    <glyph glyph-name="cid619" unicode="&#x33b2;" 
 />
    <glyph glyph-name="cid620" unicode="&#x33b3;" 
 />
    <glyph glyph-name="cid621" unicode="&#x33b4;" 
 />
    <glyph glyph-name="cid622" unicode="&#x33b5;" 
 />
    <glyph glyph-name="cid623" unicode="&#x33b6;" 
 />
    <glyph glyph-name="cid624" unicode="&#x33b7;" 
 />
    <glyph glyph-name="cid625" unicode="&#x33b8;" 
 />
    <glyph glyph-name="cid626" unicode="&#x33b9;" 
 />
    <glyph glyph-name="cid632" unicode="&#x33ba;" 
 />
    <glyph glyph-name="cid633" unicode="&#x33bb;" 
 />
    <glyph glyph-name="cid634" unicode="&#x33bc;" 
 />
    <glyph glyph-name="cid635" unicode="&#x33bd;" 
 />
    <glyph glyph-name="cid636" unicode="&#x33be;" 
 />
    <glyph glyph-name="cid637" unicode="&#x33bf;" 
 />
    <glyph glyph-name="cid644" unicode="&#x33c0;" 
 />
    <glyph glyph-name="cid645" unicode="&#x33c1;" 
 />
    <glyph glyph-name="cid261" unicode="&#x33c2;" 
 />
    <glyph glyph-name="cid662" unicode="&#x33c3;" 
 />
    <glyph glyph-name="cid592" unicode="&#x33c4;" 
 />
    <glyph glyph-name="cid650" unicode="&#x33c5;" 
 />
    <glyph glyph-name="cid665" unicode="&#x33c6;" 
 />
    <glyph glyph-name="cid259" unicode="&#x33c7;" 
 />
    <glyph glyph-name="cid614" unicode="&#x33c8;" 
 />
    <glyph glyph-name="cid663" unicode="&#x33c9;" 
 />
    <glyph glyph-name="cid607" unicode="&#x33ca;" 
 />
    <glyph glyph-name="cid8790" unicode="&#x33cb;" 
 />
    <glyph glyph-name="cid611" unicode="&#x33cf;" 
 />
    <glyph glyph-name="cid660" unicode="&#x33d0;" 
 />
    <glyph glyph-name="cid661" unicode="&#x33d3;" 
 />
    <glyph glyph-name="cid649" unicode="&#x33d6;" 
 />
    <glyph glyph-name="cid262" unicode="&#x33d8;" 
 />
    <glyph glyph-name="cid654" unicode="&#x33db;" 
 />
    <glyph glyph-name="cid664" unicode="&#x33dc;" 
 />
    <glyph glyph-name="cid659" unicode="&#x33dd;" 
 />
    <glyph glyph-name="cid6704" unicode="&#x4e01;" 
 />
    <glyph glyph-name="cid7364" unicode="&#x4e03;" 
 />
    <glyph glyph-name="cid4670" unicode="&#x4e07;" 
 />
    <glyph glyph-name="cid6534" unicode="&#x4e08;" 
 />
    <glyph glyph-name="cid5320" unicode="&#x4e09;" 
 />
    <glyph glyph-name="cid5331" unicode="&#x4e0a;" 
 />
    <glyph glyph-name="cid7616" unicode="&#x4e0b;" 
 />
    <glyph glyph-name="cid5109" unicode="&#x4e0d;" 
 />
    <glyph glyph-name="cid5109" unicode="&#xf967;" 
 />
    <glyph glyph-name="cid7288" unicode="&#x4e11;" 
 />
    <glyph glyph-name="cid7041" unicode="&#x4e14;" 
 />
    <glyph glyph-name="cid5181" unicode="&#x4e15;" 
 />
    <glyph glyph-name="cid5492" unicode="&#x4e16;" 
 />
    <glyph glyph-name="cid3893" unicode="&#x4e18;" 
 />
    <glyph glyph-name="cid5041" unicode="&#x4e19;" 
 />
    <glyph glyph-name="cid5682" unicode="&#x4e1e;" 
 />
    <glyph glyph-name="cid6922" unicode="&#x4e2d;" 
 />
    <glyph glyph-name="cid3802" unicode="&#x4e32;" 
 />
    <glyph glyph-name="cid3802" unicode="&#xf905;" 
 />
    <glyph glyph-name="cid7882" unicode="&#x4e38;" 
 />
    <glyph glyph-name="cid4192" unicode="&#x4e39;" 
 />
    <glyph glyph-name="cid4192" unicode="&#xf95e;" 
 />
    <glyph glyph-name="cid6860" unicode="&#x4e3b;" 
 />
    <glyph glyph-name="cid6029" unicode="&#x4e42;" 
 />
    <glyph glyph-name="cid4154" unicode="&#x4e43;" 
 />
    <glyph glyph-name="cid3894" unicode="&#x4e45;" 
 />
    <glyph glyph-name="cid6942" unicode="&#x4e4b;" 
 />
    <glyph glyph-name="cid5241" unicode="&#x4e4d;" 
 />
    <glyph glyph-name="cid7800" unicode="&#x4e4e;" 
 />
    <glyph glyph-name="cid7614" unicode="&#x4e4f;" 
 />
    <glyph glyph-name="cid3855" unicode="&#x4e56;" 
 />
    <glyph glyph-name="cid5683" unicode="&#x4e58;" 
 />
    <glyph glyph-name="cid3895" unicode="&#x4e5d;" 
 />
    <glyph glyph-name="cid3613" unicode="&#x4e5e;" 
 />
    <glyph glyph-name="cid5862" unicode="&#x4e5f;" 
 />
    <glyph glyph-name="cid3500" unicode="&#x4e6b;" 
 />
    <glyph glyph-name="cid4329" unicode="&#x4e6d;" 
 />
    <glyph glyph-name="cid6309" unicode="&#x4e73;" 
 />
    <glyph glyph-name="cid5092" unicode="&#x4e76;" 
 />
    <glyph glyph-name="cid5315" unicode="&#x4e77;" 
 />
    <glyph glyph-name="cid3601" unicode="&#x4e7e;" 
 />
    <glyph glyph-name="cid4389" unicode="&#x4e82;" 
 />
    <glyph glyph-name="cid4389" unicode="&#xf91b;" 
 />
    <glyph glyph-name="cid4551" unicode="&#x4e86;" 
 />
    <glyph glyph-name="cid4551" unicode="&#xf9ba;" 
 />
    <glyph glyph-name="cid5934" unicode="&#x4e88;" 
 />
    <glyph glyph-name="cid5242" unicode="&#x4e8b;" 
 />
    <glyph glyph-name="cid6197" unicode="&#x4e8e;" 
 />
    <glyph glyph-name="cid6252" unicode="&#x4e90;" 
 />
    <glyph glyph-name="cid6238" unicode="&#x4e91;" 
 />
    <glyph glyph-name="cid7801" unicode="&#x4e92;" 
 />
    <glyph glyph-name="cid6049" unicode="&#x4e94;" 
 />
    <glyph glyph-name="cid6705" unicode="&#x4e95;" 
 />
    <glyph glyph-name="cid4058" unicode="&#x4e98;" 
 />
    <glyph glyph-name="cid5243" unicode="&#x4e9b;" 
 />
    <glyph glyph-name="cid5775" unicode="&#x4e9e;" 
 />
    <glyph glyph-name="cid4696" unicode="&#x4ea1;" 
 />
    <glyph glyph-name="cid7670" unicode="&#x4ea2;" 
 />
    <glyph glyph-name="cid3868" unicode="&#x4ea4;" 
 />
    <glyph glyph-name="cid7685" unicode="&#x4ea5;" 
 />
    <glyph glyph-name="cid5947" unicode="&#x4ea6;" 
 />
    <glyph glyph-name="cid7771" unicode="&#x4ea8;" 
 />
    <glyph glyph-name="cid7710" unicode="&#x4eab;" 
 />
    <glyph glyph-name="cid3660" unicode="&#x4eac;" 
 />
    <glyph glyph-name="cid6706" unicode="&#x4ead;" 
 />
    <glyph glyph-name="cid4427" unicode="&#x4eae;" 
 />
    <glyph glyph-name="cid4427" unicode="&#xf977;" 
 />
    <glyph glyph-name="cid4193" unicode="&#x4eb6;" 
 />
    <glyph glyph-name="cid5771" unicode="&#x4ec0;" 
 />
    <glyph glyph-name="cid5771" unicode="&#xf9fd;" 
 />
    <glyph glyph-name="cid6444" unicode="&#x4ec1;" 
 />
    <glyph glyph-name="cid7331" unicode="&#x4ec4;" 
 />
    <glyph glyph-name="cid3896" unicode="&#x4ec7;" 
 />
    <glyph glyph-name="cid4038" unicode="&#x4eca;" 
 />
    <glyph glyph-name="cid3560" unicode="&#x4ecb;" 
 />
    <glyph glyph-name="cid6479" unicode="&#x4ecd;" 
 />
    <glyph glyph-name="cid6483" unicode="&#x4ed4;" 
 />
    <glyph glyph-name="cid5244" unicode="&#x4ed5;" 
 />
    <glyph glyph-name="cid7380" unicode="&#x4ed6;" 
 />
    <glyph glyph-name="cid6535" unicode="&#x4ed7;" 
 />
    <glyph glyph-name="cid5110" unicode="&#x4ed8;" 
 />
    <glyph glyph-name="cid5418" unicode="&#x4ed9;" 
 />
    <glyph glyph-name="cid4331" unicode="&#x4edd;" 
 />
    <glyph glyph-name="cid7148" unicode="&#x4edf;" 
 />
    <glyph glyph-name="cid4250" unicode="&#x4ee3;" 
 />
    <glyph glyph-name="cid4489" unicode="&#x4ee4;" 
 />
    <glyph glyph-name="cid4489" unicode="&#xf9a8;" 
 />
    <glyph glyph-name="cid6414" unicode="&#x4ee5;" 
 />
    <glyph glyph-name="cid5833" unicode="&#x4ef0;" 
 />
    <glyph glyph-name="cid6923" unicode="&#x4ef2;" 
 />
    <glyph glyph-name="cid3602" unicode="&#x4ef6;" 
 />
    <glyph glyph-name="cid3561" unicode="&#x4ef7;" 
 />
    <glyph glyph-name="cid6469" unicode="&#x4efb;" 
 />
    <glyph glyph-name="cid4062" unicode="&#x4f01;" 
 />
    <glyph glyph-name="cid7671" unicode="&#x4f09;" 
 />
    <glyph glyph-name="cid6415" unicode="&#x4f0a;" 
 />
    <glyph glyph-name="cid4051" unicode="&#x4f0b;" 
 />
    <glyph glyph-name="cid6050" unicode="&#x4f0d;" 
 />
    <glyph glyph-name="cid4063" unicode="&#x4f0e;" 
 />
    <glyph glyph-name="cid5074" unicode="&#x4f0f;" 
 />
    <glyph glyph-name="cid5005" unicode="&#x4f10;" 
 />
    <glyph glyph-name="cid8005" unicode="&#x4f11;" 
 />
    <glyph glyph-name="cid4988" unicode="&#x4f2f;" 
 />
    <glyph glyph-name="cid4905" unicode="&#x4f34;" 
 />
    <glyph glyph-name="cid4490" unicode="&#x4f36;" 
 />
    <glyph glyph-name="cid5735" unicode="&#x4f38;" 
 />
    <glyph glyph-name="cid5245" unicode="&#x4f3a;" 
 />
    <glyph glyph-name="cid5246" unicode="&#x4f3c;" 
 />
    <glyph glyph-name="cid3436" unicode="&#x4f3d;" 
 />
    <glyph glyph-name="cid6643" unicode="&#x4f43;" 
 />
    <glyph glyph-name="cid4194" unicode="&#x4f46;" 
 />
    <glyph glyph-name="cid6591" unicode="&#x4f47;" 
 />
    <glyph glyph-name="cid7544" unicode="&#x4f48;" 
 />
    <glyph glyph-name="cid6284" unicode="&#x4f4d;" 
 />
    <glyph glyph-name="cid6592" unicode="&#x4f4e;" 
 />
    <glyph glyph-name="cid6861" unicode="&#x4f4f;" 
 />
    <glyph glyph-name="cid6854" unicode="&#x4f50;" 
 />
    <glyph glyph-name="cid6198" unicode="&#x4f51;" 
 />
    <glyph glyph-name="cid7617" unicode="&#x4f55;" 
 />
    <glyph glyph-name="cid5935" unicode="&#x4f59;" 
 />
    <glyph glyph-name="cid6461" unicode="&#x4f5a;" 
 />
    <glyph glyph-name="cid5171" unicode="&#x4f5b;" 
 />
    <glyph glyph-name="cid6509" unicode="&#x4f5c;" 
 />
    <glyph glyph-name="cid7502" unicode="&#x4f69;" 
 />
    <glyph glyph-name="cid5879" unicode="&#x4f6f;" 
 />
    <glyph glyph-name="cid4989" unicode="&#x4f70;" 
 />
    <glyph glyph-name="cid3437" unicode="&#x4f73;" 
 />
    <glyph glyph-name="cid4127" unicode="&#x4f76;" 
 />
    <glyph glyph-name="cid6644" unicode="&#x4f7a;" 
 />
    <glyph glyph-name="cid6462" unicode="&#x4f7e;" 
 />
    <glyph glyph-name="cid5247" unicode="&#x4f7f;" 
 />
    <glyph glyph-name="cid5736" unicode="&#x4f81;" 
 />
    <glyph glyph-name="cid3476" unicode="&#x4f83;" 
 />
    <glyph glyph-name="cid7015" unicode="&#x4f84;" 
 />
    <glyph glyph-name="cid4420" unicode="&#x4f86;" 
 />
    <glyph glyph-name="cid4420" unicode="&#xf92d;" 
 />
    <glyph glyph-name="cid7336" unicode="&#x4f88;" 
 />
    <glyph glyph-name="cid3839" unicode="&#x4f8a;" 
 />
    <glyph glyph-name="cid4506" unicode="&#x4f8b;" 
 />
    <glyph glyph-name="cid4506" unicode="&#xf9b5;" 
 />
    <glyph glyph-name="cid5692" unicode="&#x4f8d;" 
 />
    <glyph glyph-name="cid6862" unicode="&#x4f8f;" 
 />
    <glyph glyph-name="cid6310" unicode="&#x4f91;" 
 />
    <glyph glyph-name="cid4594" unicode="&#x4f96;" 
 />
    <glyph glyph-name="cid7042" unicode="&#x4f98;" 
 />
    <glyph glyph-name="cid3786" unicode="&#x4f9b;" 
 />
    <glyph glyph-name="cid6394" unicode="&#x4f9d;" 
 />
    <glyph glyph-name="cid4764" unicode="&#x4fae;" 
 />
    <glyph glyph-name="cid7966" unicode="&#x4faf;" 
 />
    <glyph glyph-name="cid7367" unicode="&#x4fb5;" 
 />
    <glyph glyph-name="cid4440" unicode="&#x4fb6;" 
 />
    <glyph glyph-name="cid7518" unicode="&#x4fbf;" 
 />
    <glyph glyph-name="cid7518" unicode="&#xf965;" 
 />
    <glyph glyph-name="cid3705" unicode="&#x4fc2;" 
 />
    <glyph glyph-name="cid7241" unicode="&#x4fc3;" 
 />
    <glyph glyph-name="cid5776" unicode="&#x4fc4;" 
 />
    <glyph glyph-name="cid6051" unicode="&#x4fc9;" 
 />
    <glyph glyph-name="cid6902" unicode="&#x4fca;" 
 />
    <glyph glyph-name="cid6782" unicode="&#x4fce;" 
 />
    <glyph glyph-name="cid6174" unicode="&#x4fd1;" 
 />
    <glyph glyph-name="cid3661" unicode="&#x4fd3;" 
 />
    <glyph glyph-name="cid7734" unicode="&#x4fd4;" 
 />
    <glyph glyph-name="cid5537" unicode="&#x4fd7;" 
 />
    <glyph glyph-name="cid4613" unicode="&#x4fda;" 
 />
    <glyph glyph-name="cid5058" unicode="&#x4fdd;" 
 />
    <glyph glyph-name="cid5248" unicode="&#x4fdf;" 
 />
    <glyph glyph-name="cid7759" unicode="&#x4fe0;" 
 />
    <glyph glyph-name="cid5737" unicode="&#x4fe1;" 
 />
    <glyph glyph-name="cid5567" unicode="&#x4fee;" 
 />
    <glyph glyph-name="cid5111" unicode="&#x4fef;" 
 />
    <glyph glyph-name="cid3897" unicode="&#x4ff1;" 
 />
    <glyph glyph-name="cid4970" unicode="&#x4ff3;" 
 />
    <glyph glyph-name="cid7576" unicode="&#x4ff5;" 
 />
    <glyph glyph-name="cid5093" unicode="&#x4ff8;" 
 />
    <glyph glyph-name="cid5925" unicode="&#x4ffa;" 
 />
    <glyph glyph-name="cid5042" unicode="&#x5002;" 
 />
    <glyph glyph-name="cid4428" unicode="&#x5006;" 
 />
    <glyph glyph-name="cid7092" unicode="&#x5009;" 
 />
    <glyph glyph-name="cid3562" unicode="&#x500b;" 
 />
    <glyph glyph-name="cid4969" unicode="&#x500d;" 
 />
    <glyph glyph-name="cid4836" unicode="&#x5011;" 
 />
    <glyph glyph-name="cid4269" unicode="&#x5012;" 
 />
    <glyph glyph-name="cid7705" unicode="&#x5016;" 
 />
    <glyph glyph-name="cid7967" unicode="&#x5019;" 
 />
    <glyph glyph-name="cid6395" unicode="&#x501a;" 
 />
    <glyph glyph-name="cid7134" unicode="&#x501c;" 
 />
    <glyph glyph-name="cid3662" unicode="&#x501e;" 
 />
    <glyph glyph-name="cid7043" unicode="&#x501f;" 
 />
    <glyph glyph-name="cid7093" unicode="&#x5021;" 
 />
    <glyph glyph-name="cid4941" unicode="&#x5023;" 
 />
    <glyph glyph-name="cid7337" unicode="&#x5024;" 
 />
    <glyph glyph-name="cid3969" unicode="&#x5026;" 
 />
    <glyph glyph-name="cid6837" unicode="&#x5027;" 
 />
    <glyph glyph-name="cid3585" unicode="&#x5028;" 
 />
    <glyph glyph-name="cid6030" unicode="&#x502a;" 
 />
    <glyph glyph-name="cid4595" unicode="&#x502b;" 
 />
    <glyph glyph-name="cid4595" unicode="&#xf9d4;" 
 />
    <glyph glyph-name="cid7394" unicode="&#x502c;" 
 />
    <glyph glyph-name="cid6131" unicode="&#x502d;" 
 />
    <glyph glyph-name="cid5863" unicode="&#x503b;" 
 />
    <glyph glyph-name="cid5917" unicode="&#x5043;" 
 />
    <glyph glyph-name="cid3438" unicode="&#x5047;" 
 />
    <glyph glyph-name="cid3627" unicode="&#x5048;" 
 />
    <glyph glyph-name="cid6285" unicode="&#x5049;" 
 />
    <glyph glyph-name="cid7519" unicode="&#x504f;" 
 />
    <glyph glyph-name="cid7686" unicode="&#x5055;" 
 />
    <glyph glyph-name="cid6863" unicode="&#x505a;" 
 />
    <glyph glyph-name="cid6707" unicode="&#x505c;" 
 />
    <glyph glyph-name="cid3603" unicode="&#x5065;" 
 />
    <glyph glyph-name="cid7330" unicode="&#x5074;" 
 />
    <glyph glyph-name="cid6708" unicode="&#x5075;" 
 />
    <glyph glyph-name="cid6199" unicode="&#x5076;" 
 />
    <glyph glyph-name="cid7465" unicode="&#x5078;" 
 />
    <glyph glyph-name="cid3856" unicode="&#x5080;" 
 />
    <glyph glyph-name="cid5112" unicode="&#x5085;" 
 />
    <glyph glyph-name="cid4942" unicode="&#x508d;" 
 />
    <glyph glyph-name="cid3614" unicode="&#x5091;" 
 />
    <glyph glyph-name="cid5303" unicode="&#x5098;" 
 />
    <glyph glyph-name="cid5182" unicode="&#x5099;" 
 />
    <glyph glyph-name="cid7262" unicode="&#x50ac;" 
 />
    <glyph glyph-name="cid6175" unicode="&#x50ad;" 
 />
    <glyph glyph-name="cid6052" unicode="&#x50b2;" 
 />
    <glyph glyph-name="cid6645" unicode="&#x50b3;" 
 />
    <glyph glyph-name="cid7114" unicode="&#x50b5;" 
 />
    <glyph glyph-name="cid5332" unicode="&#x50b7;" 
 />
    <glyph glyph-name="cid3663" unicode="&#x50be;" 
 />
    <glyph glyph-name="cid4023" unicode="&#x50c5;" 
 />
    <glyph glyph-name="cid7177" unicode="&#x50c9;" 
 />
    <glyph glyph-name="cid5419" unicode="&#x50ca;" 
 />
    <glyph glyph-name="cid5333" unicode="&#x50cf;" 
 />
    <glyph glyph-name="cid3869" unicode="&#x50d1;" 
 />
    <glyph glyph-name="cid5075" unicode="&#x50d5;" 
 />
    <glyph glyph-name="cid8035" unicode="&#x50d6;" 
 />
    <glyph glyph-name="cid4552" unicode="&#x50da;" 
 />
    <glyph glyph-name="cid4552" unicode="&#xf9bb;" 
 />
    <glyph glyph-name="cid6286" unicode="&#x50de;" 
 />
    <glyph glyph-name="cid6140" unicode="&#x50e5;" 
 />
    <glyph glyph-name="cid5684" unicode="&#x50e7;" 
 />
    <glyph glyph-name="cid7082" unicode="&#x50ed;" 
 />
    <glyph glyph-name="cid3439" unicode="&#x50f9;" 
 />
    <glyph glyph-name="cid5020" unicode="&#x50fb;" 
 />
    <glyph glyph-name="cid5249" unicode="&#x50ff;" 
 />
    <glyph glyph-name="cid6396" unicode="&#x5100;" 
 />
    <glyph glyph-name="cid6903" unicode="&#x5101;" 
 />
    <glyph glyph-name="cid5912" unicode="&#x5104;" 
 />
    <glyph glyph-name="cid3664" unicode="&#x5106;" 
 />
    <glyph glyph-name="cid3617" unicode="&#x5109;" 
 />
    <glyph glyph-name="cid6311" unicode="&#x5112;" 
 />
    <glyph glyph-name="cid5334" unicode="&#x511f;" 
 />
    <glyph glyph-name="cid4543" unicode="&#x5121;" 
 />
    <glyph glyph-name="cid6200" unicode="&#x512a;" 
 />
    <glyph glyph-name="cid6593" unicode="&#x5132;" 
 />
    <glyph glyph-name="cid4441" unicode="&#x5137;" 
 />
    <glyph glyph-name="cid4133" unicode="&#x513a;" 
 />
    <glyph glyph-name="cid5926" unicode="&#x513c;" 
 />
    <glyph glyph-name="cid6089" unicode="&#x5140;" 
 />
    <glyph glyph-name="cid6359" unicode="&#x5141;" 
 />
    <glyph glyph-name="cid6255" unicode="&#x5143;" 
 />
    <glyph glyph-name="cid7772" unicode="&#x5144;" 
 />
    <glyph glyph-name="cid7306" unicode="&#x5145;" 
 />
    <glyph glyph-name="cid6783" unicode="&#x5146;" 
 />
    <glyph glyph-name="cid8013" unicode="&#x5147;" 
 />
    <glyph glyph-name="cid5420" unicode="&#x5148;" 
 />
    <glyph glyph-name="cid3840" unicode="&#x5149;" 
 />
    <glyph glyph-name="cid4016" unicode="&#x514b;" 
 />
    <glyph glyph-name="cid7431" unicode="&#x514c;" 
 />
    <glyph glyph-name="cid4735" unicode="&#x514d;" 
 />
    <glyph glyph-name="cid7449" unicode="&#x514e;" 
 />
    <glyph glyph-name="cid5777" unicode="&#x5152;" 
 />
    <glyph glyph-name="cid4348" unicode="&#x515c;" 
 />
    <glyph glyph-name="cid4059" unicode="&#x5162;" 
 />
    <glyph glyph-name="cid4155" unicode="&#x5167;" 
 />
    <glyph glyph-name="cid6646" unicode="&#x5168;" 
 />
    <glyph glyph-name="cid4429" unicode="&#x5169;" 
 />
    <glyph glyph-name="cid4429" unicode="&#xf978;" 
 />
    <glyph glyph-name="cid6312" unicode="&#x516a;" 
 />
    <glyph glyph-name="cid3787" unicode="&#x516c;" 
 />
    <glyph glyph-name="cid4591" unicode="&#x516d;" 
 />
    <glyph glyph-name="cid4591" unicode="&#xf9d1;" 
 />
    <glyph glyph-name="cid7791" unicode="&#x516e;" 
 />
    <glyph glyph-name="cid3788" unicode="&#x5171;" 
 />
    <glyph glyph-name="cid5043" unicode="&#x5175;" 
 />
    <glyph glyph-name="cid4064" unicode="&#x5176;" 
 />
    <glyph glyph-name="cid3898" unicode="&#x5177;" 
 />
    <glyph glyph-name="cid6647" unicode="&#x5178;" 
 />
    <glyph glyph-name="cid3654" unicode="&#x517c;" 
 />
    <glyph glyph-name="cid4065" unicode="&#x5180;" 
 />
    <glyph glyph-name="cid5933" unicode="&#x5186;" 
 />
    <glyph glyph-name="cid7126" unicode="&#x518a;" 
 />
    <glyph glyph-name="cid6570" unicode="&#x518d;" 
 />
    <glyph glyph-name="cid4765" unicode="&#x5192;" 
 />
    <glyph glyph-name="cid4736" unicode="&#x5195;" 
 />
    <glyph glyph-name="cid6176" unicode="&#x5197;" 
 />
    <glyph glyph-name="cid3819" unicode="&#x51a0;" 
 />
    <glyph glyph-name="cid4748" unicode="&#x51a5;" 
 />
    <glyph glyph-name="cid4733" unicode="&#x51aa;" 
 />
    <glyph glyph-name="cid4332" unicode="&#x51ac;" 
 />
    <glyph glyph-name="cid5864" unicode="&#x51b6;" 
 />
    <glyph glyph-name="cid4424" unicode="&#x51b7;" 
 />
    <glyph glyph-name="cid4424" unicode="&#xf92e;" 
 />
    <glyph glyph-name="cid4477" unicode="&#x51bd;" 
 />
    <glyph glyph-name="cid7130" unicode="&#x51c4;" 
 />
    <glyph glyph-name="cid6904" unicode="&#x51c6;" 
 />
    <glyph glyph-name="cid4430" unicode="&#x51c9;" 
 />
    <glyph glyph-name="cid4430" unicode="&#xf979;" 
 />
    <glyph glyph-name="cid6784" unicode="&#x51cb;" 
 />
    <glyph glyph-name="cid4607" unicode="&#x51cc;" 
 />
    <glyph glyph-name="cid4607" unicode="&#xf955;" 
 />
    <glyph glyph-name="cid4333" unicode="&#x51cd;" 
 />
    <glyph glyph-name="cid4606" unicode="&#x51dc;" 
 />
    <glyph glyph-name="cid4606" unicode="&#xf954;" 
 />
    <glyph glyph-name="cid6390" unicode="&#x51dd;" 
 />
    <glyph glyph-name="cid8036" unicode="&#x51de;" 
 />
    <glyph glyph-name="cid5009" unicode="&#x51e1;" 
 />
    <glyph glyph-name="cid7904" unicode="&#x51f0;" 
 />
    <glyph glyph-name="cid3563" unicode="&#x51f1;" 
 />
    <glyph glyph-name="cid8014" unicode="&#x51f6;" 
 />
    <glyph glyph-name="cid7167" unicode="&#x51f8;" 
 />
    <glyph glyph-name="cid6141" unicode="&#x51f9;" 
 />
    <glyph glyph-name="cid7303" unicode="&#x51fa;" 
 />
    <glyph glyph-name="cid7651" unicode="&#x51fd;" 
 />
    <glyph glyph-name="cid6445" unicode="&#x5203;" 
 />
    <glyph glyph-name="cid5152" unicode="&#x5206;" 
 />
    <glyph glyph-name="cid6684" unicode="&#x5207;" 
 />
    <glyph glyph-name="cid6684" unicode="&#xfa00;" 
 />
    <glyph glyph-name="cid6031" unicode="&#x5208;" 
 />
    <glyph glyph-name="cid3477" unicode="&#x520a;" 
 />
    <glyph glyph-name="cid4837" unicode="&#x520e;" 
 />
    <glyph glyph-name="cid7773" unicode="&#x5211;" 
 />
    <glyph glyph-name="cid4478" unicode="&#x5217;" 
 />
    <glyph glyph-name="cid4478" unicode="&#xf99c;" 
 />
    <glyph glyph-name="cid7214" unicode="&#x521d;" 
 />
    <glyph glyph-name="cid7490" unicode="&#x5224;" 
 />
    <glyph glyph-name="cid5037" unicode="&#x5225;" 
 />
    <glyph glyph-name="cid4614" unicode="&#x5229;" 
 />
    <glyph glyph-name="cid4614" unicode="&#xf9dd;" 
 />
    <glyph glyph-name="cid5304" unicode="&#x522a;" 
 />
    <glyph glyph-name="cid3835" unicode="&#x522e;" 
 />
    <glyph glyph-name="cid4271" unicode="&#x5230;" 
 />
    <glyph glyph-name="cid6759" unicode="&#x5236;" 
 />
    <glyph glyph-name="cid5561" unicode="&#x5237;" 
 />
    <glyph glyph-name="cid3970" unicode="&#x5238;" 
 />
    <glyph glyph-name="cid7077" unicode="&#x5239;" 
 />
    <glyph glyph-name="cid6484" unicode="&#x523a;" 
 />
    <glyph glyph-name="cid6484" unicode="&#xf9ff;" 
 />
    <glyph glyph-name="cid3465" unicode="&#x523b;" 
 />
    <glyph glyph-name="cid7205" unicode="&#x5243;" 
 />
    <glyph glyph-name="cid7360" unicode="&#x5247;" 
 />
    <glyph glyph-name="cid5301" unicode="&#x524a;" 
 />
    <glyph glyph-name="cid4017" unicode="&#x524b;" 
 />
    <glyph glyph-name="cid4397" unicode="&#x524c;" 
 />
    <glyph glyph-name="cid6648" unicode="&#x524d;" 
 />
    <glyph glyph-name="cid7135" unicode="&#x5254;" 
 />
    <glyph glyph-name="cid5113" unicode="&#x5256;" 
 />
    <glyph glyph-name="cid3536" unicode="&#x525b;" 
 />
    <glyph glyph-name="cid4886" unicode="&#x525d;" 
 />
    <glyph glyph-name="cid5463" unicode="&#x5261;" 
 />
    <glyph glyph-name="cid6480" unicode="&#x5269;" 
 />
    <glyph glyph-name="cid6649" unicode="&#x526a;" 
 />
    <glyph glyph-name="cid5114" unicode="&#x526f;" 
 />
    <glyph glyph-name="cid7649" unicode="&#x5272;" 
 />
    <glyph glyph-name="cid7094" unicode="&#x5275;" 
 />
    <glyph glyph-name="cid7577" unicode="&#x527d;" 
 />
    <glyph glyph-name="cid7215" unicode="&#x527f;" 
 />
    <glyph glyph-name="cid7948" unicode="&#x5283;" 
 />
    <glyph glyph-name="cid4018" unicode="&#x5287;" 
 />
    <glyph glyph-name="cid5021" unicode="&#x5288;" 
 />
    <glyph glyph-name="cid4577" unicode="&#x5289;" 
 />
    <glyph glyph-name="cid4577" unicode="&#xf9c7;" 
 />
    <glyph glyph-name="cid3618" unicode="&#x528d;" 
 />
    <glyph glyph-name="cid6760" unicode="&#x5291;" 
 />
    <glyph glyph-name="cid3619" unicode="&#x5292;" 
 />
    <glyph glyph-name="cid3789" unicode="&#x529f;" 
 />
    <glyph glyph-name="cid3440" unicode="&#x52a0;" 
 />
    <glyph glyph-name="cid4479" unicode="&#x52a3;" 
 />
    <glyph glyph-name="cid4479" unicode="&#xf99d;" 
 />
    <glyph glyph-name="cid4024" unicode="&#x52a4;" 
 />
    <glyph glyph-name="cid6785" unicode="&#x52a9;" 
 />
    <glyph glyph-name="cid4169" unicode="&#x52aa;" 
 />
    <glyph glyph-name="cid3624" unicode="&#x52ab;" 
 />
    <glyph glyph-name="cid7703" unicode="&#x52be;" 
 />
    <glyph glyph-name="cid3665" unicode="&#x52c1;" 
 />
    <glyph glyph-name="cid4930" unicode="&#x52c3;" 
 />
    <glyph glyph-name="cid7361" unicode="&#x52c5;" 
 />
    <glyph glyph-name="cid6177" unicode="&#x52c7;" 
 />
    <glyph glyph-name="cid4737" unicode="&#x52c9;" 
 />
    <glyph glyph-name="cid3666" unicode="&#x52cd;" 
 />
    <glyph glyph-name="cid4604" unicode="&#x52d2;" 
 />
    <glyph glyph-name="cid4604" unicode="&#xf952;" 
 />
    <glyph glyph-name="cid4334" unicode="&#x52d5;" 
 />
    <glyph glyph-name="cid6229" unicode="&#x52d6;" 
 />
    <glyph glyph-name="cid3510" unicode="&#x52d8;" 
 />
    <glyph glyph-name="cid4812" unicode="&#x52d9;" 
 />
    <glyph glyph-name="cid7979" unicode="&#x52db;" 
 />
    <glyph glyph-name="cid5685" unicode="&#x52dd;" 
 />
    <glyph glyph-name="cid4511" unicode="&#x52de;" 
 />
    <glyph glyph-name="cid4511" unicode="&#xf92f;" 
 />
    <glyph glyph-name="cid4766" unicode="&#x52df;" 
 />
    <glyph glyph-name="cid5493" unicode="&#x52e2;" 
 />
    <glyph glyph-name="cid6619" unicode="&#x52e3;" 
 />
    <glyph glyph-name="cid4025" unicode="&#x52e4;" 
 />
    <glyph glyph-name="cid7980" unicode="&#x52f3;" 
 />
    <glyph glyph-name="cid4442" unicode="&#x52f5;" 
 />
    <glyph glyph-name="cid4442" unicode="&#xf97f;" 
 />
    <glyph glyph-name="cid3971" unicode="&#x52f8;" 
 />
    <glyph glyph-name="cid6510" unicode="&#x52fa;" 
 />
    <glyph glyph-name="cid4009" unicode="&#x52fb;" 
 />
    <glyph glyph-name="cid3899" unicode="&#x52fe;" 
 />
    <glyph glyph-name="cid4848" unicode="&#x52ff;" 
 />
    <glyph glyph-name="cid7545" unicode="&#x5305;" 
 />
    <glyph glyph-name="cid8015" unicode="&#x5308;" 
 />
    <glyph glyph-name="cid7546" unicode="&#x530d;" 
 />
    <glyph glyph-name="cid7547" unicode="&#x530f;" 
 />
    <glyph glyph-name="cid5076" unicode="&#x5310;" 
 />
    <glyph glyph-name="cid7863" unicode="&#x5316;" 
 />
    <glyph glyph-name="cid5151" unicode="&#x5317;" 
 />
    <glyph glyph-name="cid5151" unicode="&#xf963;" 
 />
    <glyph glyph-name="cid5693" unicode="&#x5319;" 
 />
    <glyph glyph-name="cid6536" unicode="&#x5320;" 
 />
    <glyph glyph-name="cid3841" unicode="&#x5321;" 
 />
    <glyph glyph-name="cid3530" unicode="&#x5323;" 
 />
    <glyph glyph-name="cid5184" unicode="&#x532a;" 
 />
    <glyph glyph-name="cid7928" unicode="&#x532f;" 
 />
    <glyph glyph-name="cid7604" unicode="&#x5339;" 
 />
    <glyph glyph-name="cid4188" unicode="&#x533f;" 
 />
    <glyph glyph-name="cid4188" unicode="&#xf9eb;" 
 />
    <glyph glyph-name="cid3900" unicode="&#x5340;" 
 />
    <glyph glyph-name="cid7149" unicode="&#x5343;" 
 />
    <glyph glyph-name="cid6478" unicode="&#x5344;" 
 />
    <glyph glyph-name="cid5686" unicode="&#x5347;" 
 />
    <glyph glyph-name="cid6053" unicode="&#x5348;" 
 />
    <glyph glyph-name="cid7994" unicode="&#x5349;" 
 />
    <glyph glyph-name="cid4906" unicode="&#x534a;" 
 />
    <glyph glyph-name="cid4671" unicode="&#x534d;" 
 />
    <glyph glyph-name="cid5185" unicode="&#x5351;" 
 />
    <glyph glyph-name="cid6834" unicode="&#x5352;" 
 />
    <glyph glyph-name="cid7395" unicode="&#x5353;" 
 />
    <glyph glyph-name="cid7760" unicode="&#x5354;" 
 />
    <glyph glyph-name="cid4145" unicode="&#x5357;" 
 />
    <glyph glyph-name="cid4887" unicode="&#x535a;" 
 />
    <glyph glyph-name="cid5031" unicode="&#x535e;" 
 />
    <glyph glyph-name="cid6692" unicode="&#x5360;" 
 />
    <glyph glyph-name="cid3852" unicode="&#x5366;" 
 />
    <glyph glyph-name="cid5450" unicode="&#x5368;" 
 />
    <glyph glyph-name="cid4800" unicode="&#x536f;" 
 />
    <glyph glyph-name="cid6446" unicode="&#x5370;" 
 />
    <glyph glyph-name="cid6287" unicode="&#x5371;" 
 />
    <glyph glyph-name="cid3466" unicode="&#x5374;" 
 />
    <glyph glyph-name="cid4390" unicode="&#x5375;" 
 />
    <glyph glyph-name="cid4390" unicode="&#xf91c;" 
 />
    <glyph glyph-name="cid3972" unicode="&#x5377;" 
 />
    <glyph glyph-name="cid6926" unicode="&#x537d;" 
 />
    <glyph glyph-name="cid3667" unicode="&#x537f;" 
 />
    <glyph glyph-name="cid5851" unicode="&#x5384;" 
 />
    <glyph glyph-name="cid5840" unicode="&#x5393;" 
 />
    <glyph glyph-name="cid4615" unicode="&#x5398;" 
 />
    <glyph glyph-name="cid7968" unicode="&#x539a;" 
 />
    <glyph glyph-name="cid6256" unicode="&#x539f;" 
 />
    <glyph glyph-name="cid7332" unicode="&#x53a0;" 
 />
    <glyph glyph-name="cid3979" unicode="&#x53a5;" 
 />
    <glyph glyph-name="cid7618" unicode="&#x53a6;" 
 />
    <glyph glyph-name="cid5989" unicode="&#x53ad;" 
 />
    <glyph glyph-name="cid3586" unicode="&#x53bb;" 
 />
    <glyph glyph-name="cid7083" unicode="&#x53c3;" 
 />
    <glyph glyph-name="cid7083" unicode="&#xf96b;" 
 />
    <glyph glyph-name="cid7044" unicode="&#x53c9;" 
 />
    <glyph glyph-name="cid4052" unicode="&#x53ca;" 
 />
    <glyph glyph-name="cid6202" unicode="&#x53cb;" 
 />
    <glyph glyph-name="cid4907" unicode="&#x53cd;" 
 />
    <glyph glyph-name="cid5628" unicode="&#x53d4;" 
 />
    <glyph glyph-name="cid7316" unicode="&#x53d6;" 
 />
    <glyph glyph-name="cid5568" unicode="&#x53d7;" 
 />
    <glyph glyph-name="cid4908" unicode="&#x53db;" 
 />
    <glyph glyph-name="cid6032" unicode="&#x53e1;" 
 />
    <glyph glyph-name="cid7251" unicode="&#x53e2;" 
 />
    <glyph glyph-name="cid3729" unicode="&#x53e4;" 
 />
    <glyph glyph-name="cid3902" unicode="&#x53e5;" 
 />
    <glyph glyph-name="cid3902" unicode="&#xf906;" 
 />
    <glyph glyph-name="cid3730" unicode="&#x53e9;" 
 />
    <glyph glyph-name="cid6943" unicode="&#x53ea;" 
 />
    <glyph glyph-name="cid3994" unicode="&#x53eb;" 
 />
    <glyph glyph-name="cid5500" unicode="&#x53ec;" 
 />
    <glyph glyph-name="cid7500" unicode="&#x53ed;" 
 />
    <glyph glyph-name="cid3441" unicode="&#x53ef;" 
 />
    <glyph glyph-name="cid7432" unicode="&#x53f0;" 
 />
    <glyph glyph-name="cid7016" unicode="&#x53f1;" 
 />
    <glyph glyph-name="cid5250" unicode="&#x53f2;" 
 />
    <glyph glyph-name="cid6203" unicode="&#x53f3;" 
 />
    <glyph glyph-name="cid5251" unicode="&#x53f8;" 
 />
    <glyph glyph-name="cid8023" unicode="&#x5403;" 
 />
    <glyph glyph-name="cid3467" unicode="&#x5404;" 
 />
    <glyph glyph-name="cid7663" unicode="&#x5408;" 
 />
    <glyph glyph-name="cid4128" unicode="&#x5409;" 
 />
    <glyph glyph-name="cid6620" unicode="&#x540a;" 
 />
    <glyph glyph-name="cid4335" unicode="&#x540c;" 
 />
    <glyph glyph-name="cid4749" unicode="&#x540d;" 
 />
    <glyph glyph-name="cid7969" unicode="&#x540e;" 
 />
    <glyph glyph-name="cid4616" unicode="&#x540f;" 
 />
    <glyph glyph-name="cid4616" unicode="&#xf9de;" 
 />
    <glyph glyph-name="cid7450" unicode="&#x5410;" 
 />
    <glyph glyph-name="cid7711" unicode="&#x5411;" 
 />
    <glyph glyph-name="cid3953" unicode="&#x541b;" 
 />
    <glyph glyph-name="cid4638" unicode="&#x541d;" 
 />
    <glyph glyph-name="cid4638" unicode="&#xf9ed;" 
 />
    <glyph glyph-name="cid6381" unicode="&#x541f;" 
 />
    <glyph glyph-name="cid7534" unicode="&#x5420;" 
 />
    <glyph glyph-name="cid5115" unicode="&#x5426;" 
 />
    <glyph glyph-name="cid5153" unicode="&#x5429;" 
 />
    <glyph glyph-name="cid7652" unicode="&#x542b;" 
 />
    <glyph glyph-name="cid6055" unicode="&#x5433;" 
 />
    <glyph glyph-name="cid8030" unicode="&#x5438;" 
 />
    <glyph glyph-name="cid7317" unicode="&#x5439;" 
 />
    <glyph glyph-name="cid4838" unicode="&#x543b;" 
 />
    <glyph glyph-name="cid7970" unicode="&#x543c;" 
 />
    <glyph glyph-name="cid6054" unicode="&#x543e;" 
 />
    <glyph glyph-name="cid4443" unicode="&#x5442;" 
 />
    <glyph glyph-name="cid4443" unicode="&#xf980;" 
 />
    <glyph glyph-name="cid6709" unicode="&#x5448;" 
 />
    <glyph glyph-name="cid3731" unicode="&#x544a;" 
 />
    <glyph glyph-name="cid7408" unicode="&#x5451;" 
 />
    <glyph glyph-name="cid6867" unicode="&#x5468;" 
 />
    <glyph glyph-name="cid6866" unicode="&#x546a;" 
 />
    <glyph glyph-name="cid3732" unicode="&#x5471;" 
 />
    <glyph glyph-name="cid4851" unicode="&#x5473;" 
 />
    <glyph glyph-name="cid3442" unicode="&#x5475;" 
 />
    <glyph glyph-name="cid5738" unicode="&#x547b;" 
 />
    <glyph glyph-name="cid7802" unicode="&#x547c;" 
 />
    <glyph glyph-name="cid4750" unicode="&#x547d;" 
 />
    <glyph glyph-name="cid6594" unicode="&#x5480;" 
 />
    <glyph glyph-name="cid7548" unicode="&#x5486;" 
 />
    <glyph glyph-name="cid7864" unicode="&#x548c;" 
 />
    <glyph glyph-name="cid3903" unicode="&#x548e;" 
 />
    <glyph glyph-name="cid5116" unicode="&#x5490;" 
 />
    <glyph glyph-name="cid7381" unicode="&#x54a4;" 
 />
    <glyph glyph-name="cid6485" unicode="&#x54a8;" 
 />
    <glyph glyph-name="cid6944" unicode="&#x54ab;" 
 />
    <glyph glyph-name="cid3870" unicode="&#x54ac;" 
 />
    <glyph glyph-name="cid7687" unicode="&#x54b3;" 
 />
    <glyph glyph-name="cid7653" unicode="&#x54b8;" 
 />
    <glyph glyph-name="cid6447" unicode="&#x54bd;" 
 />
    <glyph glyph-name="cid6447" unicode="&#xf99e;" 
 />
    <glyph glyph-name="cid5841" unicode="&#x54c0;" 
 />
    <glyph glyph-name="cid7590" unicode="&#x54c1;" 
 />
    <glyph glyph-name="cid7853" unicode="&#x54c4;" 
 />
    <glyph glyph-name="cid7664" unicode="&#x54c8;" 
 />
    <glyph glyph-name="cid6571" unicode="&#x54c9;" 
 />
    <glyph glyph-name="cid6257" unicode="&#x54e1;" 
 />
    <glyph glyph-name="cid3443" unicode="&#x54e5;" 
 />
    <glyph glyph-name="cid7216" unicode="&#x54e8;" 
 />
    <glyph glyph-name="cid3767" unicode="&#x54ed;" 
 />
    <glyph glyph-name="cid7953" unicode="&#x54ee;" 
 />
    <glyph glyph-name="cid7168" unicode="&#x54f2;" 
 />
    <glyph glyph-name="cid7549" unicode="&#x54fa;" 
 />
    <glyph glyph-name="cid7503" unicode="&#x5504;" 
 />
    <glyph glyph-name="cid5252" unicode="&#x5506;" 
 />
    <glyph glyph-name="cid6980" unicode="&#x5507;" 
 />
    <glyph glyph-name="cid4617" unicode="&#x550e;" 
 />
    <glyph glyph-name="cid4239" unicode="&#x5510;" 
 />
    <glyph glyph-name="cid4689" unicode="&#x551c;" 
 />
    <glyph glyph-name="cid6313" unicode="&#x552f;" 
 />
    <glyph glyph-name="cid7095" unicode="&#x5531;" 
 />
    <glyph glyph-name="cid5821" unicode="&#x5535;" 
 />
    <glyph glyph-name="cid7382" unicode="&#x553e;" 
 />
    <glyph glyph-name="cid7396" unicode="&#x5544;" 
 />
    <glyph glyph-name="cid5335" unicode="&#x5546;" 
 />
    <glyph glyph-name="cid4839" unicode="&#x554f;" 
 />
    <glyph glyph-name="cid3706" unicode="&#x5553;" 
 />
    <glyph glyph-name="cid4217" unicode="&#x5556;" 
 />
    <glyph glyph-name="cid5778" unicode="&#x555e;" 
 />
    <glyph glyph-name="cid7654" unicode="&#x5563;" 
 />
    <glyph glyph-name="cid6761" unicode="&#x557c;" 
 />
    <glyph glyph-name="cid3579" unicode="&#x5580;" 
 />
    <glyph glyph-name="cid5421" unicode="&#x5584;" 
 />
    <glyph glyph-name="cid7169" unicode="&#x5586;" 
 />
    <glyph glyph-name="cid4374" unicode="&#x5587;" 
 />
    <glyph glyph-name="cid4374" unicode="&#xf90b;" 
 />
    <glyph glyph-name="cid7971" unicode="&#x5589;" 
 />
    <glyph glyph-name="cid7655" unicode="&#x558a;" 
 />
    <glyph glyph-name="cid7150" unicode="&#x5598;" 
 />
    <glyph glyph-name="cid7995" unicode="&#x5599;" 
 />
    <glyph glyph-name="cid7883" unicode="&#x559a;" 
 />
    <glyph glyph-name="cid8037" unicode="&#x559c;" 
 />
    <glyph glyph-name="cid3501" unicode="&#x559d;" 
 />
    <glyph glyph-name="cid7990" unicode="&#x55a7;" 
 />
    <glyph glyph-name="cid6314" unicode="&#x55a9;" 
 />
    <glyph glyph-name="cid5336" unicode="&#x55aa;" 
 />
    <glyph glyph-name="cid4132" unicode="&#x55ab;" 
 />
    <glyph glyph-name="cid3871" unicode="&#x55ac;" 
 />
    <glyph glyph-name="cid4195" unicode="&#x55ae;" 
 />
    <glyph glyph-name="cid7972" unicode="&#x55c5;" 
 />
    <glyph glyph-name="cid5365" unicode="&#x55c7;" 
 />
    <glyph glyph-name="cid6981" unicode="&#x55d4;" 
 />
    <glyph glyph-name="cid6056" unicode="&#x55da;" 
 />
    <glyph glyph-name="cid4066" unicode="&#x55dc;" 
 />
    <glyph glyph-name="cid7045" unicode="&#x55df;" 
 />
    <glyph glyph-name="cid5253" unicode="&#x55e3;" 
 />
    <glyph glyph-name="cid7338" unicode="&#x55e4;" 
 />
    <glyph glyph-name="cid5569" unicode="&#x55fd;" 
 />
    <glyph glyph-name="cid6868" unicode="&#x55fe;" 
 />
    <glyph glyph-name="cid7409" unicode="&#x5606;" 
 />
    <glyph glyph-name="cid3444" unicode="&#x5609;" 
 />
    <glyph glyph-name="cid3904" unicode="&#x5614;" 
 />
    <glyph glyph-name="cid5337" unicode="&#x5617;" 
 />
    <glyph glyph-name="cid5501" unicode="&#x562f;" 
 />
    <glyph glyph-name="cid6786" unicode="&#x5632;" 
 />
    <glyph glyph-name="cid7318" unicode="&#x5634;" 
 />
    <glyph glyph-name="cid5694" unicode="&#x5636;" 
 />
    <glyph glyph-name="cid7719" unicode="&#x5653;" 
 />
    <glyph glyph-name="cid4067" unicode="&#x5668;" 
 />
    <glyph glyph-name="cid8038" unicode="&#x566b;" 
 />
    <glyph glyph-name="cid5154" unicode="&#x5674;" 
 />
    <glyph glyph-name="cid7954" unicode="&#x5686;" 
 />
    <glyph glyph-name="cid5956" unicode="&#x56a5;" 
 />
    <glyph glyph-name="cid5223" unicode="&#x56ac;" 
 />
    <glyph glyph-name="cid7712" unicode="&#x56ae;" 
 />
    <glyph glyph-name="cid5927" unicode="&#x56b4;" 
 />
    <glyph glyph-name="cid6511" unicode="&#x56bc;" 
 />
    <glyph glyph-name="cid4152" unicode="&#x56ca;" 
 />
    <glyph glyph-name="cid8039" unicode="&#x56cd;" 
 />
    <glyph glyph-name="cid7242" unicode="&#x56d1;" 
 />
    <glyph glyph-name="cid5570" unicode="&#x56da;" 
 />
    <glyph glyph-name="cid5254" unicode="&#x56db;" 
 />
    <glyph glyph-name="cid7929" unicode="&#x56de;" 
 />
    <glyph glyph-name="cid6448" unicode="&#x56e0;" 
 />
    <glyph glyph-name="cid3774" unicode="&#x56f0;" 
 />
    <glyph glyph-name="cid4491" unicode="&#x56f9;" 
 />
    <glyph glyph-name="cid4491" unicode="&#xf9a9;" 
 />
    <glyph glyph-name="cid3733" unicode="&#x56fa;" 
 />
    <glyph glyph-name="cid7550" unicode="&#x5703;" 
 />
    <glyph glyph-name="cid5902" unicode="&#x5704;" 
 />
    <glyph glyph-name="cid3973" unicode="&#x5708;" 
 />
    <glyph glyph-name="cid3947" unicode="&#x570b;" 
 />
    <glyph glyph-name="cid6288" unicode="&#x570d;" 
 />
    <glyph glyph-name="cid6259" unicode="&#x5712;" 
 />
    <glyph glyph-name="cid6258" unicode="&#x5713;" 
 />
    <glyph glyph-name="cid4272" unicode="&#x5716;" 
 />
    <glyph glyph-name="cid4196" unicode="&#x5718;" 
 />
    <glyph glyph-name="cid6572" unicode="&#x5728;" 
 />
    <glyph glyph-name="cid3995" unicode="&#x572d;" 
 />
    <glyph glyph-name="cid6945" unicode="&#x5730;" 
 />
    <glyph glyph-name="cid4068" unicode="&#x573b;" 
 />
    <glyph glyph-name="cid6946" unicode="&#x5740;" 
 />
    <glyph glyph-name="cid7491" unicode="&#x5742;" 
 />
    <glyph glyph-name="cid4010" unicode="&#x5747;" 
 />
    <glyph glyph-name="cid4943" unicode="&#x574a;" 
 />
    <glyph glyph-name="cid4218" unicode="&#x574d;" 
 />
    <glyph glyph-name="cid3511" unicode="&#x574e;" 
 />
    <glyph glyph-name="cid6855" unicode="&#x5750;" 
 />
    <glyph glyph-name="cid3581" unicode="&#x5751;" 
 />
    <glyph glyph-name="cid7474" unicode="&#x5761;" 
 />
    <glyph glyph-name="cid3775" unicode="&#x5764;" 
 />
    <glyph glyph-name="cid7410" unicode="&#x5766;" 
 />
    <glyph glyph-name="cid7529" unicode="&#x576a;" 
 />
    <glyph glyph-name="cid4252" unicode="&#x576e;" 
 />
    <glyph glyph-name="cid3668" unicode="&#x5770;" 
 />
    <glyph glyph-name="cid3905" unicode="&#x5775;" 
 />
    <glyph glyph-name="cid7397" unicode="&#x577c;" 
 />
    <glyph glyph-name="cid5571" unicode="&#x5782;" 
 />
    <glyph glyph-name="cid4251" unicode="&#x5788;" 
 />
    <glyph glyph-name="cid7774" unicode="&#x578b;" 
 />
    <glyph glyph-name="cid7688" unicode="&#x5793;" 
 />
    <glyph glyph-name="cid6373" unicode="&#x57a0;" 
 />
    <glyph glyph-name="cid3906" unicode="&#x57a2;" 
 />
    <glyph glyph-name="cid6260" unicode="&#x57a3;" 
 />
    <glyph glyph-name="cid5842" unicode="&#x57c3;" 
 />
    <glyph glyph-name="cid6178" unicode="&#x57c7;" 
 />
    <glyph glyph-name="cid6905" unicode="&#x57c8;" 
 />
    <glyph glyph-name="cid4708" unicode="&#x57cb;" 
 />
    <glyph glyph-name="cid5474" unicode="&#x57ce;" 
 />
    <glyph glyph-name="cid5948" unicode="&#x57df;" 
 />
    <glyph glyph-name="cid5117" unicode="&#x57e0;" 
 />
    <glyph glyph-name="cid7115" unicode="&#x57f0;" 
 />
    <glyph glyph-name="cid5720" unicode="&#x57f4;" 
 />
    <glyph glyph-name="cid7032" unicode="&#x57f7;" 
 />
    <glyph glyph-name="cid4971" unicode="&#x57f9;" 
 />
    <glyph glyph-name="cid4069" unicode="&#x57fa;" 
 />
    <glyph glyph-name="cid4070" unicode="&#x57fc;" 
 />
    <glyph glyph-name="cid3959" unicode="&#x5800;" 
 />
    <glyph glyph-name="cid4240" unicode="&#x5802;" 
 />
    <glyph glyph-name="cid3637" unicode="&#x5805;" 
 />
    <glyph glyph-name="cid7459" unicode="&#x5806;" 
 />
    <glyph glyph-name="cid3537" unicode="&#x5808;" 
 />
    <glyph glyph-name="cid6355" unicode="&#x5809;" 
 />
    <glyph glyph-name="cid5793" unicode="&#x580a;" 
 />
    <glyph glyph-name="cid7187" unicode="&#x581e;" 
 />
    <glyph glyph-name="cid5059" unicode="&#x5821;" 
 />
    <glyph glyph-name="cid6762" unicode="&#x5824;" 
 />
    <glyph glyph-name="cid5957" unicode="&#x5827;" 
 />
    <glyph glyph-name="cid3512" unicode="&#x582a;" 
 />
    <glyph glyph-name="cid6142" unicode="&#x582f;" 
 />
    <glyph glyph-name="cid5918" unicode="&#x5830;" 
 />
    <glyph glyph-name="cid5060" unicode="&#x5831;" 
 />
    <glyph glyph-name="cid6537" unicode="&#x5834;" 
 />
    <glyph glyph-name="cid4273" unicode="&#x5835;" 
 />
    <glyph glyph-name="cid3707" unicode="&#x583a;" 
 />
    <glyph glyph-name="cid3857" unicode="&#x584a;" 
 />
    <glyph glyph-name="cid6002" unicode="&#x584b;" 
 />
    <glyph glyph-name="cid3564" unicode="&#x584f;" 
 />
    <glyph glyph-name="cid5502" unicode="&#x5851;" 
 />
    <glyph glyph-name="cid7424" unicode="&#x5854;" 
 />
    <glyph glyph-name="cid4274" unicode="&#x5857;" 
 />
    <glyph glyph-name="cid4241" unicode="&#x5858;" 
 />
    <glyph glyph-name="cid7252" unicode="&#x585a;" 
 />
    <glyph glyph-name="cid5362" unicode="&#x585e;" 
 />
    <glyph glyph-name="cid5362" unicode="&#xf96c;" 
 />
    <glyph glyph-name="cid6650" unicode="&#x5861;" 
 />
    <glyph glyph-name="cid6057" unicode="&#x5862;" 
 />
    <glyph glyph-name="cid7981" unicode="&#x5864;" 
 />
    <glyph glyph-name="cid6982" unicode="&#x5875;" 
 />
    <glyph glyph-name="cid7084" unicode="&#x5879;" 
 />
    <glyph glyph-name="cid6651" unicode="&#x587c;" 
 />
    <glyph glyph-name="cid5629" unicode="&#x587e;" 
 />
    <glyph glyph-name="cid3669" unicode="&#x5883;" 
 />
    <glyph glyph-name="cid5373" unicode="&#x5885;" 
 />
    <glyph glyph-name="cid6179" unicode="&#x5889;" 
 />
    <glyph glyph-name="cid4801" unicode="&#x5893;" 
 />
    <glyph glyph-name="cid7265" unicode="&#x589c;" 
 />
    <glyph glyph-name="cid6931" unicode="&#x589e;" 
 />
    <glyph glyph-name="cid7720" unicode="&#x589f;" 
 />
    <glyph glyph-name="cid4834" unicode="&#x58a8;" 
 />
    <glyph glyph-name="cid4319" unicode="&#x58a9;" 
 />
    <glyph glyph-name="cid7383" unicode="&#x58ae;" 
 />
    <glyph glyph-name="cid5155" unicode="&#x58b3;" 
 />
    <glyph glyph-name="cid6058" unicode="&#x58ba;" 
 />
    <glyph glyph-name="cid6538" unicode="&#x58bb;" 
 />
    <glyph glyph-name="cid3478" unicode="&#x58be;" 
 />
    <glyph glyph-name="cid5022" unicode="&#x58c1;" 
 />
    <glyph glyph-name="cid6090" unicode="&#x58c5;" 
 />
    <glyph glyph-name="cid4197" unicode="&#x58c7;" 
 />
    <glyph glyph-name="cid7982" unicode="&#x58ce;" 
 />
    <glyph glyph-name="cid7630" unicode="&#x58d1;" 
 />
    <glyph glyph-name="cid5829" unicode="&#x58d3;" 
 />
    <glyph glyph-name="cid7803" unicode="&#x58d5;" 
 />
    <glyph glyph-name="cid4564" unicode="&#x58d8;" 
 />
    <glyph glyph-name="cid4564" unicode="&#xf94a;" 
 />
    <glyph glyph-name="cid3842" unicode="&#x58d9;" 
 />
    <glyph glyph-name="cid3858" unicode="&#x58de;" 
 />
    <glyph glyph-name="cid4536" unicode="&#x58df;" 
 />
    <glyph glyph-name="cid4536" unicode="&#xf942;" 
 />
    <glyph glyph-name="cid5880" unicode="&#x58e4;" 
 />
    <glyph glyph-name="cid6470" unicode="&#x58ec;" 
 />
    <glyph glyph-name="cid6539" unicode="&#x58ef;" 
 />
    <glyph glyph-name="cid6463" unicode="&#x58f9;" 
 />
    <glyph glyph-name="cid7804" unicode="&#x58fa;" 
 />
    <glyph glyph-name="cid5374" unicode="&#x58fb;" 
 />
    <glyph glyph-name="cid5572" unicode="&#x58fd;" 
 />
    <glyph glyph-name="cid7619" unicode="&#x590f;" 
 />
    <glyph glyph-name="cid4071" unicode="&#x5914;" 
 />
    <glyph glyph-name="cid6135" unicode="&#x5916;" 
 />
    <glyph glyph-name="cid5630" unicode="&#x5919;" 
 />
    <glyph glyph-name="cid4190" unicode="&#x591a;" 
 />
    <glyph glyph-name="cid5865" unicode="&#x591c;" 
 />
    <glyph glyph-name="cid4797" unicode="&#x5922;" 
 />
    <glyph glyph-name="cid7151" unicode="&#x5929;" 
 />
    <glyph glyph-name="cid7433" unicode="&#x592a;" 
 />
    <glyph glyph-name="cid5118" unicode="&#x592b;" 
 />
    <glyph glyph-name="cid6143" unicode="&#x592d;" 
 />
    <glyph glyph-name="cid5834" unicode="&#x592e;" 
 />
    <glyph glyph-name="cid5758" unicode="&#x5931;" 
 />
    <glyph glyph-name="cid6416" unicode="&#x5937;" 
 />
    <glyph glyph-name="cid7761" unicode="&#x593e;" 
 />
    <glyph glyph-name="cid5928" unicode="&#x5944;" 
 />
    <glyph glyph-name="cid4072" unicode="&#x5947;" 
 />
    <glyph glyph-name="cid4156" unicode="&#x5948;" 
 />
    <glyph glyph-name="cid4156" unicode="&#xf90c;" 
 />
    <glyph glyph-name="cid5094" unicode="&#x5949;" 
 />
    <glyph glyph-name="cid3996" unicode="&#x594e;" 
 />
    <glyph glyph-name="cid6869" unicode="&#x594f;" 
 />
    <glyph glyph-name="cid7884" unicode="&#x5950;" 
 />
    <glyph glyph-name="cid3708" unicode="&#x5951;" 
 />
    <glyph glyph-name="cid3708" unicode="&#xf909;" 
 />
    <glyph glyph-name="cid5156" unicode="&#x5954;" 
 />
    <glyph glyph-name="cid7730" unicode="&#x5955;" 
 />
    <glyph glyph-name="cid7466" unicode="&#x5957;" 
 />
    <glyph glyph-name="cid7689" unicode="&#x595a;" 
 />
    </font>
</defs>
</svg>
